%TF.GenerationSoftware,KiCad,Pcbnew,9.0.8*%
%TF.CreationDate,2026-03-26T19:45:35+02:00*%
%TF.ProjectId,ONA,4f4e412e-6b69-4636-9164-5f7063625858,rev?*%
%TF.SameCoordinates,Original*%
%TF.FileFunction,Copper,L4,Bot*%
%TF.FilePolarity,Positive*%
%FSLAX46Y46*%
G04 Gerber Fmt 4.6, Leading zero omitted, Abs format (unit mm)*
G04 Created by KiCad (PCBNEW 9.0.8) date 2026-03-26 19:45:35*
%MOMM*%
%LPD*%
G01*
G04 APERTURE LIST*
G04 Aperture macros list*
%AMRoundRect*
0 Rectangle with rounded corners*
0 $1 Rounding radius*
0 $2 $3 $4 $5 $6 $7 $8 $9 X,Y pos of 4 corners*
0 Add a 4 corners polygon primitive as box body*
4,1,4,$2,$3,$4,$5,$6,$7,$8,$9,$2,$3,0*
0 Add four circle primitives for the rounded corners*
1,1,$1+$1,$2,$3*
1,1,$1+$1,$4,$5*
1,1,$1+$1,$6,$7*
1,1,$1+$1,$8,$9*
0 Add four rect primitives between the rounded corners*
20,1,$1+$1,$2,$3,$4,$5,0*
20,1,$1+$1,$4,$5,$6,$7,0*
20,1,$1+$1,$6,$7,$8,$9,0*
20,1,$1+$1,$8,$9,$2,$3,0*%
G04 Aperture macros list end*
%TA.AperFunction,ComponentPad*%
%ADD10RoundRect,0.250000X1.050000X1.050000X-1.050000X1.050000X-1.050000X-1.050000X1.050000X-1.050000X0*%
%TD*%
%TA.AperFunction,ComponentPad*%
%ADD11C,2.600000*%
%TD*%
%TA.AperFunction,ComponentPad*%
%ADD12RoundRect,0.250000X1.050000X-1.050000X1.050000X1.050000X-1.050000X1.050000X-1.050000X-1.050000X0*%
%TD*%
%TA.AperFunction,ComponentPad*%
%ADD13C,0.400000*%
%TD*%
%TA.AperFunction,ComponentPad*%
%ADD14RoundRect,0.250000X-1.050000X-1.050000X1.050000X-1.050000X1.050000X1.050000X-1.050000X1.050000X0*%
%TD*%
%TA.AperFunction,HeatsinkPad*%
%ADD15O,1.000000X2.100000*%
%TD*%
%TA.AperFunction,HeatsinkPad*%
%ADD16O,1.000000X1.600000*%
%TD*%
%TA.AperFunction,ViaPad*%
%ADD17C,0.600000*%
%TD*%
%TA.AperFunction,Conductor*%
%ADD18C,0.200000*%
%TD*%
%TA.AperFunction,Conductor*%
%ADD19C,0.500000*%
%TD*%
G04 APERTURE END LIST*
D10*
%TO.P,TDS Sensor,1,Pin_1*%
%TO.N,/+24v*%
X176120000Y-92340000D03*
D11*
%TO.P,TDS Sensor,2,Pin_2*%
%TO.N,GND*%
X171120000Y-92340000D03*
%TO.P,TDS Sensor,3,Pin_3*%
%TO.N,Net-(TDS1-Pin_3)*%
X166120000Y-92340000D03*
%TO.P,TDS Sensor,4,Pin_4*%
%TO.N,Net-(TDS1-Pin_4)*%
X161120000Y-92340000D03*
%TD*%
D10*
%TO.P,Pressure Sensor,1,Pin_1*%
%TO.N,/+24v*%
X154870000Y-92280000D03*
D11*
%TO.P,Pressure Sensor,2,Pin_2*%
%TO.N,Net-(I.L.T1-Pin_2)*%
X149870000Y-92280000D03*
%TD*%
D12*
%TO.P,Differential pressure transmitter,1,Pin_1*%
%TO.N,/+24v*%
X174570000Y-115355000D03*
D11*
%TO.P,Differential pressure transmitter,2,Pin_2*%
%TO.N,GND*%
X174570000Y-110355000D03*
%TO.P,Differential pressure transmitter,3,Pin_3*%
%TO.N,Net-(DiffrPressureTransmitter1-Pin_3)*%
X174570000Y-105355000D03*
%TO.P,Differential pressure transmitter,4,Pin_4*%
%TO.N,Net-(DiffrPressureTransmitter1-Pin_4)*%
X174570000Y-100355000D03*
%TD*%
D13*
%TO.P,ESP32-S3-WROOM-U1,41_10*%
%TO.N,GND*%
X116040000Y-95790000D03*
%TO.P,ESP32-S3-WROOM-U1,41_11*%
X117440000Y-95790000D03*
%TO.P,ESP32-S3-WROOM-U1,41_12*%
X115340000Y-96490000D03*
%TO.P,ESP32-S3-WROOM-U1,41_13*%
X116740000Y-96490000D03*
%TO.P,ESP32-S3-WROOM-U1,41_14*%
X118140000Y-96490000D03*
%TO.P,ESP32-S3-WROOM-U1,41_15*%
X116040000Y-97190000D03*
%TO.P,ESP32-S3-WROOM-U1,41_16*%
X117440000Y-97190000D03*
%TO.P,ESP32-S3-WROOM-U1,41_17*%
X115340000Y-97890000D03*
%TO.P,ESP32-S3-WROOM-U1,41_18*%
X116740000Y-97890000D03*
%TO.P,ESP32-S3-WROOM-U1,41_19*%
X118140000Y-97890000D03*
%TO.P,ESP32-S3-WROOM-U1,41_20*%
X116040000Y-98590000D03*
%TO.P,ESP32-S3-WROOM-U1,41_21*%
X117440000Y-98590000D03*
%TD*%
D14*
%TO.P,VFD,1,Pin_1*%
%TO.N,Net-(U8-A)*%
X111950000Y-124675000D03*
D11*
%TO.P,VFD,2,Pin_2*%
%TO.N,Net-(U8-B)*%
X116950000Y-124675000D03*
%TD*%
D14*
%TO.P,Flow Sensor,1,Pin_1*%
%TO.N,Net-(I.L.T2-Pin_1)*%
X123450000Y-124667500D03*
D11*
%TO.P,Flow Sensor,2,Pin_2*%
%TO.N,GND*%
X128450000Y-124667500D03*
%TD*%
D12*
%TO.P,power 24v,1,Pin_1*%
%TO.N,GND*%
X174540000Y-126705000D03*
D11*
%TO.P,power 24v,2,Pin_2*%
%TO.N,/+24v*%
X174540000Y-121705000D03*
%TD*%
D15*
%TO.P,PROGRAMMING,S1,SHIELD*%
%TO.N,unconnected-(J1-SHIELD-PadS1)_1*%
X145450000Y-94030000D03*
D16*
%TO.N,unconnected-(J1-SHIELD-PadS1)*%
X145450000Y-89850000D03*
D15*
%TO.N,unconnected-(J1-SHIELD-PadS1)_3*%
X136810000Y-94030000D03*
D16*
%TO.N,unconnected-(J1-SHIELD-PadS1)_2*%
X136810000Y-89850000D03*
%TD*%
D17*
%TO.N,Net-(I.L.T1-Pin_2)*%
X151170000Y-94960000D03*
%TO.N,/I.L.T_pin*%
X149350000Y-98970000D03*
X111220000Y-94610000D03*
X122410000Y-94330000D03*
X124230000Y-94380000D03*
%TO.N,/3.3v*%
X111020000Y-91710000D03*
X158660000Y-102930000D03*
X126940000Y-107450000D03*
X165920000Y-111900000D03*
X112980000Y-111320000D03*
X107050000Y-97090000D03*
X166630000Y-118120000D03*
X128570000Y-92960000D03*
X121850000Y-111200000D03*
X129990000Y-102760000D03*
%TO.N,GND*%
X138660000Y-119990000D03*
X108220000Y-88810000D03*
X107421000Y-93100000D03*
X138790000Y-122180000D03*
%TO.N,/+24v*%
X147580000Y-119400000D03*
X169720000Y-114920000D03*
%TO.N,/Flow Sensor Pin*%
X111350000Y-93260000D03*
X129410000Y-113760000D03*
%TO.N,/+5v*%
X146120000Y-105590000D03*
X140360000Y-120000000D03*
X170440000Y-110870000D03*
X167320000Y-122410000D03*
X138800000Y-96180000D03*
X146090000Y-107760000D03*
X156100000Y-122670000D03*
X143620000Y-96170000D03*
%TO.N,Net-(U1-3V3)*%
X111200000Y-90660000D03*
X125490000Y-90680000D03*
%TO.N,Net-(I.L.T2-Pin_1)*%
X128400000Y-120090000D03*
%TO.N,Net-(DiffrPressureTransmitter1-Pin_4)*%
X135990000Y-98910000D03*
%TO.N,Net-(DiffrPressureTransmitter1-Pin_3)*%
X136520000Y-100130000D03*
X132550000Y-98110000D03*
X132550000Y-96860000D03*
%TO.N,Net-(TDS1-Pin_3)*%
X170740000Y-103190000D03*
X118540000Y-117510000D03*
X172700000Y-106350000D03*
%TO.N,Net-(TDS1-Pin_4)*%
X124840000Y-115540000D03*
%TO.N,Net-(R10-Pad2)*%
X136380000Y-121330000D03*
X137670000Y-121270000D03*
%TO.N,Net-(U8-B)*%
X115520000Y-114260000D03*
X110660000Y-117330000D03*
%TO.N,Net-(U8-A)*%
X109430000Y-117300000D03*
X114150000Y-117470000D03*
%TO.N,/Diff Pressure Transmitter*%
X124400000Y-96170000D03*
X122670000Y-95870000D03*
X111320000Y-95470000D03*
X128541000Y-98340000D03*
%TO.N,/Rx2*%
X107741000Y-102830000D03*
X107680000Y-99920000D03*
%TO.N,/USB D+*%
X140520000Y-100469000D03*
X122320000Y-103260000D03*
X110860000Y-106000000D03*
X123770000Y-103010000D03*
%TO.N,/USB D-*%
X111180000Y-104640000D03*
X122528608Y-102461559D03*
X131610707Y-99050707D03*
X123770000Y-102240000D03*
X132290000Y-99940000D03*
X142850000Y-101920000D03*
%TD*%
D18*
%TO.N,Net-(I.L.T1-Pin_2)*%
X151170000Y-94960000D02*
X151170000Y-93580000D01*
X151170000Y-93580000D02*
X149870000Y-92280000D01*
%TO.N,/I.L.T_pin*%
X132670000Y-94180000D02*
X124430000Y-94180000D01*
X124430000Y-94180000D02*
X124230000Y-94380000D01*
X148680000Y-98300000D02*
X137470000Y-98300000D01*
X133350000Y-94180000D02*
X132670000Y-94180000D01*
X137470000Y-98300000D02*
X133350000Y-94180000D01*
X149350000Y-98970000D02*
X148680000Y-98300000D01*
X111500000Y-94330000D02*
X111220000Y-94610000D01*
X122410000Y-94330000D02*
X111500000Y-94330000D01*
%TO.N,GND*%
X138790000Y-120120000D02*
X138660000Y-119990000D01*
X138790000Y-122180000D02*
X138790000Y-120120000D01*
D19*
%TO.N,/+24v*%
X167580000Y-128665000D02*
X167580000Y-130050000D01*
X152720000Y-126530000D02*
X151750000Y-125560000D01*
X174570000Y-121675000D02*
X174540000Y-121705000D01*
X151750000Y-125560000D02*
X151750000Y-118950000D01*
X155940000Y-88710000D02*
X155940000Y-88950000D01*
X147970000Y-119280000D02*
X147850000Y-119400000D01*
X170155000Y-115355000D02*
X169720000Y-114920000D01*
X172810000Y-88710000D02*
X155940000Y-88710000D01*
X179380000Y-114340000D02*
X179380000Y-95600000D01*
X167580000Y-130050000D02*
X156240000Y-130050000D01*
X174570000Y-115355000D02*
X174570000Y-121675000D01*
X176120000Y-92020000D02*
X172810000Y-88710000D01*
X147850000Y-119400000D02*
X147580000Y-119400000D01*
X174540000Y-121705000D02*
X167580000Y-128665000D01*
X148300000Y-118950000D02*
X147970000Y-119280000D01*
X174570000Y-115355000D02*
X170155000Y-115355000D01*
X151750000Y-118950000D02*
X148300000Y-118950000D01*
X154870000Y-90020000D02*
X154870000Y-92280000D01*
X179380000Y-95600000D02*
X176120000Y-92340000D01*
X174570000Y-115355000D02*
X178365000Y-115355000D01*
X155940000Y-88950000D02*
X154870000Y-90020000D01*
X178365000Y-115355000D02*
X179380000Y-114340000D01*
X176120000Y-92340000D02*
X176120000Y-92020000D01*
X156240000Y-130050000D02*
X152720000Y-126530000D01*
D18*
%TO.N,/Flow Sensor Pin*%
X124600000Y-108630000D02*
X124570000Y-108660000D01*
X129810000Y-113360000D02*
X129810000Y-108630000D01*
X124570000Y-108660000D02*
X123220000Y-107310000D01*
X129410000Y-113760000D02*
X129810000Y-113360000D01*
X123220000Y-93270000D02*
X111360000Y-93270000D01*
X129810000Y-108630000D02*
X124600000Y-108630000D01*
X111360000Y-93270000D02*
X111350000Y-93260000D01*
X123220000Y-107310000D02*
X123220000Y-93270000D01*
%TO.N,Net-(U1-3V3)*%
X125470000Y-90660000D02*
X125490000Y-90680000D01*
X111200000Y-90660000D02*
X125470000Y-90660000D01*
%TO.N,Net-(I.L.T2-Pin_1)*%
X123450000Y-124667500D02*
X123822500Y-124667500D01*
X123822500Y-124667500D02*
X128400000Y-120090000D01*
%TO.N,Net-(DiffrPressureTransmitter1-Pin_4)*%
X168960000Y-105004000D02*
X152700388Y-105004000D01*
X137905388Y-101019000D02*
X137368194Y-100481806D01*
X148715388Y-101019000D02*
X146130000Y-101019000D01*
X148921000Y-101224612D02*
X148715388Y-101019000D01*
X137368194Y-100481806D02*
X137368194Y-100198962D01*
X169921000Y-105004000D02*
X168960000Y-105004000D01*
X136079232Y-98910000D02*
X135990000Y-98910000D01*
X152288194Y-104591806D02*
X148921000Y-101224612D01*
X137368194Y-100198962D02*
X136079232Y-98910000D01*
X146130000Y-101019000D02*
X137905388Y-101019000D01*
X174570000Y-100355000D02*
X169921000Y-105004000D01*
X152700388Y-105004000D02*
X152288194Y-104591806D01*
%TO.N,Net-(DiffrPressureTransmitter1-Pin_3)*%
X136520000Y-100130000D02*
X137760000Y-101370000D01*
X132550000Y-96860000D02*
X132550000Y-98110000D01*
X152555000Y-105355000D02*
X174570000Y-105355000D01*
X148570000Y-101370000D02*
X152555000Y-105355000D01*
X137760000Y-101370000D02*
X148570000Y-101370000D01*
%TO.N,Net-(TDS1-Pin_3)*%
X124289000Y-115768232D02*
X124289000Y-115311768D01*
X160477554Y-90789000D02*
X164569000Y-90789000D01*
X170740000Y-103190000D02*
X169776554Y-103190000D01*
X164569000Y-90789000D02*
X166120000Y-92340000D01*
X124521000Y-117510000D02*
X126140000Y-115891000D01*
X124611768Y-116091000D02*
X124289000Y-115768232D01*
X159569000Y-92982446D02*
X159569000Y-91697554D01*
X159569000Y-91697554D02*
X160477554Y-90789000D01*
X125289768Y-114311000D02*
X164739000Y-114311000D01*
X126140000Y-115891000D02*
X125940000Y-116091000D01*
X125940000Y-116091000D02*
X124611768Y-116091000D01*
X164739000Y-114311000D02*
X172700000Y-106350000D01*
X124289000Y-115311768D02*
X125289768Y-114311000D01*
X118540000Y-117510000D02*
X124521000Y-117510000D01*
X169776554Y-103190000D02*
X159569000Y-92982446D01*
%TO.N,Net-(TDS1-Pin_4)*%
X175212446Y-98804000D02*
X176121000Y-99712554D01*
X176121000Y-105997446D02*
X166578446Y-115540000D01*
X161120000Y-92340000D02*
X167584000Y-98804000D01*
X166578446Y-115540000D02*
X124840000Y-115540000D01*
X176121000Y-99712554D02*
X176121000Y-105997446D01*
X167584000Y-98804000D02*
X175212446Y-98804000D01*
%TO.N,Net-(R10-Pad2)*%
X136380000Y-121330000D02*
X137610000Y-121330000D01*
X137610000Y-121330000D02*
X137670000Y-121270000D01*
%TO.N,Net-(U8-B)*%
X115449000Y-116919000D02*
X115520000Y-116990000D01*
X111071000Y-116919000D02*
X115449000Y-116919000D01*
X115520000Y-123245000D02*
X115520000Y-116990000D01*
X115520000Y-116990000D02*
X115520000Y-114260000D01*
X116950000Y-124675000D02*
X115520000Y-123245000D01*
X110660000Y-117330000D02*
X111071000Y-116919000D01*
%TO.N,Net-(U8-A)*%
X111950000Y-124675000D02*
X111950000Y-119670000D01*
X111730000Y-119600000D02*
X112020000Y-119600000D01*
X109430000Y-117300000D02*
X111730000Y-119600000D01*
X111950000Y-119670000D02*
X112020000Y-119600000D01*
X112020000Y-119600000D02*
X114150000Y-117470000D01*
%TO.N,/Diff Pressure Transmitter*%
X111320000Y-95470000D02*
X111990000Y-94800000D01*
X124400000Y-96170000D02*
X126371000Y-96170000D01*
X122670000Y-95310000D02*
X122670000Y-95870000D01*
X111990000Y-94800000D02*
X116190000Y-94800000D01*
X116310000Y-94920000D02*
X122220000Y-94920000D01*
X122250000Y-94890000D02*
X122670000Y-95310000D01*
X122220000Y-94920000D02*
X122250000Y-94890000D01*
X116190000Y-94800000D02*
X116310000Y-94920000D01*
X126371000Y-96170000D02*
X128541000Y-98340000D01*
%TO.N,/Rx2*%
X107741000Y-102830000D02*
X107741000Y-99981000D01*
X107741000Y-99981000D02*
X107680000Y-99920000D01*
%TO.N,/USB D+*%
X138328232Y-100469000D02*
X136218232Y-98359000D01*
X120210000Y-105370000D02*
X119750000Y-105370000D01*
X136218232Y-98359000D02*
X133080232Y-98359000D01*
X122320000Y-103260000D02*
X120210000Y-105370000D01*
X128429232Y-103010000D02*
X123770000Y-103010000D01*
X119750000Y-105370000D02*
X111490000Y-105370000D01*
X140520000Y-100469000D02*
X138328232Y-100469000D01*
X133080232Y-98359000D02*
X128429232Y-103010000D01*
X111490000Y-105370000D02*
X110860000Y-106000000D01*
%TO.N,/USB D-*%
X113358441Y-102461559D02*
X122528608Y-102461559D01*
X134270000Y-101920000D02*
X142850000Y-101920000D01*
X132290000Y-99940000D02*
X134270000Y-101920000D01*
X111180000Y-104640000D02*
X113358441Y-102461559D01*
X123770000Y-102240000D02*
X128421414Y-102240000D01*
X128421414Y-102240000D02*
X131610707Y-99050707D01*
%TD*%
%TA.AperFunction,Conductor*%
%TO.N,GND*%
G36*
X181054043Y-86265765D02*
G01*
X181302895Y-86282075D01*
X181318951Y-86284190D01*
X181417460Y-86303784D01*
X181479370Y-86336169D01*
X181513944Y-86396885D01*
X181517267Y-86425401D01*
X181517267Y-86599584D01*
X181549289Y-86801767D01*
X181612548Y-86996456D01*
X181705482Y-87178846D01*
X181825795Y-87344446D01*
X181970553Y-87489204D01*
X182125516Y-87601789D01*
X182136157Y-87609520D01*
X182252374Y-87668736D01*
X182318543Y-87702451D01*
X182318545Y-87702451D01*
X182318548Y-87702453D01*
X182422904Y-87736360D01*
X182513232Y-87765710D01*
X182614324Y-87781721D01*
X182715415Y-87797733D01*
X182715416Y-87797733D01*
X182889598Y-87797733D01*
X182920063Y-87806678D01*
X182950957Y-87813979D01*
X182953341Y-87816450D01*
X182956637Y-87817418D01*
X182977426Y-87841410D01*
X182999473Y-87864258D01*
X183001017Y-87868635D01*
X183002392Y-87870222D01*
X183011215Y-87897541D01*
X183029276Y-87988340D01*
X183030807Y-87996034D01*
X183032925Y-88012116D01*
X183049235Y-88260956D01*
X183049500Y-88269066D01*
X183049500Y-128530933D01*
X183049235Y-128539043D01*
X183032925Y-128787883D01*
X183030807Y-128803965D01*
X183011215Y-128902459D01*
X182978830Y-128964370D01*
X182918114Y-128998944D01*
X182889598Y-129002267D01*
X182715415Y-129002267D01*
X182697996Y-129005026D01*
X182513232Y-129034289D01*
X182318543Y-129097548D01*
X182136153Y-129190482D01*
X181970553Y-129310795D01*
X181825795Y-129455553D01*
X181705482Y-129621153D01*
X181612548Y-129803543D01*
X181549289Y-129998232D01*
X181517267Y-130200415D01*
X181517267Y-130374598D01*
X181508322Y-130405059D01*
X181501021Y-130435958D01*
X181498549Y-130438343D01*
X181497582Y-130441637D01*
X181473593Y-130462422D01*
X181450742Y-130484473D01*
X181446364Y-130486017D01*
X181444778Y-130487392D01*
X181417459Y-130496215D01*
X181318965Y-130515807D01*
X181302883Y-130517925D01*
X181054043Y-130534235D01*
X181045933Y-130534500D01*
X168377228Y-130534500D01*
X168310189Y-130514815D01*
X168264434Y-130462011D01*
X168254490Y-130392853D01*
X168262667Y-130363048D01*
X168301656Y-130268917D01*
X168301658Y-130268913D01*
X168311096Y-130221462D01*
X168330500Y-130123920D01*
X168330500Y-129027229D01*
X168350185Y-128960190D01*
X168366819Y-128939548D01*
X169398677Y-127907690D01*
X171701353Y-125605013D01*
X172740000Y-125605013D01*
X172740000Y-126455000D01*
X173939999Y-126455000D01*
X173914979Y-126515402D01*
X173890000Y-126640981D01*
X173890000Y-126769019D01*
X173914979Y-126894598D01*
X173939999Y-126955000D01*
X172740001Y-126955000D01*
X172740001Y-127804986D01*
X172750494Y-127907697D01*
X172805641Y-128074119D01*
X172805643Y-128074124D01*
X172897684Y-128223345D01*
X173021654Y-128347315D01*
X173170875Y-128439356D01*
X173170880Y-128439358D01*
X173337302Y-128494505D01*
X173337309Y-128494506D01*
X173440019Y-128504999D01*
X174289999Y-128504999D01*
X174290000Y-128504998D01*
X174290000Y-127305001D01*
X174350402Y-127330021D01*
X174475981Y-127355000D01*
X174604019Y-127355000D01*
X174729598Y-127330021D01*
X174790000Y-127305001D01*
X174790000Y-128504999D01*
X175639972Y-128504999D01*
X175639986Y-128504998D01*
X175742697Y-128494505D01*
X175909119Y-128439358D01*
X175909124Y-128439356D01*
X176058345Y-128347315D01*
X176182315Y-128223345D01*
X176274356Y-128074124D01*
X176274358Y-128074119D01*
X176329505Y-127907697D01*
X176329506Y-127907690D01*
X176339999Y-127804986D01*
X176340000Y-127804973D01*
X176340000Y-126955000D01*
X175140001Y-126955000D01*
X175165021Y-126894598D01*
X175190000Y-126769019D01*
X175190000Y-126640981D01*
X175165021Y-126515402D01*
X175140001Y-126455000D01*
X176339999Y-126455000D01*
X176339999Y-125605028D01*
X176339998Y-125605013D01*
X176329505Y-125502302D01*
X176274358Y-125335880D01*
X176274356Y-125335875D01*
X176182315Y-125186654D01*
X176058345Y-125062684D01*
X175909124Y-124970643D01*
X175909119Y-124970641D01*
X175742697Y-124915494D01*
X175742690Y-124915493D01*
X175639986Y-124905000D01*
X174790000Y-124905000D01*
X174790000Y-126104998D01*
X174729598Y-126079979D01*
X174604019Y-126055000D01*
X174475981Y-126055000D01*
X174350402Y-126079979D01*
X174290000Y-126104998D01*
X174290000Y-124905000D01*
X173440028Y-124905000D01*
X173440012Y-124905001D01*
X173337302Y-124915494D01*
X173170880Y-124970641D01*
X173170875Y-124970643D01*
X173021654Y-125062684D01*
X172897684Y-125186654D01*
X172805643Y-125335875D01*
X172805641Y-125335880D01*
X172750494Y-125502302D01*
X172750493Y-125502309D01*
X172740000Y-125605013D01*
X171701353Y-125605013D01*
X173856350Y-123450016D01*
X173917671Y-123416533D01*
X173976121Y-123417923D01*
X174187986Y-123474693D01*
X174421989Y-123505500D01*
X174421996Y-123505500D01*
X174658004Y-123505500D01*
X174658011Y-123505500D01*
X174892014Y-123474693D01*
X175119993Y-123413606D01*
X175338049Y-123323284D01*
X175542450Y-123205273D01*
X175729699Y-123061592D01*
X175896592Y-122894699D01*
X176040273Y-122707450D01*
X176158284Y-122503049D01*
X176248606Y-122284993D01*
X176309693Y-122057014D01*
X176340500Y-121823011D01*
X176340500Y-121586989D01*
X176309693Y-121352986D01*
X176248606Y-121125007D01*
X176158284Y-120906951D01*
X176158282Y-120906948D01*
X176158280Y-120906943D01*
X176096824Y-120800499D01*
X176040273Y-120702550D01*
X175961808Y-120600292D01*
X175896593Y-120515302D01*
X175896587Y-120515295D01*
X175729704Y-120348412D01*
X175729697Y-120348406D01*
X175542457Y-120204732D01*
X175542455Y-120204730D01*
X175542450Y-120204727D01*
X175398567Y-120121656D01*
X175382499Y-120112379D01*
X175334284Y-120061811D01*
X175320500Y-120004992D01*
X175320500Y-117279499D01*
X175340185Y-117212460D01*
X175392989Y-117166705D01*
X175444500Y-117155499D01*
X175670002Y-117155499D01*
X175670008Y-117155499D01*
X175772797Y-117144999D01*
X175939334Y-117089814D01*
X176088656Y-116997712D01*
X176212712Y-116873656D01*
X176304814Y-116724334D01*
X176359999Y-116557797D01*
X176370500Y-116455009D01*
X176370500Y-116229500D01*
X176390185Y-116162461D01*
X176442989Y-116116706D01*
X176494500Y-116105500D01*
X178438920Y-116105500D01*
X178536462Y-116086096D01*
X178583913Y-116076658D01*
X178720495Y-116020084D01*
X178795366Y-115970057D01*
X178843416Y-115937952D01*
X179962952Y-114818416D01*
X180021857Y-114730256D01*
X180045084Y-114695495D01*
X180101658Y-114558913D01*
X180130500Y-114413918D01*
X180130500Y-95526082D01*
X180130500Y-95526079D01*
X180101659Y-95381092D01*
X180101658Y-95381091D01*
X180101658Y-95381087D01*
X180096859Y-95369500D01*
X180045087Y-95244511D01*
X180045080Y-95244498D01*
X179962952Y-95121585D01*
X179930757Y-95089390D01*
X179858416Y-95017049D01*
X177956818Y-93115451D01*
X177923333Y-93054128D01*
X177920499Y-93027770D01*
X177920499Y-91239998D01*
X177920498Y-91239981D01*
X177909999Y-91137203D01*
X177909998Y-91137200D01*
X177901664Y-91112049D01*
X177854814Y-90970666D01*
X177762712Y-90821344D01*
X177638656Y-90697288D01*
X177489334Y-90605186D01*
X177322797Y-90550001D01*
X177322795Y-90550000D01*
X177220016Y-90539500D01*
X177220009Y-90539500D01*
X175752230Y-90539500D01*
X175685191Y-90519815D01*
X175664549Y-90503181D01*
X173288421Y-88127052D01*
X173288414Y-88127046D01*
X173205850Y-88071879D01*
X173205751Y-88071814D01*
X173165495Y-88044916D01*
X173165494Y-88044915D01*
X173165492Y-88044914D01*
X173028917Y-87988343D01*
X173028907Y-87988340D01*
X172883920Y-87959500D01*
X172883918Y-87959500D01*
X156013918Y-87959500D01*
X155866082Y-87959500D01*
X155866080Y-87959500D01*
X155721092Y-87988340D01*
X155721082Y-87988343D01*
X155584511Y-88044912D01*
X155584498Y-88044919D01*
X155461584Y-88127048D01*
X155461580Y-88127051D01*
X155357051Y-88231580D01*
X155357048Y-88231584D01*
X155274919Y-88354498D01*
X155274912Y-88354511D01*
X155218343Y-88491082D01*
X155218340Y-88491092D01*
X155196080Y-88602998D01*
X155163694Y-88664909D01*
X155162144Y-88666487D01*
X154287052Y-89541578D01*
X154287051Y-89541579D01*
X154287048Y-89541584D01*
X154237938Y-89615084D01*
X154221427Y-89639794D01*
X154204916Y-89664504D01*
X154204912Y-89664511D01*
X154148343Y-89801082D01*
X154148340Y-89801092D01*
X154119500Y-89946079D01*
X154119500Y-90355500D01*
X154099815Y-90422539D01*
X154047011Y-90468294D01*
X153995501Y-90479500D01*
X153769999Y-90479500D01*
X153769980Y-90479501D01*
X153667203Y-90490000D01*
X153667200Y-90490001D01*
X153500668Y-90545185D01*
X153500663Y-90545187D01*
X153351342Y-90637289D01*
X153227289Y-90761342D01*
X153135187Y-90910663D01*
X153135185Y-90910668D01*
X153130962Y-90923412D01*
X153080001Y-91077203D01*
X153080001Y-91077204D01*
X153080000Y-91077204D01*
X153069500Y-91179983D01*
X153069500Y-93380001D01*
X153069501Y-93380018D01*
X153080000Y-93482796D01*
X153080001Y-93482799D01*
X153135185Y-93649331D01*
X153135187Y-93649336D01*
X153160802Y-93690865D01*
X153227288Y-93798656D01*
X153351344Y-93922712D01*
X153500666Y-94014814D01*
X153667203Y-94069999D01*
X153769991Y-94080500D01*
X155970008Y-94080499D01*
X156072797Y-94069999D01*
X156239334Y-94014814D01*
X156388656Y-93922712D01*
X156512712Y-93798656D01*
X156604814Y-93649334D01*
X156659999Y-93482797D01*
X156670500Y-93380009D01*
X156670499Y-91179992D01*
X156667465Y-91150295D01*
X156659999Y-91077203D01*
X156659998Y-91077200D01*
X156637999Y-91010812D01*
X156604814Y-90910666D01*
X156512712Y-90761344D01*
X156388656Y-90637288D01*
X156280060Y-90570306D01*
X156239336Y-90545187D01*
X156239331Y-90545185D01*
X156222175Y-90539500D01*
X156072797Y-90490001D01*
X156072795Y-90490000D01*
X155970016Y-90479500D01*
X155970009Y-90479500D01*
X155771229Y-90479500D01*
X155704190Y-90459815D01*
X155658435Y-90407011D01*
X155648491Y-90337853D01*
X155677516Y-90274297D01*
X155683548Y-90267819D01*
X156454548Y-89496819D01*
X156515871Y-89463334D01*
X156542229Y-89460500D01*
X172447770Y-89460500D01*
X172514809Y-89480185D01*
X172535451Y-89496819D01*
X174283181Y-91244549D01*
X174316666Y-91305872D01*
X174319500Y-91332230D01*
X174319500Y-93440001D01*
X174319501Y-93440018D01*
X174330000Y-93542796D01*
X174330001Y-93542799D01*
X174385185Y-93709331D01*
X174385187Y-93709336D01*
X174393082Y-93722136D01*
X174477288Y-93858656D01*
X174601344Y-93982712D01*
X174750666Y-94074814D01*
X174917203Y-94129999D01*
X175019991Y-94140500D01*
X176807769Y-94140499D01*
X176874808Y-94160184D01*
X176895450Y-94176818D01*
X178593181Y-95874548D01*
X178626666Y-95935871D01*
X178629500Y-95962229D01*
X178629500Y-113977770D01*
X178609815Y-114044809D01*
X178593181Y-114065451D01*
X178090451Y-114568181D01*
X178029128Y-114601666D01*
X178002770Y-114604500D01*
X176494499Y-114604500D01*
X176427460Y-114584815D01*
X176381705Y-114532011D01*
X176370499Y-114480500D01*
X176370499Y-114254998D01*
X176370498Y-114254981D01*
X176359999Y-114152203D01*
X176359998Y-114152200D01*
X176318344Y-114026498D01*
X176304814Y-113985666D01*
X176212712Y-113836344D01*
X176088656Y-113712288D01*
X175968561Y-113638213D01*
X175939336Y-113620187D01*
X175939331Y-113620185D01*
X175910683Y-113610692D01*
X175772797Y-113565001D01*
X175772795Y-113565000D01*
X175670010Y-113554500D01*
X173469998Y-113554500D01*
X173469981Y-113554501D01*
X173367203Y-113565000D01*
X173367200Y-113565001D01*
X173200668Y-113620185D01*
X173200663Y-113620187D01*
X173051342Y-113712289D01*
X172927289Y-113836342D01*
X172835187Y-113985663D01*
X172835185Y-113985668D01*
X172820783Y-114029132D01*
X172780001Y-114152203D01*
X172780001Y-114152204D01*
X172780000Y-114152204D01*
X172769500Y-114254983D01*
X172769500Y-114480500D01*
X172749815Y-114547539D01*
X172697011Y-114593294D01*
X172645500Y-114604500D01*
X170537754Y-114604500D01*
X170470715Y-114584815D01*
X170434025Y-114545054D01*
X170432779Y-114545887D01*
X170341789Y-114409710D01*
X170230292Y-114298213D01*
X170230288Y-114298210D01*
X170099185Y-114210609D01*
X170099172Y-114210602D01*
X169953501Y-114150264D01*
X169953489Y-114150261D01*
X169798845Y-114119500D01*
X169798842Y-114119500D01*
X169641158Y-114119500D01*
X169641155Y-114119500D01*
X169486510Y-114150261D01*
X169486498Y-114150264D01*
X169340827Y-114210602D01*
X169340814Y-114210609D01*
X169209711Y-114298210D01*
X169209707Y-114298213D01*
X169098213Y-114409707D01*
X169098210Y-114409711D01*
X169010609Y-114540814D01*
X169010602Y-114540827D01*
X168950264Y-114686498D01*
X168950261Y-114686510D01*
X168919500Y-114841153D01*
X168919500Y-114998843D01*
X168950261Y-115153489D01*
X168950264Y-115153501D01*
X169010602Y-115299172D01*
X169010609Y-115299185D01*
X169098210Y-115430288D01*
X169098213Y-115430292D01*
X169209710Y-115541789D01*
X169340815Y-115629390D01*
X169340821Y-115629394D01*
X169364475Y-115639191D01*
X169404703Y-115666071D01*
X169676584Y-115937952D01*
X169724631Y-115970055D01*
X169724633Y-115970057D01*
X169724634Y-115970057D01*
X169799505Y-116020084D01*
X169799506Y-116020084D01*
X169799507Y-116020085D01*
X169921556Y-116070639D01*
X169936087Y-116076658D01*
X169936091Y-116076658D01*
X169936092Y-116076659D01*
X170081079Y-116105500D01*
X170081082Y-116105500D01*
X170081083Y-116105500D01*
X170228917Y-116105500D01*
X172645501Y-116105500D01*
X172712540Y-116125185D01*
X172758295Y-116177989D01*
X172769501Y-116229500D01*
X172769501Y-116455018D01*
X172780000Y-116557796D01*
X172780001Y-116557799D01*
X172835185Y-116724331D01*
X172835187Y-116724336D01*
X172847495Y-116744290D01*
X172927288Y-116873656D01*
X173051344Y-116997712D01*
X173200666Y-117089814D01*
X173367203Y-117144999D01*
X173469991Y-117155500D01*
X173695500Y-117155499D01*
X173762539Y-117175183D01*
X173808294Y-117227987D01*
X173819500Y-117279499D01*
X173819500Y-119971739D01*
X173799815Y-120038778D01*
X173747011Y-120084533D01*
X173742966Y-120086294D01*
X173741969Y-120086706D01*
X173741943Y-120086719D01*
X173537545Y-120204730D01*
X173350302Y-120348406D01*
X173350295Y-120348412D01*
X173183412Y-120515295D01*
X173183406Y-120515302D01*
X173039730Y-120702545D01*
X173039727Y-120702549D01*
X173039727Y-120702550D01*
X173036233Y-120708602D01*
X172921719Y-120906943D01*
X172921714Y-120906954D01*
X172831394Y-121125006D01*
X172770306Y-121352989D01*
X172739501Y-121586979D01*
X172739500Y-121586995D01*
X172739500Y-121823004D01*
X172739501Y-121823020D01*
X172770306Y-122057012D01*
X172827075Y-122268875D01*
X172825412Y-122338725D01*
X172794981Y-122388649D01*
X166997050Y-128186580D01*
X166997044Y-128186588D01*
X166947812Y-128260268D01*
X166947813Y-128260269D01*
X166914921Y-128309496D01*
X166914914Y-128309508D01*
X166858342Y-128446086D01*
X166858340Y-128446092D01*
X166829500Y-128591079D01*
X166829500Y-129175500D01*
X166809815Y-129242539D01*
X166757011Y-129288294D01*
X166705500Y-129299500D01*
X156602230Y-129299500D01*
X156535191Y-129279815D01*
X156514549Y-129263181D01*
X153194097Y-125942728D01*
X153194074Y-125942707D01*
X152536819Y-125285451D01*
X152503334Y-125224128D01*
X152500500Y-125197770D01*
X152500500Y-122591153D01*
X155299500Y-122591153D01*
X155299500Y-122748846D01*
X155330261Y-122903489D01*
X155330264Y-122903501D01*
X155390602Y-123049172D01*
X155390609Y-123049185D01*
X155478210Y-123180288D01*
X155478213Y-123180292D01*
X155589707Y-123291786D01*
X155589711Y-123291789D01*
X155720814Y-123379390D01*
X155720827Y-123379397D01*
X155810483Y-123416533D01*
X155866503Y-123439737D01*
X155992015Y-123464703D01*
X156021153Y-123470499D01*
X156021156Y-123470500D01*
X156021158Y-123470500D01*
X156178844Y-123470500D01*
X156178845Y-123470499D01*
X156333497Y-123439737D01*
X156479179Y-123379394D01*
X156610289Y-123291789D01*
X156721789Y-123180289D01*
X156809394Y-123049179D01*
X156869737Y-122903497D01*
X156900500Y-122748842D01*
X156900500Y-122591158D01*
X156900500Y-122591155D01*
X156900499Y-122591153D01*
X156882973Y-122503045D01*
X156869737Y-122436503D01*
X156869735Y-122436498D01*
X156843234Y-122372518D01*
X156826100Y-122331153D01*
X166519500Y-122331153D01*
X166519500Y-122488846D01*
X166550261Y-122643489D01*
X166550264Y-122643501D01*
X166610602Y-122789172D01*
X166610609Y-122789185D01*
X166698210Y-122920288D01*
X166698213Y-122920292D01*
X166809707Y-123031786D01*
X166809711Y-123031789D01*
X166940814Y-123119390D01*
X166940827Y-123119397D01*
X167074415Y-123174730D01*
X167086503Y-123179737D01*
X167241153Y-123210499D01*
X167241156Y-123210500D01*
X167241158Y-123210500D01*
X167398844Y-123210500D01*
X167398845Y-123210499D01*
X167553497Y-123179737D01*
X167699179Y-123119394D01*
X167830289Y-123031789D01*
X167941789Y-122920289D01*
X168029394Y-122789179D01*
X168089737Y-122643497D01*
X168120500Y-122488842D01*
X168120500Y-122331158D01*
X168120500Y-122331155D01*
X168120499Y-122331153D01*
X168089738Y-122176510D01*
X168089737Y-122176503D01*
X168057939Y-122099735D01*
X168029397Y-122030827D01*
X168029390Y-122030814D01*
X167941789Y-121899711D01*
X167941786Y-121899707D01*
X167830292Y-121788213D01*
X167830288Y-121788210D01*
X167699185Y-121700609D01*
X167699172Y-121700602D01*
X167553501Y-121640264D01*
X167553489Y-121640261D01*
X167398845Y-121609500D01*
X167398842Y-121609500D01*
X167241158Y-121609500D01*
X167241155Y-121609500D01*
X167086510Y-121640261D01*
X167086498Y-121640264D01*
X166940827Y-121700602D01*
X166940814Y-121700609D01*
X166809711Y-121788210D01*
X166809707Y-121788213D01*
X166698213Y-121899707D01*
X166698210Y-121899711D01*
X166610609Y-122030814D01*
X166610602Y-122030827D01*
X166550264Y-122176498D01*
X166550261Y-122176510D01*
X166519500Y-122331153D01*
X156826100Y-122331153D01*
X156809397Y-122290827D01*
X156809390Y-122290814D01*
X156721789Y-122159711D01*
X156721786Y-122159707D01*
X156610292Y-122048213D01*
X156610288Y-122048210D01*
X156479185Y-121960609D01*
X156479172Y-121960602D01*
X156333501Y-121900264D01*
X156333489Y-121900261D01*
X156178845Y-121869500D01*
X156178842Y-121869500D01*
X156021158Y-121869500D01*
X156021155Y-121869500D01*
X155866510Y-121900261D01*
X155866498Y-121900264D01*
X155720827Y-121960602D01*
X155720814Y-121960609D01*
X155589711Y-122048210D01*
X155589707Y-122048213D01*
X155478213Y-122159707D01*
X155478210Y-122159711D01*
X155390609Y-122290814D01*
X155390602Y-122290827D01*
X155330264Y-122436498D01*
X155330261Y-122436510D01*
X155299500Y-122591153D01*
X152500500Y-122591153D01*
X152500500Y-118876079D01*
X152471659Y-118731092D01*
X152471658Y-118731091D01*
X152471658Y-118731087D01*
X152471656Y-118731082D01*
X152415087Y-118594511D01*
X152415080Y-118594498D01*
X152332951Y-118471584D01*
X152332948Y-118471580D01*
X152228419Y-118367051D01*
X152228415Y-118367048D01*
X152105501Y-118284919D01*
X152105488Y-118284912D01*
X151968917Y-118228343D01*
X151968907Y-118228340D01*
X151823920Y-118199500D01*
X151823918Y-118199500D01*
X148226082Y-118199500D01*
X148226080Y-118199500D01*
X148081092Y-118228340D01*
X148081082Y-118228343D01*
X147944511Y-118284912D01*
X147944498Y-118284919D01*
X147821584Y-118367048D01*
X147821580Y-118367051D01*
X147625451Y-118563181D01*
X147564128Y-118596666D01*
X147537770Y-118599500D01*
X147501155Y-118599500D01*
X147346510Y-118630261D01*
X147346498Y-118630264D01*
X147200827Y-118690602D01*
X147200814Y-118690609D01*
X147069711Y-118778210D01*
X147069707Y-118778213D01*
X146958213Y-118889707D01*
X146958210Y-118889711D01*
X146870609Y-119020814D01*
X146870602Y-119020827D01*
X146810264Y-119166498D01*
X146810261Y-119166510D01*
X146779500Y-119321153D01*
X146779500Y-119478846D01*
X146810261Y-119633489D01*
X146810264Y-119633501D01*
X146870602Y-119779172D01*
X146870609Y-119779185D01*
X146958210Y-119910288D01*
X146958213Y-119910292D01*
X147069707Y-120021786D01*
X147069711Y-120021789D01*
X147200814Y-120109390D01*
X147200827Y-120109397D01*
X147300060Y-120150500D01*
X147346503Y-120169737D01*
X147501153Y-120200499D01*
X147501156Y-120200500D01*
X147501158Y-120200500D01*
X147658844Y-120200500D01*
X147658845Y-120200499D01*
X147735152Y-120185320D01*
X147813488Y-120169739D01*
X147813489Y-120169738D01*
X147813497Y-120169737D01*
X147837155Y-120159937D01*
X147884604Y-120150500D01*
X147923920Y-120150500D01*
X148021462Y-120131096D01*
X148068913Y-120121658D01*
X148205495Y-120065084D01*
X148270291Y-120021789D01*
X148270294Y-120021786D01*
X148270296Y-120021786D01*
X148299547Y-120002240D01*
X148328416Y-119982952D01*
X148448414Y-119862953D01*
X148448415Y-119862953D01*
X148574549Y-119736819D01*
X148635872Y-119703334D01*
X148662230Y-119700500D01*
X150875500Y-119700500D01*
X150942539Y-119720185D01*
X150988294Y-119772989D01*
X150999500Y-119824500D01*
X150999500Y-125633918D01*
X150999500Y-125633920D01*
X150999499Y-125633920D01*
X151028340Y-125778907D01*
X151028343Y-125778917D01*
X151084912Y-125915488D01*
X151084916Y-125915495D01*
X151105997Y-125947045D01*
X151105998Y-125947048D01*
X151167046Y-126038414D01*
X151167052Y-126038421D01*
X152132707Y-127004074D01*
X152132728Y-127004097D01*
X155451451Y-130322819D01*
X155484936Y-130384142D01*
X155479952Y-130453834D01*
X155438080Y-130509767D01*
X155372616Y-130534184D01*
X155363770Y-130534500D01*
X107794067Y-130534500D01*
X107785957Y-130534235D01*
X107537116Y-130517925D01*
X107521035Y-130515807D01*
X107489394Y-130509513D01*
X107422541Y-130496215D01*
X107360630Y-130463830D01*
X107326056Y-130403114D01*
X107322733Y-130374598D01*
X107322733Y-130200415D01*
X107290710Y-129998232D01*
X107227451Y-129803543D01*
X107193736Y-129737374D01*
X107134520Y-129621157D01*
X107080586Y-129546922D01*
X107014204Y-129455553D01*
X106869446Y-129310795D01*
X106703846Y-129190482D01*
X106703845Y-129190481D01*
X106703843Y-129190480D01*
X106646886Y-129161458D01*
X106521456Y-129097548D01*
X106326767Y-129034289D01*
X106142004Y-129005026D01*
X106124585Y-129002267D01*
X105950401Y-129002267D01*
X105919939Y-128993322D01*
X105889041Y-128986021D01*
X105886655Y-128983549D01*
X105883362Y-128982582D01*
X105862576Y-128958593D01*
X105840526Y-128935742D01*
X105838981Y-128931364D01*
X105837607Y-128929778D01*
X105828784Y-128902459D01*
X105809190Y-128803951D01*
X105807075Y-128787895D01*
X105790765Y-128539043D01*
X105790500Y-128530933D01*
X105790500Y-117221153D01*
X108629500Y-117221153D01*
X108629500Y-117378846D01*
X108660261Y-117533489D01*
X108660264Y-117533501D01*
X108720602Y-117679172D01*
X108720609Y-117679185D01*
X108808210Y-117810288D01*
X108808213Y-117810292D01*
X108919707Y-117921786D01*
X108919711Y-117921789D01*
X109050814Y-118009390D01*
X109050827Y-118009397D01*
X109167276Y-118057631D01*
X109196503Y-118069737D01*
X109261147Y-118082595D01*
X109351849Y-118100638D01*
X109413760Y-118133023D01*
X109415339Y-118134574D01*
X111249478Y-119968713D01*
X111249480Y-119968716D01*
X111313183Y-120032419D01*
X111316402Y-120038315D01*
X111346666Y-120093739D01*
X111349500Y-120120098D01*
X111349500Y-122750500D01*
X111329815Y-122817539D01*
X111277011Y-122863294D01*
X111225500Y-122874500D01*
X110849998Y-122874500D01*
X110849980Y-122874501D01*
X110747203Y-122885000D01*
X110747200Y-122885001D01*
X110580668Y-122940185D01*
X110580663Y-122940187D01*
X110431342Y-123032289D01*
X110307289Y-123156342D01*
X110215187Y-123305663D01*
X110215185Y-123305668D01*
X110209093Y-123324054D01*
X110160001Y-123472203D01*
X110160001Y-123472204D01*
X110160000Y-123472204D01*
X110149500Y-123574983D01*
X110149500Y-125775001D01*
X110149501Y-125775018D01*
X110160000Y-125877796D01*
X110160001Y-125877799D01*
X110206400Y-126017819D01*
X110215186Y-126044334D01*
X110307288Y-126193656D01*
X110431344Y-126317712D01*
X110580666Y-126409814D01*
X110747203Y-126464999D01*
X110849991Y-126475500D01*
X113050008Y-126475499D01*
X113152797Y-126464999D01*
X113319334Y-126409814D01*
X113468656Y-126317712D01*
X113592712Y-126193656D01*
X113684814Y-126044334D01*
X113739999Y-125877797D01*
X113750500Y-125775009D01*
X113750499Y-123574992D01*
X113739999Y-123472203D01*
X113684814Y-123305666D01*
X113592712Y-123156344D01*
X113468656Y-123032288D01*
X113361824Y-122966394D01*
X113319336Y-122940187D01*
X113319331Y-122940185D01*
X113317862Y-122939698D01*
X113152797Y-122885001D01*
X113152795Y-122885000D01*
X113050016Y-122874500D01*
X113050009Y-122874500D01*
X112674500Y-122874500D01*
X112607461Y-122854815D01*
X112561706Y-122802011D01*
X112550500Y-122750500D01*
X112550500Y-119970097D01*
X112570185Y-119903058D01*
X112586819Y-119882416D01*
X113302737Y-119166498D01*
X114164662Y-118304572D01*
X114225983Y-118271089D01*
X114228150Y-118270638D01*
X114286085Y-118259113D01*
X114383497Y-118239737D01*
X114529179Y-118179394D01*
X114660289Y-118091789D01*
X114682504Y-118069574D01*
X114707819Y-118044260D01*
X114769142Y-118010775D01*
X114838834Y-118015759D01*
X114894767Y-118057631D01*
X114919184Y-118123095D01*
X114919500Y-118131941D01*
X114919500Y-123158330D01*
X114919499Y-123158348D01*
X114919499Y-123324054D01*
X114919498Y-123324054D01*
X114960423Y-123476785D01*
X114987970Y-123524496D01*
X114987971Y-123524500D01*
X114987972Y-123524500D01*
X115017122Y-123574991D01*
X115039479Y-123613714D01*
X115039481Y-123613717D01*
X115158349Y-123732585D01*
X115158355Y-123732590D01*
X115264635Y-123838870D01*
X115298120Y-123900193D01*
X115293136Y-123969885D01*
X115291515Y-123974003D01*
X115241394Y-124095006D01*
X115180306Y-124322989D01*
X115149501Y-124556979D01*
X115149500Y-124556995D01*
X115149500Y-124793004D01*
X115149501Y-124793020D01*
X115180306Y-125027010D01*
X115241394Y-125254993D01*
X115331714Y-125473045D01*
X115331719Y-125473056D01*
X115402677Y-125595957D01*
X115449727Y-125677450D01*
X115449729Y-125677453D01*
X115449730Y-125677454D01*
X115593406Y-125864697D01*
X115593412Y-125864704D01*
X115760295Y-126031587D01*
X115760302Y-126031593D01*
X115776909Y-126044336D01*
X115947550Y-126175273D01*
X116078918Y-126251118D01*
X116151943Y-126293280D01*
X116151948Y-126293282D01*
X116151951Y-126293284D01*
X116370007Y-126383606D01*
X116597986Y-126444693D01*
X116831989Y-126475500D01*
X116831996Y-126475500D01*
X117068004Y-126475500D01*
X117068011Y-126475500D01*
X117302014Y-126444693D01*
X117529993Y-126383606D01*
X117748049Y-126293284D01*
X117952450Y-126175273D01*
X118139699Y-126031592D01*
X118306592Y-125864699D01*
X118450273Y-125677450D01*
X118568284Y-125473049D01*
X118658606Y-125254993D01*
X118719693Y-125027014D01*
X118750500Y-124793011D01*
X118750500Y-124556989D01*
X118719693Y-124322986D01*
X118658606Y-124095007D01*
X118568284Y-123876951D01*
X118568282Y-123876948D01*
X118568280Y-123876943D01*
X118484934Y-123732585D01*
X118450273Y-123672550D01*
X118444716Y-123665308D01*
X118425159Y-123639820D01*
X118369653Y-123567483D01*
X121649500Y-123567483D01*
X121649500Y-125767501D01*
X121649501Y-125767518D01*
X121660000Y-125870296D01*
X121660001Y-125870299D01*
X121715185Y-126036831D01*
X121715187Y-126036836D01*
X121716162Y-126038416D01*
X121807288Y-126186156D01*
X121931344Y-126310212D01*
X122080666Y-126402314D01*
X122247203Y-126457499D01*
X122349991Y-126468000D01*
X124550008Y-126467999D01*
X124652797Y-126457499D01*
X124819334Y-126402314D01*
X124968656Y-126310212D01*
X125092712Y-126186156D01*
X125184814Y-126036834D01*
X125239999Y-125870297D01*
X125250500Y-125767509D01*
X125250499Y-124549514D01*
X126650000Y-124549514D01*
X126650000Y-124785485D01*
X126680799Y-125019414D01*
X126741870Y-125247337D01*
X126832160Y-125465319D01*
X126832165Y-125465328D01*
X126950144Y-125669671D01*
X126950145Y-125669672D01*
X127012721Y-125751223D01*
X127848958Y-124914987D01*
X127873978Y-124975390D01*
X127945112Y-125081851D01*
X128035649Y-125172388D01*
X128142110Y-125243522D01*
X128202511Y-125268541D01*
X127366275Y-126104777D01*
X127447827Y-126167354D01*
X127447828Y-126167355D01*
X127652171Y-126285334D01*
X127652180Y-126285339D01*
X127870163Y-126375629D01*
X127870161Y-126375629D01*
X128098085Y-126436700D01*
X128332014Y-126467499D01*
X128332029Y-126467500D01*
X128567971Y-126467500D01*
X128567985Y-126467499D01*
X128801914Y-126436700D01*
X129029837Y-126375629D01*
X129247819Y-126285339D01*
X129247828Y-126285334D01*
X129452181Y-126167350D01*
X129533723Y-126104779D01*
X129533723Y-126104776D01*
X128697487Y-125268541D01*
X128757890Y-125243522D01*
X128864351Y-125172388D01*
X128954888Y-125081851D01*
X129026022Y-124975390D01*
X129051041Y-124914987D01*
X129887276Y-125751223D01*
X129887279Y-125751223D01*
X129949850Y-125669681D01*
X130067834Y-125465328D01*
X130067839Y-125465319D01*
X130158129Y-125247337D01*
X130219200Y-125019414D01*
X130249999Y-124785485D01*
X130250000Y-124785471D01*
X130250000Y-124549528D01*
X130249999Y-124549514D01*
X130219200Y-124315585D01*
X130158129Y-124087662D01*
X130067839Y-123869680D01*
X130067834Y-123869671D01*
X129949855Y-123665328D01*
X129949854Y-123665327D01*
X129887277Y-123583775D01*
X129051041Y-124420011D01*
X129026022Y-124359610D01*
X128954888Y-124253149D01*
X128864351Y-124162612D01*
X128757890Y-124091478D01*
X128697488Y-124066458D01*
X129533723Y-123230221D01*
X129452172Y-123167645D01*
X129452171Y-123167644D01*
X129247828Y-123049665D01*
X129247819Y-123049660D01*
X129029836Y-122959370D01*
X129029838Y-122959370D01*
X128801914Y-122898299D01*
X128567985Y-122867500D01*
X128332014Y-122867500D01*
X128098085Y-122898299D01*
X127870162Y-122959370D01*
X127652180Y-123049660D01*
X127652171Y-123049665D01*
X127447828Y-123167644D01*
X127447818Y-123167650D01*
X127366275Y-123230220D01*
X127366275Y-123230221D01*
X128202512Y-124066458D01*
X128142110Y-124091478D01*
X128035649Y-124162612D01*
X127945112Y-124253149D01*
X127873978Y-124359610D01*
X127848958Y-124420012D01*
X127012721Y-123583775D01*
X127012720Y-123583775D01*
X126950150Y-123665318D01*
X126950144Y-123665328D01*
X126832165Y-123869671D01*
X126832160Y-123869680D01*
X126741870Y-124087662D01*
X126680799Y-124315585D01*
X126650000Y-124549514D01*
X125250499Y-124549514D01*
X125250499Y-124140095D01*
X125270184Y-124073057D01*
X125286813Y-124052420D01*
X128088082Y-121251153D01*
X135579500Y-121251153D01*
X135579500Y-121408846D01*
X135610261Y-121563489D01*
X135610264Y-121563501D01*
X135670602Y-121709172D01*
X135670609Y-121709185D01*
X135758210Y-121840288D01*
X135758213Y-121840292D01*
X135869707Y-121951786D01*
X135869711Y-121951789D01*
X136000814Y-122039390D01*
X136000827Y-122039397D01*
X136146498Y-122099735D01*
X136146503Y-122099737D01*
X136301153Y-122130499D01*
X136301156Y-122130500D01*
X136301158Y-122130500D01*
X136458844Y-122130500D01*
X136458845Y-122130499D01*
X136613497Y-122099737D01*
X136759179Y-122039394D01*
X136848971Y-121979397D01*
X136890875Y-121951398D01*
X136908921Y-121945747D01*
X136924831Y-121935523D01*
X136955792Y-121931071D01*
X136957553Y-121930520D01*
X136959766Y-121930500D01*
X137180031Y-121930500D01*
X137247070Y-121950185D01*
X137248876Y-121951367D01*
X137290821Y-121979394D01*
X137290823Y-121979395D01*
X137290827Y-121979397D01*
X137414992Y-122030827D01*
X137436503Y-122039737D01*
X137591153Y-122070499D01*
X137591156Y-122070500D01*
X137591158Y-122070500D01*
X137748844Y-122070500D01*
X137748845Y-122070499D01*
X137903497Y-122039737D01*
X138049179Y-121979394D01*
X138180289Y-121891789D01*
X138291789Y-121780289D01*
X138379394Y-121649179D01*
X138439737Y-121503497D01*
X138470500Y-121348842D01*
X138470500Y-121191158D01*
X138470500Y-121191155D01*
X138470499Y-121191153D01*
X138463782Y-121157385D01*
X138439737Y-121036503D01*
X138404244Y-120950814D01*
X138379397Y-120890827D01*
X138379390Y-120890814D01*
X138291789Y-120759711D01*
X138291786Y-120759707D01*
X138180292Y-120648213D01*
X138180288Y-120648210D01*
X138049185Y-120560609D01*
X138049172Y-120560602D01*
X137903501Y-120500264D01*
X137903489Y-120500261D01*
X137748845Y-120469500D01*
X137748842Y-120469500D01*
X137591158Y-120469500D01*
X137591155Y-120469500D01*
X137436510Y-120500261D01*
X137436498Y-120500264D01*
X137290827Y-120560602D01*
X137290814Y-120560609D01*
X137159711Y-120648210D01*
X137159707Y-120648213D01*
X137114742Y-120693180D01*
X137087813Y-120707884D01*
X137061995Y-120724477D01*
X137055795Y-120725368D01*
X137053419Y-120726666D01*
X137027060Y-120729500D01*
X136959766Y-120729500D01*
X136892727Y-120709815D01*
X136890875Y-120708602D01*
X136759185Y-120620609D01*
X136759172Y-120620602D01*
X136613501Y-120560264D01*
X136613489Y-120560261D01*
X136458845Y-120529500D01*
X136458842Y-120529500D01*
X136301158Y-120529500D01*
X136301155Y-120529500D01*
X136146510Y-120560261D01*
X136146498Y-120560264D01*
X136000827Y-120620602D01*
X136000814Y-120620609D01*
X135869711Y-120708210D01*
X135869707Y-120708213D01*
X135758213Y-120819707D01*
X135758210Y-120819711D01*
X135670609Y-120950814D01*
X135670602Y-120950827D01*
X135610264Y-121096498D01*
X135610261Y-121096510D01*
X135579500Y-121251153D01*
X128088082Y-121251153D01*
X128414664Y-120924571D01*
X128475985Y-120891088D01*
X128478152Y-120890637D01*
X128478841Y-120890500D01*
X128478842Y-120890500D01*
X128633497Y-120859737D01*
X128779179Y-120799394D01*
X128910289Y-120711789D01*
X129021789Y-120600289D01*
X129109394Y-120469179D01*
X129169737Y-120323497D01*
X129200500Y-120168842D01*
X129200500Y-120011158D01*
X129200500Y-120011155D01*
X129200499Y-120011153D01*
X129186199Y-119939257D01*
X129182598Y-119921153D01*
X139559500Y-119921153D01*
X139559500Y-120078846D01*
X139590261Y-120233489D01*
X139590264Y-120233501D01*
X139650602Y-120379172D01*
X139650609Y-120379185D01*
X139738210Y-120510288D01*
X139738213Y-120510292D01*
X139849707Y-120621786D01*
X139849711Y-120621789D01*
X139980814Y-120709390D01*
X139980827Y-120709397D01*
X140102288Y-120759707D01*
X140126503Y-120769737D01*
X140275578Y-120799390D01*
X140281153Y-120800499D01*
X140281156Y-120800500D01*
X140281158Y-120800500D01*
X140438844Y-120800500D01*
X140438845Y-120800499D01*
X140593497Y-120769737D01*
X140739179Y-120709394D01*
X140870289Y-120621789D01*
X140981789Y-120510289D01*
X141069394Y-120379179D01*
X141082141Y-120348406D01*
X141129735Y-120233501D01*
X141129737Y-120233497D01*
X141160500Y-120078842D01*
X141160500Y-119921158D01*
X141160500Y-119921155D01*
X141160499Y-119921153D01*
X141141273Y-119824500D01*
X141129737Y-119766503D01*
X141110552Y-119720185D01*
X141069397Y-119620827D01*
X141069390Y-119620814D01*
X140981789Y-119489711D01*
X140981786Y-119489707D01*
X140870292Y-119378213D01*
X140870288Y-119378210D01*
X140739185Y-119290609D01*
X140739172Y-119290602D01*
X140593501Y-119230264D01*
X140593489Y-119230261D01*
X140438845Y-119199500D01*
X140438842Y-119199500D01*
X140281158Y-119199500D01*
X140281155Y-119199500D01*
X140126510Y-119230261D01*
X140126498Y-119230264D01*
X139980827Y-119290602D01*
X139980814Y-119290609D01*
X139849711Y-119378210D01*
X139849707Y-119378213D01*
X139738213Y-119489707D01*
X139738210Y-119489711D01*
X139650609Y-119620814D01*
X139650602Y-119620827D01*
X139590264Y-119766498D01*
X139590261Y-119766510D01*
X139559500Y-119921153D01*
X129182598Y-119921153D01*
X129169738Y-119856508D01*
X129169737Y-119856507D01*
X129169737Y-119856503D01*
X129113273Y-119720185D01*
X129109397Y-119710827D01*
X129109390Y-119710814D01*
X129021789Y-119579711D01*
X129021786Y-119579707D01*
X128910292Y-119468213D01*
X128910288Y-119468210D01*
X128779185Y-119380609D01*
X128779172Y-119380602D01*
X128633501Y-119320264D01*
X128633489Y-119320261D01*
X128478845Y-119289500D01*
X128478842Y-119289500D01*
X128321158Y-119289500D01*
X128321155Y-119289500D01*
X128166510Y-119320261D01*
X128166498Y-119320264D01*
X128020827Y-119380602D01*
X128020814Y-119380609D01*
X127889711Y-119468210D01*
X127889707Y-119468213D01*
X127778213Y-119579707D01*
X127778210Y-119579711D01*
X127690609Y-119710814D01*
X127690602Y-119710827D01*
X127630264Y-119856498D01*
X127630261Y-119856508D01*
X127599362Y-120011848D01*
X127566977Y-120073759D01*
X127565426Y-120075337D01*
X124789852Y-122850911D01*
X124728529Y-122884396D01*
X124663173Y-122880938D01*
X124652800Y-122877501D01*
X124550010Y-122867000D01*
X122349998Y-122867000D01*
X122349981Y-122867001D01*
X122247203Y-122877500D01*
X122247200Y-122877501D01*
X122080668Y-122932685D01*
X122080663Y-122932687D01*
X121931342Y-123024789D01*
X121807289Y-123148842D01*
X121715187Y-123298163D01*
X121715185Y-123298168D01*
X121688271Y-123379390D01*
X121660001Y-123464703D01*
X121660001Y-123464704D01*
X121660000Y-123464704D01*
X121649500Y-123567483D01*
X118369653Y-123567483D01*
X118306593Y-123485302D01*
X118306587Y-123485295D01*
X118139704Y-123318412D01*
X118139697Y-123318406D01*
X117952454Y-123174730D01*
X117952453Y-123174729D01*
X117952450Y-123174727D01*
X117856616Y-123119397D01*
X117748056Y-123056719D01*
X117748045Y-123056714D01*
X117529993Y-122966394D01*
X117404190Y-122932685D01*
X117302014Y-122905307D01*
X117302013Y-122905306D01*
X117302010Y-122905306D01*
X117068020Y-122874501D01*
X117068017Y-122874500D01*
X117068011Y-122874500D01*
X116831989Y-122874500D01*
X116831983Y-122874500D01*
X116831979Y-122874501D01*
X116597989Y-122905306D01*
X116370006Y-122966394D01*
X116291952Y-122998725D01*
X116222482Y-123006194D01*
X116160003Y-122974918D01*
X116124352Y-122914829D01*
X116120500Y-122884164D01*
X116120500Y-114839765D01*
X116140185Y-114772726D01*
X116141398Y-114770874D01*
X116229390Y-114639185D01*
X116229390Y-114639184D01*
X116229394Y-114639179D01*
X116289737Y-114493497D01*
X116320500Y-114338842D01*
X116320500Y-114181158D01*
X116320500Y-114181155D01*
X116320499Y-114181153D01*
X116314355Y-114150264D01*
X116289737Y-114026503D01*
X116272821Y-113985663D01*
X116229397Y-113880827D01*
X116229390Y-113880814D01*
X116141789Y-113749711D01*
X116141786Y-113749707D01*
X116030292Y-113638213D01*
X116030288Y-113638210D01*
X115899185Y-113550609D01*
X115899172Y-113550602D01*
X115753501Y-113490264D01*
X115753489Y-113490261D01*
X115598845Y-113459500D01*
X115598842Y-113459500D01*
X115441158Y-113459500D01*
X115441155Y-113459500D01*
X115286510Y-113490261D01*
X115286498Y-113490264D01*
X115140827Y-113550602D01*
X115140814Y-113550609D01*
X115009711Y-113638210D01*
X115009707Y-113638213D01*
X114898213Y-113749707D01*
X114898210Y-113749711D01*
X114810609Y-113880814D01*
X114810602Y-113880827D01*
X114750264Y-114026498D01*
X114750261Y-114026510D01*
X114719500Y-114181153D01*
X114719500Y-114338846D01*
X114750261Y-114493489D01*
X114750264Y-114493501D01*
X114810602Y-114639172D01*
X114810609Y-114639185D01*
X114898602Y-114770874D01*
X114919480Y-114837551D01*
X114919500Y-114839765D01*
X114919500Y-116194500D01*
X114899815Y-116261539D01*
X114847011Y-116307294D01*
X114795500Y-116318500D01*
X111157670Y-116318500D01*
X111157654Y-116318499D01*
X111150058Y-116318499D01*
X110991943Y-116318499D01*
X110915579Y-116338961D01*
X110839214Y-116359423D01*
X110839209Y-116359426D01*
X110702290Y-116438475D01*
X110702286Y-116438478D01*
X110645337Y-116495427D01*
X110584013Y-116528911D01*
X110581848Y-116529362D01*
X110426508Y-116560261D01*
X110426498Y-116560264D01*
X110280827Y-116620602D01*
X110280814Y-116620609D01*
X110149714Y-116708208D01*
X110149706Y-116708215D01*
X110147674Y-116710247D01*
X110146349Y-116710970D01*
X110145007Y-116712072D01*
X110144797Y-116711817D01*
X110086349Y-116743727D01*
X110016657Y-116738737D01*
X109972319Y-116710240D01*
X109940292Y-116678213D01*
X109940288Y-116678210D01*
X109809185Y-116590609D01*
X109809172Y-116590602D01*
X109663501Y-116530264D01*
X109663489Y-116530261D01*
X109508845Y-116499500D01*
X109508842Y-116499500D01*
X109351158Y-116499500D01*
X109351155Y-116499500D01*
X109196510Y-116530261D01*
X109196498Y-116530264D01*
X109050827Y-116590602D01*
X109050814Y-116590609D01*
X108919711Y-116678210D01*
X108919707Y-116678213D01*
X108808213Y-116789707D01*
X108808210Y-116789711D01*
X108720609Y-116920814D01*
X108720602Y-116920827D01*
X108660264Y-117066498D01*
X108660261Y-117066510D01*
X108629500Y-117221153D01*
X105790500Y-117221153D01*
X105790500Y-111241153D01*
X112179500Y-111241153D01*
X112179500Y-111398846D01*
X112210261Y-111553489D01*
X112210264Y-111553501D01*
X112270602Y-111699172D01*
X112270609Y-111699185D01*
X112358210Y-111830288D01*
X112358213Y-111830292D01*
X112469707Y-111941786D01*
X112469711Y-111941789D01*
X112600814Y-112029390D01*
X112600827Y-112029397D01*
X112746498Y-112089735D01*
X112746503Y-112089737D01*
X112901153Y-112120499D01*
X112901156Y-112120500D01*
X112901158Y-112120500D01*
X113058844Y-112120500D01*
X113058845Y-112120499D01*
X113213497Y-112089737D01*
X113359179Y-112029394D01*
X113490289Y-111941789D01*
X113601789Y-111830289D01*
X113689394Y-111699179D01*
X113749737Y-111553497D01*
X113780500Y-111398842D01*
X113780500Y-111241158D01*
X113780500Y-111241155D01*
X113760231Y-111139258D01*
X113760231Y-111139257D01*
X113756630Y-111121153D01*
X121049500Y-111121153D01*
X121049500Y-111278846D01*
X121080261Y-111433489D01*
X121080264Y-111433501D01*
X121140602Y-111579172D01*
X121140609Y-111579185D01*
X121228210Y-111710288D01*
X121228213Y-111710292D01*
X121339707Y-111821786D01*
X121339711Y-111821789D01*
X121470814Y-111909390D01*
X121470827Y-111909397D01*
X121616498Y-111969735D01*
X121616503Y-111969737D01*
X121771153Y-112000499D01*
X121771156Y-112000500D01*
X121771158Y-112000500D01*
X121928844Y-112000500D01*
X121928845Y-112000499D01*
X122083497Y-111969737D01*
X122229179Y-111909394D01*
X122360289Y-111821789D01*
X122471789Y-111710289D01*
X122559394Y-111579179D01*
X122619737Y-111433497D01*
X122650500Y-111278842D01*
X122650500Y-111121158D01*
X122650500Y-111121155D01*
X122650499Y-111121153D01*
X122643606Y-111086498D01*
X122619737Y-110966503D01*
X122606621Y-110934837D01*
X122559397Y-110820827D01*
X122559390Y-110820814D01*
X122471789Y-110689711D01*
X122471786Y-110689707D01*
X122360292Y-110578213D01*
X122360288Y-110578210D01*
X122229185Y-110490609D01*
X122229172Y-110490602D01*
X122083501Y-110430264D01*
X122083489Y-110430261D01*
X121928845Y-110399500D01*
X121928842Y-110399500D01*
X121771158Y-110399500D01*
X121771155Y-110399500D01*
X121616510Y-110430261D01*
X121616498Y-110430264D01*
X121470827Y-110490602D01*
X121470814Y-110490609D01*
X121339711Y-110578210D01*
X121339707Y-110578213D01*
X121228213Y-110689707D01*
X121228210Y-110689711D01*
X121140609Y-110820814D01*
X121140602Y-110820827D01*
X121080264Y-110966498D01*
X121080261Y-110966510D01*
X121049500Y-111121153D01*
X113756630Y-111121153D01*
X113749738Y-111086510D01*
X113749737Y-111086503D01*
X113700030Y-110966498D01*
X113689397Y-110940827D01*
X113689390Y-110940814D01*
X113601789Y-110809711D01*
X113601786Y-110809707D01*
X113490292Y-110698213D01*
X113490288Y-110698210D01*
X113359185Y-110610609D01*
X113359172Y-110610602D01*
X113213501Y-110550264D01*
X113213489Y-110550261D01*
X113058845Y-110519500D01*
X113058842Y-110519500D01*
X112901158Y-110519500D01*
X112901155Y-110519500D01*
X112746510Y-110550261D01*
X112746498Y-110550264D01*
X112600827Y-110610602D01*
X112600814Y-110610609D01*
X112469711Y-110698210D01*
X112469707Y-110698213D01*
X112358213Y-110809707D01*
X112358210Y-110809711D01*
X112270609Y-110940814D01*
X112270602Y-110940827D01*
X112210264Y-111086498D01*
X112210261Y-111086510D01*
X112179500Y-111241153D01*
X105790500Y-111241153D01*
X105790500Y-105921153D01*
X110059500Y-105921153D01*
X110059500Y-106078846D01*
X110090261Y-106233489D01*
X110090264Y-106233501D01*
X110150602Y-106379172D01*
X110150609Y-106379185D01*
X110238210Y-106510288D01*
X110238213Y-106510292D01*
X110349707Y-106621786D01*
X110349711Y-106621789D01*
X110480814Y-106709390D01*
X110480827Y-106709397D01*
X110556181Y-106740609D01*
X110626503Y-106769737D01*
X110781153Y-106800499D01*
X110781156Y-106800500D01*
X110781158Y-106800500D01*
X110938844Y-106800500D01*
X110938845Y-106800499D01*
X111093497Y-106769737D01*
X111239179Y-106709394D01*
X111370289Y-106621789D01*
X111481789Y-106510289D01*
X111569394Y-106379179D01*
X111629737Y-106233497D01*
X111660500Y-106078842D01*
X111660500Y-106078840D01*
X111660637Y-106078152D01*
X111669404Y-106061389D01*
X111673429Y-106042902D01*
X111692158Y-106017890D01*
X111693021Y-106016241D01*
X111694584Y-106014651D01*
X111702429Y-106006808D01*
X111763756Y-105973330D01*
X111790099Y-105970500D01*
X119670943Y-105970500D01*
X120123331Y-105970500D01*
X120123347Y-105970501D01*
X120130943Y-105970501D01*
X120289054Y-105970501D01*
X120289057Y-105970501D01*
X120441785Y-105929577D01*
X120461163Y-105918389D01*
X120496234Y-105898141D01*
X120496245Y-105898133D01*
X120496257Y-105898127D01*
X120578716Y-105850520D01*
X120690520Y-105738716D01*
X120690520Y-105738714D01*
X120700724Y-105728511D01*
X120700727Y-105728506D01*
X122334664Y-104094571D01*
X122351259Y-104085510D01*
X122364868Y-104072379D01*
X122394362Y-104061973D01*
X122395985Y-104061088D01*
X122398152Y-104060637D01*
X122398841Y-104060500D01*
X122398842Y-104060500D01*
X122471310Y-104046085D01*
X122540900Y-104052312D01*
X122596078Y-104095175D01*
X122619322Y-104161065D01*
X122619500Y-104167702D01*
X122619500Y-107223330D01*
X122619499Y-107223348D01*
X122619499Y-107389054D01*
X122619498Y-107389054D01*
X122660423Y-107541785D01*
X122676861Y-107570256D01*
X122676860Y-107570256D01*
X122676861Y-107570257D01*
X122739475Y-107678709D01*
X122739481Y-107678717D01*
X122858349Y-107797585D01*
X122858355Y-107797590D01*
X124089481Y-109028716D01*
X124201284Y-109140519D01*
X124338215Y-109219577D01*
X124490943Y-109260501D01*
X124490946Y-109260501D01*
X124649055Y-109260501D01*
X124649057Y-109260501D01*
X124745252Y-109234724D01*
X124777346Y-109230500D01*
X129085500Y-109230500D01*
X129152539Y-109250185D01*
X129198294Y-109302989D01*
X129209500Y-109354500D01*
X129209500Y-112893740D01*
X129189815Y-112960779D01*
X129137011Y-113006534D01*
X129132953Y-113008301D01*
X129030824Y-113050604D01*
X129030814Y-113050609D01*
X128899711Y-113138210D01*
X128899707Y-113138213D01*
X128788213Y-113249707D01*
X128788210Y-113249711D01*
X128700609Y-113380814D01*
X128700602Y-113380827D01*
X128640264Y-113526498D01*
X128640261Y-113526508D01*
X128623516Y-113610692D01*
X128591131Y-113672603D01*
X128530415Y-113707177D01*
X128501899Y-113710500D01*
X125376438Y-113710500D01*
X125376422Y-113710499D01*
X125368826Y-113710499D01*
X125210711Y-113710499D01*
X125134347Y-113730961D01*
X125057982Y-113751423D01*
X125057977Y-113751426D01*
X124921058Y-113830475D01*
X124921050Y-113830481D01*
X123808479Y-114943052D01*
X123785839Y-114982266D01*
X123776270Y-114998842D01*
X123729423Y-115079983D01*
X123688499Y-115232711D01*
X123688499Y-115232713D01*
X123688499Y-115400814D01*
X123688500Y-115400827D01*
X123688500Y-115681562D01*
X123688499Y-115681580D01*
X123688499Y-115847286D01*
X123688498Y-115847286D01*
X123712792Y-115937952D01*
X123729423Y-116000017D01*
X123729425Y-116000020D01*
X123736311Y-116011947D01*
X123808477Y-116136944D01*
X123808481Y-116136949D01*
X123927349Y-116255817D01*
X123927355Y-116255822D01*
X124126907Y-116455374D01*
X124126917Y-116455385D01*
X124131247Y-116459715D01*
X124131248Y-116459716D01*
X124243052Y-116571520D01*
X124328072Y-116620606D01*
X124335889Y-116625119D01*
X124353142Y-116643212D01*
X124373159Y-116658196D01*
X124376839Y-116668062D01*
X124384106Y-116675683D01*
X124388838Y-116700232D01*
X124397577Y-116723660D01*
X124395338Y-116733950D01*
X124397332Y-116744290D01*
X124388040Y-116767502D01*
X124382726Y-116791933D01*
X124373128Y-116804754D01*
X124371367Y-116809155D01*
X124361576Y-116820188D01*
X124343382Y-116838381D01*
X124308583Y-116873181D01*
X124247263Y-116906666D01*
X124220903Y-116909500D01*
X119119766Y-116909500D01*
X119052727Y-116889815D01*
X119050875Y-116888602D01*
X118919185Y-116800609D01*
X118919172Y-116800602D01*
X118773501Y-116740264D01*
X118773489Y-116740261D01*
X118618845Y-116709500D01*
X118618842Y-116709500D01*
X118461158Y-116709500D01*
X118461155Y-116709500D01*
X118306510Y-116740261D01*
X118306498Y-116740264D01*
X118160827Y-116800602D01*
X118160814Y-116800609D01*
X118029711Y-116888210D01*
X118029707Y-116888213D01*
X117918213Y-116999707D01*
X117918210Y-116999711D01*
X117830609Y-117130814D01*
X117830602Y-117130827D01*
X117770264Y-117276498D01*
X117770261Y-117276510D01*
X117739500Y-117431153D01*
X117739500Y-117588846D01*
X117770261Y-117743489D01*
X117770264Y-117743501D01*
X117830602Y-117889172D01*
X117830609Y-117889185D01*
X117918210Y-118020288D01*
X117918213Y-118020292D01*
X118029707Y-118131786D01*
X118029711Y-118131789D01*
X118160814Y-118219390D01*
X118160827Y-118219397D01*
X118306498Y-118279735D01*
X118306503Y-118279737D01*
X118461153Y-118310499D01*
X118461156Y-118310500D01*
X118461158Y-118310500D01*
X118618844Y-118310500D01*
X118618845Y-118310499D01*
X118773497Y-118279737D01*
X118897574Y-118228343D01*
X118919172Y-118219397D01*
X118919172Y-118219396D01*
X118919179Y-118219394D01*
X118919185Y-118219390D01*
X119050875Y-118131398D01*
X119117553Y-118110520D01*
X119119766Y-118110500D01*
X124434331Y-118110500D01*
X124434347Y-118110501D01*
X124441943Y-118110501D01*
X124600054Y-118110501D01*
X124600057Y-118110501D01*
X124752785Y-118069577D01*
X124752787Y-118069575D01*
X124752789Y-118069575D01*
X124752790Y-118069574D01*
X124773476Y-118057631D01*
X124802016Y-118041153D01*
X165829500Y-118041153D01*
X165829500Y-118198846D01*
X165860261Y-118353489D01*
X165860264Y-118353501D01*
X165920602Y-118499172D01*
X165920609Y-118499185D01*
X166008210Y-118630288D01*
X166008213Y-118630292D01*
X166119707Y-118741786D01*
X166119711Y-118741789D01*
X166250814Y-118829390D01*
X166250827Y-118829397D01*
X166396440Y-118889711D01*
X166396503Y-118889737D01*
X166551153Y-118920499D01*
X166551156Y-118920500D01*
X166551158Y-118920500D01*
X166708844Y-118920500D01*
X166708845Y-118920499D01*
X166863497Y-118889737D01*
X167009179Y-118829394D01*
X167140289Y-118741789D01*
X167251789Y-118630289D01*
X167339394Y-118499179D01*
X167399737Y-118353497D01*
X167430500Y-118198842D01*
X167430500Y-118041158D01*
X167430500Y-118041155D01*
X167430499Y-118041153D01*
X167412723Y-117951787D01*
X167399737Y-117886503D01*
X167392285Y-117868511D01*
X167339397Y-117740827D01*
X167339390Y-117740814D01*
X167251789Y-117609711D01*
X167251786Y-117609707D01*
X167140292Y-117498213D01*
X167140288Y-117498210D01*
X167009185Y-117410609D01*
X167009172Y-117410602D01*
X166863501Y-117350264D01*
X166863489Y-117350261D01*
X166708845Y-117319500D01*
X166708842Y-117319500D01*
X166551158Y-117319500D01*
X166551155Y-117319500D01*
X166396510Y-117350261D01*
X166396498Y-117350264D01*
X166250827Y-117410602D01*
X166250814Y-117410609D01*
X166119711Y-117498210D01*
X166119707Y-117498213D01*
X166008213Y-117609707D01*
X166008210Y-117609711D01*
X165920609Y-117740814D01*
X165920602Y-117740827D01*
X165860264Y-117886498D01*
X165860261Y-117886510D01*
X165829500Y-118041153D01*
X124802016Y-118041153D01*
X124805063Y-118039394D01*
X124889716Y-117990520D01*
X125001520Y-117878716D01*
X125001520Y-117878714D01*
X125011724Y-117868511D01*
X125011727Y-117868506D01*
X126620520Y-116259716D01*
X126637965Y-116229500D01*
X126653554Y-116202500D01*
X126704121Y-116154284D01*
X126760941Y-116140500D01*
X166491777Y-116140500D01*
X166491793Y-116140501D01*
X166499389Y-116140501D01*
X166657500Y-116140501D01*
X166657503Y-116140501D01*
X166810231Y-116099577D01*
X166860350Y-116070639D01*
X166947162Y-116020520D01*
X167058966Y-115908716D01*
X167058966Y-115908714D01*
X167069174Y-115898507D01*
X167069176Y-115898504D01*
X172560176Y-110407503D01*
X172621495Y-110374021D01*
X172691187Y-110379005D01*
X172747120Y-110420877D01*
X172770792Y-110479001D01*
X172800799Y-110706914D01*
X172861870Y-110934837D01*
X172952160Y-111152819D01*
X172952165Y-111152828D01*
X173070144Y-111357171D01*
X173070145Y-111357172D01*
X173132721Y-111438723D01*
X173968957Y-110602487D01*
X173993978Y-110662890D01*
X174065112Y-110769351D01*
X174155649Y-110859888D01*
X174262110Y-110931022D01*
X174322511Y-110956041D01*
X173486275Y-111792277D01*
X173567827Y-111854854D01*
X173567828Y-111854855D01*
X173772171Y-111972834D01*
X173772180Y-111972839D01*
X173990163Y-112063129D01*
X173990161Y-112063129D01*
X174218085Y-112124200D01*
X174452014Y-112154999D01*
X174452029Y-112155000D01*
X174687971Y-112155000D01*
X174687985Y-112154999D01*
X174921914Y-112124200D01*
X175149837Y-112063129D01*
X175367819Y-111972839D01*
X175367828Y-111972834D01*
X175572181Y-111854850D01*
X175653723Y-111792279D01*
X175653723Y-111792276D01*
X174817487Y-110956041D01*
X174877890Y-110931022D01*
X174984351Y-110859888D01*
X175074888Y-110769351D01*
X175146022Y-110662890D01*
X175171041Y-110602487D01*
X176007276Y-111438723D01*
X176007279Y-111438723D01*
X176069850Y-111357181D01*
X176187834Y-111152828D01*
X176187839Y-111152819D01*
X176278129Y-110934837D01*
X176339200Y-110706914D01*
X176369999Y-110472985D01*
X176370000Y-110472971D01*
X176370000Y-110237028D01*
X176369999Y-110237014D01*
X176339200Y-110003085D01*
X176278129Y-109775162D01*
X176187839Y-109557180D01*
X176187834Y-109557171D01*
X176069855Y-109352828D01*
X176069854Y-109352827D01*
X176007277Y-109271275D01*
X175171041Y-110107511D01*
X175146022Y-110047110D01*
X175074888Y-109940649D01*
X174984351Y-109850112D01*
X174877890Y-109778978D01*
X174817487Y-109753957D01*
X175653723Y-108917721D01*
X175572172Y-108855145D01*
X175572171Y-108855144D01*
X175367828Y-108737165D01*
X175367819Y-108737160D01*
X175149836Y-108646870D01*
X175149838Y-108646870D01*
X174921914Y-108585799D01*
X174694001Y-108555792D01*
X174630105Y-108527525D01*
X174591634Y-108469200D01*
X174590803Y-108399336D01*
X174622503Y-108345176D01*
X176479506Y-106488174D01*
X176479511Y-106488170D01*
X176489714Y-106477966D01*
X176489716Y-106477966D01*
X176601520Y-106366162D01*
X176656494Y-106270943D01*
X176680577Y-106229231D01*
X176721500Y-106076504D01*
X176721500Y-105918389D01*
X176721500Y-99633497D01*
X176721500Y-99633495D01*
X176718017Y-99620498D01*
X176718016Y-99620496D01*
X176702073Y-99560997D01*
X176702073Y-99560996D01*
X176680577Y-99480770D01*
X176680575Y-99480766D01*
X176680574Y-99480763D01*
X176601524Y-99343844D01*
X176601521Y-99343840D01*
X176601520Y-99343838D01*
X176489716Y-99232034D01*
X176489715Y-99232033D01*
X176485385Y-99227703D01*
X176485374Y-99227693D01*
X175700036Y-98442355D01*
X175700034Y-98442352D01*
X175581163Y-98323481D01*
X175581162Y-98323480D01*
X175494350Y-98273360D01*
X175494350Y-98273359D01*
X175494346Y-98273358D01*
X175444231Y-98244423D01*
X175291503Y-98203499D01*
X175133389Y-98203499D01*
X175125793Y-98203499D01*
X175125777Y-98203500D01*
X167884097Y-98203500D01*
X167817058Y-98183815D01*
X167796416Y-98167181D01*
X162805364Y-93176129D01*
X162771879Y-93114806D01*
X162776863Y-93045114D01*
X162778468Y-93041033D01*
X162828606Y-92919993D01*
X162889693Y-92692014D01*
X162920500Y-92458011D01*
X162920500Y-92221989D01*
X162889693Y-91987986D01*
X162828606Y-91760007D01*
X162746155Y-91560953D01*
X162738686Y-91491483D01*
X162769961Y-91429004D01*
X162830050Y-91393352D01*
X162860716Y-91389500D01*
X164268903Y-91389500D01*
X164298343Y-91398144D01*
X164328330Y-91404668D01*
X164333345Y-91408422D01*
X164335942Y-91409185D01*
X164356584Y-91425819D01*
X164434635Y-91503870D01*
X164468120Y-91565193D01*
X164463136Y-91634885D01*
X164461515Y-91639003D01*
X164411394Y-91760006D01*
X164350306Y-91987989D01*
X164319501Y-92221979D01*
X164319500Y-92221995D01*
X164319500Y-92458004D01*
X164319501Y-92458020D01*
X164350293Y-92691914D01*
X164350307Y-92692014D01*
X164359547Y-92726498D01*
X164411394Y-92919993D01*
X164501714Y-93138045D01*
X164501719Y-93138056D01*
X164545700Y-93214232D01*
X164619727Y-93342450D01*
X164619729Y-93342453D01*
X164619730Y-93342454D01*
X164763406Y-93529697D01*
X164763412Y-93529704D01*
X164930295Y-93696587D01*
X164930302Y-93696593D01*
X165039351Y-93780269D01*
X165117550Y-93840273D01*
X165218028Y-93898284D01*
X165321943Y-93958280D01*
X165321948Y-93958282D01*
X165321951Y-93958284D01*
X165540007Y-94048606D01*
X165767986Y-94109693D01*
X166001989Y-94140500D01*
X166001996Y-94140500D01*
X166238004Y-94140500D01*
X166238011Y-94140500D01*
X166472014Y-94109693D01*
X166699993Y-94048606D01*
X166918049Y-93958284D01*
X167122450Y-93840273D01*
X167309699Y-93696592D01*
X167335685Y-93670606D01*
X167364648Y-93641644D01*
X167476587Y-93529704D01*
X167476592Y-93529699D01*
X167620273Y-93342450D01*
X167738284Y-93138049D01*
X167828606Y-92919993D01*
X167889693Y-92692014D01*
X167920500Y-92458011D01*
X167920500Y-92222014D01*
X169320000Y-92222014D01*
X169320000Y-92457985D01*
X169350799Y-92691914D01*
X169411870Y-92919837D01*
X169502160Y-93137819D01*
X169502165Y-93137828D01*
X169620144Y-93342171D01*
X169620145Y-93342172D01*
X169682721Y-93423723D01*
X170518958Y-92587487D01*
X170543978Y-92647890D01*
X170615112Y-92754351D01*
X170705649Y-92844888D01*
X170812110Y-92916022D01*
X170872511Y-92941041D01*
X170036275Y-93777277D01*
X170117827Y-93839854D01*
X170117828Y-93839855D01*
X170322171Y-93957834D01*
X170322180Y-93957839D01*
X170540163Y-94048129D01*
X170540161Y-94048129D01*
X170768085Y-94109200D01*
X171002014Y-94139999D01*
X171002029Y-94140000D01*
X171237971Y-94140000D01*
X171237985Y-94139999D01*
X171471914Y-94109200D01*
X171699837Y-94048129D01*
X171917819Y-93957839D01*
X171917828Y-93957834D01*
X172122181Y-93839850D01*
X172203723Y-93777279D01*
X172203723Y-93777276D01*
X171367487Y-92941041D01*
X171427890Y-92916022D01*
X171534351Y-92844888D01*
X171624888Y-92754351D01*
X171696022Y-92647890D01*
X171721041Y-92587488D01*
X172557276Y-93423723D01*
X172557279Y-93423723D01*
X172619850Y-93342181D01*
X172737834Y-93137828D01*
X172737839Y-93137819D01*
X172828129Y-92919837D01*
X172889200Y-92691914D01*
X172919999Y-92457985D01*
X172920000Y-92457971D01*
X172920000Y-92222028D01*
X172919999Y-92222014D01*
X172889200Y-91988085D01*
X172828129Y-91760162D01*
X172737839Y-91542180D01*
X172737834Y-91542171D01*
X172619855Y-91337828D01*
X172619854Y-91337827D01*
X172557277Y-91256275D01*
X171721041Y-92092511D01*
X171696022Y-92032110D01*
X171624888Y-91925649D01*
X171534351Y-91835112D01*
X171427890Y-91763978D01*
X171367488Y-91738958D01*
X172203723Y-90902721D01*
X172122172Y-90840145D01*
X172122171Y-90840144D01*
X171917828Y-90722165D01*
X171917819Y-90722160D01*
X171699836Y-90631870D01*
X171699838Y-90631870D01*
X171471914Y-90570799D01*
X171237985Y-90540000D01*
X171002014Y-90540000D01*
X170768085Y-90570799D01*
X170540162Y-90631870D01*
X170322180Y-90722160D01*
X170322171Y-90722165D01*
X170117828Y-90840144D01*
X170117818Y-90840150D01*
X170036275Y-90902720D01*
X170036275Y-90902721D01*
X170872512Y-91738958D01*
X170812110Y-91763978D01*
X170705649Y-91835112D01*
X170615112Y-91925649D01*
X170543978Y-92032110D01*
X170518958Y-92092511D01*
X169682721Y-91256275D01*
X169682720Y-91256275D01*
X169620150Y-91337818D01*
X169620144Y-91337828D01*
X169502165Y-91542171D01*
X169502160Y-91542180D01*
X169411870Y-91760162D01*
X169350799Y-91988085D01*
X169320000Y-92222014D01*
X167920500Y-92222014D01*
X167920500Y-92221989D01*
X167889693Y-91987986D01*
X167828606Y-91760007D01*
X167738284Y-91541951D01*
X167738282Y-91541948D01*
X167738280Y-91541943D01*
X167661631Y-91409185D01*
X167620273Y-91337550D01*
X167527798Y-91217034D01*
X167476593Y-91150302D01*
X167476587Y-91150295D01*
X167309704Y-90983412D01*
X167309697Y-90983406D01*
X167122454Y-90839730D01*
X167122453Y-90839729D01*
X167122450Y-90839727D01*
X167032477Y-90787781D01*
X166918056Y-90721719D01*
X166918045Y-90721714D01*
X166699993Y-90631394D01*
X166512510Y-90581158D01*
X166472014Y-90570307D01*
X166472013Y-90570306D01*
X166472010Y-90570306D01*
X166238020Y-90539501D01*
X166238017Y-90539500D01*
X166238011Y-90539500D01*
X166001989Y-90539500D01*
X166001983Y-90539500D01*
X166001979Y-90539501D01*
X165767989Y-90570306D01*
X165540006Y-90631394D01*
X165419003Y-90681515D01*
X165349534Y-90688984D01*
X165287055Y-90657708D01*
X165283870Y-90654635D01*
X165056590Y-90427355D01*
X165056588Y-90427352D01*
X164937717Y-90308481D01*
X164937712Y-90308477D01*
X164817220Y-90238912D01*
X164817220Y-90238911D01*
X164817216Y-90238910D01*
X164811482Y-90235599D01*
X164800786Y-90229423D01*
X164762603Y-90219192D01*
X164648057Y-90188499D01*
X164489943Y-90188499D01*
X164482347Y-90188499D01*
X164482331Y-90188500D01*
X160398494Y-90188500D01*
X160357573Y-90199464D01*
X160357573Y-90199465D01*
X160320305Y-90209451D01*
X160245768Y-90229423D01*
X160245763Y-90229426D01*
X160108844Y-90308475D01*
X160108836Y-90308481D01*
X159088481Y-91328836D01*
X159088479Y-91328839D01*
X159070968Y-91359169D01*
X159053457Y-91389500D01*
X159009423Y-91465769D01*
X158968499Y-91618497D01*
X158968499Y-91618499D01*
X158968499Y-91786600D01*
X158968500Y-91786613D01*
X158968500Y-92895776D01*
X158968499Y-92895794D01*
X158968499Y-93061500D01*
X158968498Y-93061500D01*
X158972934Y-93078056D01*
X159009423Y-93214231D01*
X159038155Y-93263996D01*
X159038155Y-93263997D01*
X159088475Y-93351155D01*
X159088481Y-93351163D01*
X159207349Y-93470031D01*
X159207355Y-93470036D01*
X169291693Y-103554374D01*
X169291703Y-103554385D01*
X169296033Y-103558715D01*
X169296034Y-103558716D01*
X169407838Y-103670520D01*
X169492491Y-103719394D01*
X169492492Y-103719395D01*
X169544763Y-103749574D01*
X169544764Y-103749574D01*
X169544769Y-103749577D01*
X169697496Y-103790500D01*
X169697497Y-103790500D01*
X169985902Y-103790500D01*
X170052941Y-103810185D01*
X170098696Y-103862989D01*
X170108640Y-103932147D01*
X170079615Y-103995703D01*
X170073583Y-104002181D01*
X169708584Y-104367181D01*
X169647261Y-104400666D01*
X169620903Y-104403500D01*
X153000485Y-104403500D01*
X152933446Y-104383815D01*
X152912804Y-104367181D01*
X151396776Y-102851153D01*
X157859500Y-102851153D01*
X157859500Y-103008846D01*
X157890261Y-103163489D01*
X157890264Y-103163501D01*
X157950602Y-103309172D01*
X157950609Y-103309185D01*
X158038210Y-103440288D01*
X158038213Y-103440292D01*
X158149707Y-103551786D01*
X158149711Y-103551789D01*
X158280814Y-103639390D01*
X158280827Y-103639397D01*
X158426498Y-103699735D01*
X158426503Y-103699737D01*
X158563950Y-103727077D01*
X158581153Y-103730499D01*
X158581156Y-103730500D01*
X158581158Y-103730500D01*
X158738844Y-103730500D01*
X158738845Y-103730499D01*
X158893497Y-103699737D01*
X159039179Y-103639394D01*
X159170289Y-103551789D01*
X159281789Y-103440289D01*
X159369394Y-103309179D01*
X159429737Y-103163497D01*
X159460500Y-103008842D01*
X159460500Y-102851158D01*
X159460500Y-102851155D01*
X159460499Y-102851153D01*
X159458050Y-102838842D01*
X159429737Y-102696503D01*
X159426935Y-102689738D01*
X159369397Y-102550827D01*
X159369390Y-102550814D01*
X159281789Y-102419711D01*
X159281786Y-102419707D01*
X159170292Y-102308213D01*
X159170288Y-102308210D01*
X159039185Y-102220609D01*
X159039172Y-102220602D01*
X158893501Y-102160264D01*
X158893489Y-102160261D01*
X158738845Y-102129500D01*
X158738842Y-102129500D01*
X158581158Y-102129500D01*
X158581155Y-102129500D01*
X158426510Y-102160261D01*
X158426498Y-102160264D01*
X158280827Y-102220602D01*
X158280814Y-102220609D01*
X158149711Y-102308210D01*
X158149707Y-102308213D01*
X158038213Y-102419707D01*
X158038210Y-102419711D01*
X157950609Y-102550814D01*
X157950602Y-102550827D01*
X157890264Y-102696498D01*
X157890261Y-102696510D01*
X157859500Y-102851153D01*
X151396776Y-102851153D01*
X149202978Y-100657355D01*
X149202976Y-100657352D01*
X149084105Y-100538481D01*
X149084104Y-100538480D01*
X148997292Y-100488360D01*
X148997292Y-100488359D01*
X148997288Y-100488358D01*
X148947173Y-100459423D01*
X148794445Y-100418499D01*
X148636331Y-100418499D01*
X148628735Y-100418499D01*
X148628719Y-100418500D01*
X141427902Y-100418500D01*
X141360863Y-100398815D01*
X141315108Y-100346011D01*
X141306285Y-100318692D01*
X141289738Y-100235508D01*
X141289737Y-100235507D01*
X141289737Y-100235503D01*
X141289735Y-100235498D01*
X141229397Y-100089827D01*
X141229390Y-100089814D01*
X141141789Y-99958711D01*
X141141786Y-99958707D01*
X141030292Y-99847213D01*
X141030288Y-99847210D01*
X140899185Y-99759609D01*
X140899172Y-99759602D01*
X140753501Y-99699264D01*
X140753489Y-99699261D01*
X140598845Y-99668500D01*
X140598842Y-99668500D01*
X140441158Y-99668500D01*
X140441155Y-99668500D01*
X140286510Y-99699261D01*
X140286498Y-99699264D01*
X140140827Y-99759602D01*
X140140814Y-99759609D01*
X140009125Y-99847602D01*
X139942447Y-99868480D01*
X139940234Y-99868500D01*
X138628330Y-99868500D01*
X138561291Y-99848815D01*
X138540649Y-99832181D01*
X138185457Y-99476989D01*
X137820647Y-99112180D01*
X137787163Y-99050858D01*
X137792147Y-98981167D01*
X137834019Y-98925233D01*
X137899483Y-98900816D01*
X137908329Y-98900500D01*
X148379903Y-98900500D01*
X148409343Y-98909144D01*
X148439330Y-98915668D01*
X148444345Y-98919422D01*
X148446942Y-98920185D01*
X148467584Y-98936819D01*
X148515425Y-98984660D01*
X148548910Y-99045983D01*
X148549361Y-99048149D01*
X148580261Y-99203491D01*
X148580264Y-99203501D01*
X148640602Y-99349172D01*
X148640609Y-99349185D01*
X148728210Y-99480288D01*
X148728213Y-99480292D01*
X148839707Y-99591786D01*
X148839711Y-99591789D01*
X148970814Y-99679390D01*
X148970827Y-99679397D01*
X149036256Y-99706498D01*
X149116503Y-99739737D01*
X149216391Y-99759606D01*
X149271153Y-99770499D01*
X149271156Y-99770500D01*
X149271158Y-99770500D01*
X149428844Y-99770500D01*
X149428845Y-99770499D01*
X149583497Y-99739737D01*
X149729179Y-99679394D01*
X149860289Y-99591789D01*
X149971789Y-99480289D01*
X150059394Y-99349179D01*
X150061606Y-99343840D01*
X150080506Y-99298210D01*
X150119737Y-99203497D01*
X150150500Y-99048842D01*
X150150500Y-98891158D01*
X150150500Y-98891155D01*
X150150499Y-98891153D01*
X150142371Y-98850292D01*
X150119737Y-98736503D01*
X150097451Y-98682699D01*
X150059397Y-98590827D01*
X150059390Y-98590814D01*
X149971789Y-98459711D01*
X149971786Y-98459707D01*
X149860292Y-98348213D01*
X149860288Y-98348210D01*
X149729185Y-98260609D01*
X149729172Y-98260602D01*
X149583501Y-98200264D01*
X149583491Y-98200261D01*
X149428149Y-98169361D01*
X149366238Y-98136976D01*
X149364660Y-98135425D01*
X149167590Y-97938355D01*
X149167588Y-97938352D01*
X149048717Y-97819481D01*
X149048716Y-97819480D01*
X148943093Y-97758499D01*
X148943092Y-97758498D01*
X148911783Y-97740422D01*
X148828897Y-97718213D01*
X148759057Y-97699499D01*
X148600943Y-97699499D01*
X148593347Y-97699499D01*
X148593331Y-97699500D01*
X137770097Y-97699500D01*
X137703058Y-97679815D01*
X137682416Y-97663181D01*
X136120388Y-96101153D01*
X137999500Y-96101153D01*
X137999500Y-96258846D01*
X138030261Y-96413489D01*
X138030264Y-96413501D01*
X138090602Y-96559172D01*
X138090609Y-96559185D01*
X138178210Y-96690288D01*
X138178213Y-96690292D01*
X138289707Y-96801786D01*
X138289711Y-96801789D01*
X138420814Y-96889390D01*
X138420827Y-96889397D01*
X138542363Y-96939738D01*
X138566503Y-96949737D01*
X138706237Y-96977532D01*
X138721153Y-96980499D01*
X138721156Y-96980500D01*
X138721158Y-96980500D01*
X138878844Y-96980500D01*
X138878845Y-96980499D01*
X139033497Y-96949737D01*
X139179179Y-96889394D01*
X139310289Y-96801789D01*
X139421789Y-96690289D01*
X139509394Y-96559179D01*
X139569737Y-96413497D01*
X139600500Y-96258842D01*
X139600500Y-96101158D01*
X139598510Y-96091153D01*
X142819500Y-96091153D01*
X142819500Y-96248846D01*
X142850261Y-96403489D01*
X142850264Y-96403501D01*
X142910602Y-96549172D01*
X142910609Y-96549185D01*
X142998210Y-96680288D01*
X142998213Y-96680292D01*
X143109707Y-96791786D01*
X143109711Y-96791789D01*
X143240814Y-96879390D01*
X143240827Y-96879397D01*
X143307847Y-96907157D01*
X143386503Y-96939737D01*
X143541153Y-96970499D01*
X143541156Y-96970500D01*
X143541158Y-96970500D01*
X143698844Y-96970500D01*
X143698845Y-96970499D01*
X143853497Y-96939737D01*
X143966166Y-96893067D01*
X143999172Y-96879397D01*
X143999172Y-96879396D01*
X143999179Y-96879394D01*
X144130289Y-96791789D01*
X144241789Y-96680289D01*
X144329394Y-96549179D01*
X144389737Y-96403497D01*
X144420500Y-96248842D01*
X144420500Y-96091158D01*
X144420500Y-96091155D01*
X144420499Y-96091153D01*
X144398447Y-95980292D01*
X144389737Y-95936503D01*
X144363034Y-95872036D01*
X144329397Y-95790827D01*
X144329390Y-95790814D01*
X144241789Y-95659711D01*
X144241786Y-95659707D01*
X144130292Y-95548213D01*
X144130288Y-95548210D01*
X143999185Y-95460609D01*
X143999172Y-95460602D01*
X143853501Y-95400264D01*
X143853489Y-95400261D01*
X143698845Y-95369500D01*
X143698842Y-95369500D01*
X143541158Y-95369500D01*
X143541155Y-95369500D01*
X143386510Y-95400261D01*
X143386498Y-95400264D01*
X143240827Y-95460602D01*
X143240814Y-95460609D01*
X143109711Y-95548210D01*
X143109707Y-95548213D01*
X142998213Y-95659707D01*
X142998210Y-95659711D01*
X142910609Y-95790814D01*
X142910602Y-95790827D01*
X142850264Y-95936498D01*
X142850261Y-95936510D01*
X142819500Y-96091153D01*
X139598510Y-96091153D01*
X139569737Y-95946503D01*
X139540027Y-95874776D01*
X139509397Y-95800827D01*
X139509390Y-95800814D01*
X139421789Y-95669711D01*
X139421786Y-95669707D01*
X139310292Y-95558213D01*
X139310288Y-95558210D01*
X139179185Y-95470609D01*
X139179172Y-95470602D01*
X139033501Y-95410264D01*
X139033489Y-95410261D01*
X138878845Y-95379500D01*
X138878842Y-95379500D01*
X138721158Y-95379500D01*
X138721155Y-95379500D01*
X138566510Y-95410261D01*
X138566498Y-95410264D01*
X138420827Y-95470602D01*
X138420814Y-95470609D01*
X138289711Y-95558210D01*
X138289707Y-95558213D01*
X138178213Y-95669707D01*
X138178210Y-95669711D01*
X138090609Y-95800814D01*
X138090602Y-95800827D01*
X138030264Y-95946498D01*
X138030261Y-95946510D01*
X137999500Y-96101153D01*
X136120388Y-96101153D01*
X134697778Y-94678543D01*
X135809499Y-94678543D01*
X135847947Y-94871829D01*
X135847950Y-94871839D01*
X135923364Y-95053907D01*
X135923371Y-95053920D01*
X136032860Y-95217781D01*
X136032863Y-95217785D01*
X136172214Y-95357136D01*
X136172218Y-95357139D01*
X136336079Y-95466628D01*
X136336092Y-95466635D01*
X136513660Y-95540185D01*
X136518165Y-95542051D01*
X136518169Y-95542051D01*
X136518170Y-95542052D01*
X136711456Y-95580500D01*
X136711459Y-95580500D01*
X136908543Y-95580500D01*
X137062803Y-95549815D01*
X137101835Y-95542051D01*
X137274320Y-95470606D01*
X137283907Y-95466635D01*
X137283907Y-95466634D01*
X137283914Y-95466632D01*
X137447782Y-95357139D01*
X137587139Y-95217782D01*
X137696632Y-95053914D01*
X137772051Y-94871835D01*
X137790219Y-94780500D01*
X137810500Y-94678543D01*
X137810500Y-94131333D01*
X137830185Y-94064294D01*
X137882989Y-94018539D01*
X137952147Y-94008595D01*
X137996501Y-94023947D01*
X138017859Y-94036278D01*
X138017860Y-94036278D01*
X138017865Y-94036281D01*
X138164234Y-94075500D01*
X138164236Y-94075500D01*
X138315764Y-94075500D01*
X138315766Y-94075500D01*
X138462135Y-94036281D01*
X138593365Y-93960515D01*
X138700515Y-93853365D01*
X138776281Y-93722135D01*
X138815500Y-93575766D01*
X138815500Y-93424234D01*
X143444500Y-93424234D01*
X143444500Y-93575766D01*
X143445961Y-93581218D01*
X143483719Y-93722136D01*
X143517283Y-93780269D01*
X143559485Y-93853365D01*
X143666635Y-93960515D01*
X143767135Y-94018539D01*
X143797861Y-94036279D01*
X143797865Y-94036281D01*
X143944234Y-94075500D01*
X143944236Y-94075500D01*
X144095764Y-94075500D01*
X144095766Y-94075500D01*
X144242135Y-94036281D01*
X144252451Y-94030325D01*
X144263499Y-94023947D01*
X144331398Y-94007473D01*
X144397426Y-94030325D01*
X144440617Y-94085245D01*
X144449500Y-94131333D01*
X144449500Y-94678541D01*
X144449500Y-94678543D01*
X144449499Y-94678543D01*
X144487947Y-94871829D01*
X144487950Y-94871839D01*
X144563364Y-95053907D01*
X144563371Y-95053920D01*
X144672860Y-95217781D01*
X144672863Y-95217785D01*
X144812214Y-95357136D01*
X144812218Y-95357139D01*
X144976079Y-95466628D01*
X144976092Y-95466635D01*
X145153660Y-95540185D01*
X145158165Y-95542051D01*
X145158169Y-95542051D01*
X145158170Y-95542052D01*
X145351456Y-95580500D01*
X145351459Y-95580500D01*
X145548543Y-95580500D01*
X145702803Y-95549815D01*
X145741835Y-95542051D01*
X145914320Y-95470606D01*
X145923907Y-95466635D01*
X145923907Y-95466634D01*
X145923914Y-95466632D01*
X146087782Y-95357139D01*
X146227139Y-95217782D01*
X146336632Y-95053914D01*
X146412051Y-94871835D01*
X146430219Y-94780500D01*
X146450500Y-94678543D01*
X146450500Y-93381456D01*
X146412052Y-93188170D01*
X146412051Y-93188169D01*
X146412051Y-93188165D01*
X146394848Y-93146632D01*
X146336635Y-93006092D01*
X146336628Y-93006079D01*
X146227139Y-92842218D01*
X146227136Y-92842214D01*
X146087785Y-92702863D01*
X146087781Y-92702860D01*
X145923920Y-92593371D01*
X145923907Y-92593364D01*
X145741839Y-92517950D01*
X145741829Y-92517947D01*
X145548543Y-92479500D01*
X145548541Y-92479500D01*
X145351459Y-92479500D01*
X145351457Y-92479500D01*
X145158170Y-92517947D01*
X145158160Y-92517950D01*
X144976092Y-92593364D01*
X144976079Y-92593371D01*
X144812218Y-92702860D01*
X144812214Y-92702863D01*
X144672863Y-92842214D01*
X144672860Y-92842218D01*
X144559983Y-93011151D01*
X144558534Y-93010182D01*
X144515356Y-93054122D01*
X144447215Y-93069570D01*
X144381540Y-93045725D01*
X144379493Y-93044188D01*
X144373367Y-93039487D01*
X144373365Y-93039485D01*
X144287655Y-92990000D01*
X144242136Y-92963719D01*
X144168950Y-92944109D01*
X144095766Y-92924500D01*
X143944234Y-92924500D01*
X143797863Y-92963719D01*
X143666635Y-93039485D01*
X143666632Y-93039487D01*
X143559487Y-93146632D01*
X143559485Y-93146635D01*
X143483719Y-93277863D01*
X143455962Y-93381456D01*
X143444500Y-93424234D01*
X138815500Y-93424234D01*
X138776281Y-93277865D01*
X138700515Y-93146635D01*
X138593365Y-93039485D01*
X138507655Y-92990000D01*
X138462136Y-92963719D01*
X138388950Y-92944109D01*
X138315766Y-92924500D01*
X138164234Y-92924500D01*
X138017863Y-92963719D01*
X137886627Y-93039489D01*
X137880502Y-93044190D01*
X137815333Y-93069383D01*
X137746888Y-93055343D01*
X137700976Y-93010509D01*
X137700017Y-93011151D01*
X137696982Y-93006609D01*
X137696899Y-93006528D01*
X137696766Y-93006286D01*
X137587139Y-92842218D01*
X137587136Y-92842214D01*
X137447785Y-92702863D01*
X137447781Y-92702860D01*
X137283920Y-92593371D01*
X137283907Y-92593364D01*
X137101839Y-92517950D01*
X137101829Y-92517947D01*
X136908543Y-92479500D01*
X136908541Y-92479500D01*
X136711459Y-92479500D01*
X136711457Y-92479500D01*
X136518170Y-92517947D01*
X136518160Y-92517950D01*
X136336092Y-92593364D01*
X136336079Y-92593371D01*
X136172218Y-92702860D01*
X136172214Y-92702863D01*
X136032863Y-92842214D01*
X136032860Y-92842218D01*
X135923371Y-93006079D01*
X135923364Y-93006092D01*
X135847950Y-93188160D01*
X135847947Y-93188170D01*
X135809500Y-93381456D01*
X135809500Y-93381459D01*
X135809500Y-94678541D01*
X135809500Y-94678543D01*
X135809499Y-94678543D01*
X134697778Y-94678543D01*
X133837590Y-93818355D01*
X133837588Y-93818352D01*
X133718717Y-93699481D01*
X133718709Y-93699475D01*
X133609791Y-93636592D01*
X133609790Y-93636591D01*
X133590105Y-93625226D01*
X133581785Y-93620423D01*
X133429057Y-93579499D01*
X133270943Y-93579499D01*
X133263347Y-93579499D01*
X133263331Y-93579500D01*
X129350805Y-93579500D01*
X129344110Y-93577534D01*
X129337242Y-93578756D01*
X129311020Y-93567817D01*
X129283766Y-93559815D01*
X129279198Y-93554543D01*
X129272758Y-93551857D01*
X129256611Y-93528476D01*
X129238011Y-93507011D01*
X129237018Y-93500106D01*
X129233053Y-93494365D01*
X129232110Y-93465971D01*
X129228067Y-93437853D01*
X129230909Y-93429826D01*
X129230734Y-93424534D01*
X129240573Y-93402542D01*
X129244322Y-93391960D01*
X129245951Y-93389229D01*
X129279394Y-93339179D01*
X129339737Y-93193497D01*
X129370500Y-93038842D01*
X129370500Y-92881158D01*
X129370500Y-92881155D01*
X129370499Y-92881153D01*
X129362754Y-92842218D01*
X129339737Y-92726503D01*
X129333078Y-92710426D01*
X129279397Y-92580827D01*
X129279390Y-92580814D01*
X129191789Y-92449711D01*
X129191786Y-92449707D01*
X129080292Y-92338213D01*
X129080288Y-92338210D01*
X128964784Y-92261032D01*
X128949183Y-92250608D01*
X128949172Y-92250602D01*
X128803501Y-92190264D01*
X128803489Y-92190261D01*
X128661388Y-92161995D01*
X148069500Y-92161995D01*
X148069500Y-92398004D01*
X148069501Y-92398020D01*
X148095219Y-92593371D01*
X148100307Y-92632014D01*
X148119291Y-92702863D01*
X148161394Y-92859993D01*
X148251714Y-93078045D01*
X148251719Y-93078056D01*
X148318365Y-93193489D01*
X148369727Y-93282450D01*
X148369729Y-93282453D01*
X148369730Y-93282454D01*
X148513406Y-93469697D01*
X148513412Y-93469704D01*
X148680295Y-93636587D01*
X148680302Y-93636593D01*
X148696909Y-93649336D01*
X148867550Y-93780273D01*
X148998918Y-93856118D01*
X149071943Y-93898280D01*
X149071948Y-93898282D01*
X149071951Y-93898284D01*
X149290007Y-93988606D01*
X149517986Y-94049693D01*
X149751989Y-94080500D01*
X149751996Y-94080500D01*
X149988004Y-94080500D01*
X149988011Y-94080500D01*
X150222014Y-94049693D01*
X150413407Y-93998409D01*
X150483256Y-94000072D01*
X150541119Y-94039234D01*
X150568623Y-94103463D01*
X150569500Y-94118184D01*
X150569500Y-94380234D01*
X150549815Y-94447273D01*
X150548602Y-94449125D01*
X150460609Y-94580814D01*
X150460602Y-94580827D01*
X150400264Y-94726498D01*
X150400261Y-94726510D01*
X150369500Y-94881153D01*
X150369500Y-95038846D01*
X150400261Y-95193489D01*
X150400264Y-95193501D01*
X150460602Y-95339172D01*
X150460609Y-95339185D01*
X150548210Y-95470288D01*
X150548213Y-95470292D01*
X150659707Y-95581786D01*
X150659711Y-95581789D01*
X150790814Y-95669390D01*
X150790827Y-95669397D01*
X150924282Y-95724675D01*
X150936503Y-95729737D01*
X151084678Y-95759211D01*
X151091153Y-95760499D01*
X151091156Y-95760500D01*
X151091158Y-95760500D01*
X151248844Y-95760500D01*
X151248845Y-95760499D01*
X151403497Y-95729737D01*
X151548414Y-95669711D01*
X151549172Y-95669397D01*
X151549172Y-95669396D01*
X151549179Y-95669394D01*
X151680289Y-95581789D01*
X151791789Y-95470289D01*
X151879394Y-95339179D01*
X151939737Y-95193497D01*
X151970500Y-95038842D01*
X151970500Y-94881158D01*
X151970500Y-94881155D01*
X151970499Y-94881153D01*
X151968646Y-94871839D01*
X151939737Y-94726503D01*
X151924139Y-94688846D01*
X151879397Y-94580827D01*
X151879390Y-94580814D01*
X151791398Y-94449125D01*
X151770520Y-94382447D01*
X151770500Y-94380234D01*
X151770500Y-93669060D01*
X151770501Y-93669047D01*
X151770501Y-93500944D01*
X151770501Y-93500943D01*
X151729577Y-93348216D01*
X151724360Y-93339179D01*
X151650524Y-93211290D01*
X151650518Y-93211282D01*
X151555364Y-93116128D01*
X151521879Y-93054805D01*
X151526863Y-92985113D01*
X151528449Y-92981081D01*
X151578606Y-92859993D01*
X151639693Y-92632014D01*
X151670500Y-92398011D01*
X151670500Y-92161989D01*
X151639693Y-91927986D01*
X151578606Y-91700007D01*
X151488284Y-91481951D01*
X151488282Y-91481948D01*
X151488280Y-91481943D01*
X151419309Y-91362483D01*
X151370273Y-91277550D01*
X151243282Y-91112052D01*
X151226593Y-91090302D01*
X151226587Y-91090295D01*
X151059704Y-90923412D01*
X151059697Y-90923406D01*
X150872454Y-90779730D01*
X150872453Y-90779729D01*
X150872450Y-90779727D01*
X150757260Y-90713222D01*
X150668056Y-90661719D01*
X150668045Y-90661714D01*
X150449993Y-90571394D01*
X150445933Y-90570306D01*
X150222014Y-90510307D01*
X150222013Y-90510306D01*
X150222010Y-90510306D01*
X149988020Y-90479501D01*
X149988017Y-90479500D01*
X149988011Y-90479500D01*
X149751989Y-90479500D01*
X149751983Y-90479500D01*
X149751979Y-90479501D01*
X149517989Y-90510306D01*
X149290006Y-90571394D01*
X149071954Y-90661714D01*
X149071943Y-90661719D01*
X148867545Y-90779730D01*
X148680302Y-90923406D01*
X148680295Y-90923412D01*
X148513412Y-91090295D01*
X148513406Y-91090302D01*
X148369730Y-91277545D01*
X148251719Y-91481943D01*
X148251714Y-91481954D01*
X148161394Y-91700006D01*
X148100306Y-91927989D01*
X148069501Y-92161979D01*
X148069500Y-92161995D01*
X128661388Y-92161995D01*
X128648845Y-92159500D01*
X128648842Y-92159500D01*
X128491158Y-92159500D01*
X128491155Y-92159500D01*
X128336510Y-92190261D01*
X128336498Y-92190264D01*
X128190827Y-92250602D01*
X128190814Y-92250609D01*
X128059711Y-92338210D01*
X128059707Y-92338213D01*
X127948213Y-92449707D01*
X127948210Y-92449711D01*
X127860609Y-92580814D01*
X127860602Y-92580827D01*
X127800264Y-92726498D01*
X127800261Y-92726510D01*
X127769500Y-92881153D01*
X127769500Y-93038846D01*
X127800261Y-93193489D01*
X127800264Y-93193501D01*
X127860602Y-93339172D01*
X127860609Y-93339185D01*
X127892297Y-93386609D01*
X127913175Y-93453287D01*
X127894690Y-93520667D01*
X127842711Y-93567357D01*
X127789195Y-93579500D01*
X124509062Y-93579500D01*
X124509058Y-93579499D01*
X124350943Y-93579499D01*
X124345014Y-93581087D01*
X124330862Y-93581218D01*
X124324692Y-93579467D01*
X124315000Y-93579150D01*
X124314907Y-93580097D01*
X124308845Y-93579500D01*
X124308842Y-93579500D01*
X124151158Y-93579500D01*
X124151155Y-93579500D01*
X123996510Y-93610261D01*
X123996500Y-93610263D01*
X123991944Y-93612151D01*
X123922475Y-93619614D01*
X123859998Y-93588335D01*
X123824350Y-93528243D01*
X123820500Y-93497586D01*
X123820500Y-93190945D01*
X123820500Y-93190943D01*
X123779577Y-93038216D01*
X123761282Y-93006528D01*
X123700524Y-92901290D01*
X123700518Y-92901282D01*
X123588717Y-92789481D01*
X123588709Y-92789475D01*
X123451790Y-92710426D01*
X123451786Y-92710424D01*
X123451784Y-92710423D01*
X123299057Y-92669500D01*
X123299056Y-92669500D01*
X111942783Y-92669500D01*
X111875744Y-92649815D01*
X111864118Y-92641353D01*
X111860289Y-92638210D01*
X111729185Y-92550609D01*
X111729175Y-92550604D01*
X111605268Y-92499280D01*
X111550865Y-92455439D01*
X111528800Y-92389145D01*
X111546079Y-92321445D01*
X111565036Y-92297041D01*
X111641789Y-92220289D01*
X111729394Y-92089179D01*
X111789737Y-91943497D01*
X111820500Y-91788842D01*
X111820500Y-91631158D01*
X111820500Y-91631155D01*
X111820499Y-91631153D01*
X111817982Y-91618497D01*
X111789737Y-91476503D01*
X111778651Y-91449738D01*
X111771284Y-91431952D01*
X111763815Y-91362483D01*
X111795091Y-91300004D01*
X111855180Y-91264352D01*
X111885845Y-91260500D01*
X124887059Y-91260500D01*
X124954098Y-91280185D01*
X124974740Y-91296819D01*
X124979707Y-91301786D01*
X124979711Y-91301789D01*
X125110814Y-91389390D01*
X125110827Y-91389397D01*
X125256498Y-91449735D01*
X125256503Y-91449737D01*
X125391039Y-91476498D01*
X125411153Y-91480499D01*
X125411156Y-91480500D01*
X125411158Y-91480500D01*
X125568844Y-91480500D01*
X125568845Y-91480499D01*
X125723497Y-91449737D01*
X125836166Y-91403067D01*
X125869172Y-91389397D01*
X125869172Y-91389396D01*
X125869179Y-91389394D01*
X126000289Y-91301789D01*
X126111789Y-91190289D01*
X126199394Y-91059179D01*
X126259737Y-90913497D01*
X126290500Y-90758842D01*
X126290500Y-90601158D01*
X126290500Y-90601155D01*
X126290499Y-90601153D01*
X126286521Y-90581153D01*
X126259737Y-90446503D01*
X126257805Y-90441839D01*
X126199397Y-90300827D01*
X126199390Y-90300814D01*
X126164463Y-90248543D01*
X135809499Y-90248543D01*
X135847947Y-90441829D01*
X135847950Y-90441839D01*
X135923364Y-90623907D01*
X135923371Y-90623920D01*
X136032860Y-90787781D01*
X136032863Y-90787785D01*
X136172214Y-90927136D01*
X136172218Y-90927139D01*
X136336079Y-91036628D01*
X136336092Y-91036635D01*
X136518160Y-91112049D01*
X136518165Y-91112051D01*
X136518169Y-91112051D01*
X136518170Y-91112052D01*
X136711456Y-91150500D01*
X136711459Y-91150500D01*
X136908543Y-91150500D01*
X137038582Y-91124632D01*
X137101835Y-91112051D01*
X137283914Y-91036632D01*
X137447782Y-90927139D01*
X137587139Y-90787782D01*
X137696632Y-90623914D01*
X137772051Y-90441835D01*
X137804079Y-90280821D01*
X137810500Y-90248543D01*
X144449499Y-90248543D01*
X144487947Y-90441829D01*
X144487950Y-90441839D01*
X144563364Y-90623907D01*
X144563371Y-90623920D01*
X144672860Y-90787781D01*
X144672863Y-90787785D01*
X144812214Y-90927136D01*
X144812218Y-90927139D01*
X144976079Y-91036628D01*
X144976092Y-91036635D01*
X145158160Y-91112049D01*
X145158165Y-91112051D01*
X145158169Y-91112051D01*
X145158170Y-91112052D01*
X145351456Y-91150500D01*
X145351459Y-91150500D01*
X145548543Y-91150500D01*
X145678582Y-91124632D01*
X145741835Y-91112051D01*
X145923914Y-91036632D01*
X146087782Y-90927139D01*
X146227139Y-90787782D01*
X146336632Y-90623914D01*
X146412051Y-90441835D01*
X146444079Y-90280821D01*
X146450500Y-90248543D01*
X146450500Y-89451456D01*
X146412052Y-89258170D01*
X146412051Y-89258169D01*
X146412051Y-89258165D01*
X146412049Y-89258160D01*
X146336635Y-89076092D01*
X146336628Y-89076079D01*
X146227139Y-88912218D01*
X146227136Y-88912214D01*
X146087785Y-88772863D01*
X146087781Y-88772860D01*
X145923920Y-88663371D01*
X145923907Y-88663364D01*
X145741839Y-88587950D01*
X145741829Y-88587947D01*
X145548543Y-88549500D01*
X145548541Y-88549500D01*
X145351459Y-88549500D01*
X145351457Y-88549500D01*
X145158170Y-88587947D01*
X145158160Y-88587950D01*
X144976092Y-88663364D01*
X144976079Y-88663371D01*
X144812218Y-88772860D01*
X144812214Y-88772863D01*
X144672863Y-88912214D01*
X144672860Y-88912218D01*
X144563371Y-89076079D01*
X144563364Y-89076092D01*
X144487950Y-89258160D01*
X144487947Y-89258170D01*
X144449500Y-89451456D01*
X144449500Y-89451459D01*
X144449500Y-90248541D01*
X144449500Y-90248543D01*
X144449499Y-90248543D01*
X137810500Y-90248543D01*
X137810500Y-89451456D01*
X137772052Y-89258170D01*
X137772051Y-89258169D01*
X137772051Y-89258165D01*
X137772049Y-89258160D01*
X137696635Y-89076092D01*
X137696628Y-89076079D01*
X137587139Y-88912218D01*
X137587136Y-88912214D01*
X137447785Y-88772863D01*
X137447781Y-88772860D01*
X137283920Y-88663371D01*
X137283907Y-88663364D01*
X137101839Y-88587950D01*
X137101829Y-88587947D01*
X136908543Y-88549500D01*
X136908541Y-88549500D01*
X136711459Y-88549500D01*
X136711457Y-88549500D01*
X136518170Y-88587947D01*
X136518160Y-88587950D01*
X136336092Y-88663364D01*
X136336079Y-88663371D01*
X136172218Y-88772860D01*
X136172214Y-88772863D01*
X136032863Y-88912214D01*
X136032860Y-88912218D01*
X135923371Y-89076079D01*
X135923364Y-89076092D01*
X135847950Y-89258160D01*
X135847947Y-89258170D01*
X135809500Y-89451456D01*
X135809500Y-89451459D01*
X135809500Y-90248541D01*
X135809500Y-90248543D01*
X135809499Y-90248543D01*
X126164463Y-90248543D01*
X126111789Y-90169711D01*
X126111786Y-90169707D01*
X126000292Y-90058213D01*
X126000288Y-90058210D01*
X125869185Y-89970609D01*
X125869172Y-89970602D01*
X125723501Y-89910264D01*
X125723489Y-89910261D01*
X125568845Y-89879500D01*
X125568842Y-89879500D01*
X125411158Y-89879500D01*
X125411155Y-89879500D01*
X125256510Y-89910261D01*
X125256498Y-89910264D01*
X125110827Y-89970602D01*
X125110814Y-89970609D01*
X125009057Y-90038602D01*
X124942379Y-90059480D01*
X124940166Y-90059500D01*
X111779766Y-90059500D01*
X111712727Y-90039815D01*
X111710875Y-90038602D01*
X111579185Y-89950609D01*
X111579172Y-89950602D01*
X111433501Y-89890264D01*
X111433489Y-89890261D01*
X111278845Y-89859500D01*
X111278842Y-89859500D01*
X111121158Y-89859500D01*
X111121155Y-89859500D01*
X110966510Y-89890261D01*
X110966498Y-89890264D01*
X110820827Y-89950602D01*
X110820814Y-89950609D01*
X110689711Y-90038210D01*
X110689707Y-90038213D01*
X110578213Y-90149707D01*
X110578210Y-90149711D01*
X110490609Y-90280814D01*
X110490602Y-90280827D01*
X110430264Y-90426498D01*
X110430261Y-90426510D01*
X110399500Y-90581153D01*
X110399500Y-90738846D01*
X110430261Y-90893489D01*
X110430264Y-90893501D01*
X110478855Y-91010812D01*
X110486324Y-91080282D01*
X110455048Y-91142761D01*
X110451976Y-91145944D01*
X110398214Y-91199706D01*
X110398210Y-91199711D01*
X110310609Y-91330814D01*
X110310602Y-91330827D01*
X110250264Y-91476498D01*
X110250261Y-91476510D01*
X110219500Y-91631153D01*
X110219500Y-91788846D01*
X110250261Y-91943489D01*
X110250264Y-91943501D01*
X110310602Y-92089172D01*
X110310609Y-92089185D01*
X110398210Y-92220288D01*
X110398213Y-92220292D01*
X110509707Y-92331786D01*
X110509711Y-92331789D01*
X110640814Y-92419390D01*
X110640827Y-92419397D01*
X110764730Y-92470719D01*
X110819134Y-92514560D01*
X110841199Y-92580854D01*
X110823920Y-92648553D01*
X110804960Y-92672961D01*
X110728210Y-92749711D01*
X110640609Y-92880814D01*
X110640602Y-92880827D01*
X110580264Y-93026498D01*
X110580261Y-93026510D01*
X110549500Y-93181153D01*
X110549500Y-93338846D01*
X110580261Y-93493489D01*
X110580264Y-93493501D01*
X110640602Y-93639172D01*
X110640609Y-93639185D01*
X110728210Y-93770288D01*
X110728212Y-93770291D01*
X110744593Y-93786671D01*
X110778080Y-93847993D01*
X110773097Y-93917685D01*
X110731227Y-93973619D01*
X110725808Y-93977454D01*
X110709712Y-93988209D01*
X110709707Y-93988213D01*
X110598213Y-94099707D01*
X110598210Y-94099711D01*
X110510609Y-94230814D01*
X110510602Y-94230827D01*
X110450264Y-94376498D01*
X110450261Y-94376510D01*
X110419500Y-94531153D01*
X110419500Y-94688846D01*
X110450261Y-94843489D01*
X110450264Y-94843501D01*
X110510602Y-94989172D01*
X110510609Y-94989185D01*
X110561503Y-95065353D01*
X110582381Y-95132031D01*
X110572963Y-95181694D01*
X110550264Y-95236497D01*
X110550261Y-95236505D01*
X110519500Y-95391153D01*
X110519500Y-95548846D01*
X110550261Y-95703489D01*
X110550264Y-95703501D01*
X110610602Y-95849172D01*
X110610609Y-95849185D01*
X110698210Y-95980288D01*
X110698213Y-95980292D01*
X110809707Y-96091786D01*
X110809711Y-96091789D01*
X110940814Y-96179390D01*
X110940827Y-96179397D01*
X111007847Y-96207157D01*
X111086503Y-96239737D01*
X111241153Y-96270499D01*
X111241156Y-96270500D01*
X111241158Y-96270500D01*
X111398844Y-96270500D01*
X111398845Y-96270499D01*
X111553497Y-96239737D01*
X111699179Y-96179394D01*
X111830289Y-96091789D01*
X111941789Y-95980289D01*
X112029394Y-95849179D01*
X112089737Y-95703497D01*
X112113145Y-95585818D01*
X112120638Y-95548150D01*
X112129402Y-95531394D01*
X112133423Y-95512913D01*
X112152166Y-95487875D01*
X112153023Y-95486239D01*
X112154519Y-95484715D01*
X112202417Y-95436818D01*
X112263740Y-95403334D01*
X112290097Y-95400500D01*
X115258083Y-95400500D01*
X115325122Y-95420185D01*
X115370877Y-95472989D01*
X115380821Y-95542147D01*
X115372645Y-95571951D01*
X115366901Y-95585818D01*
X115366899Y-95585823D01*
X115344725Y-95697300D01*
X115312340Y-95759211D01*
X115251624Y-95793785D01*
X115247300Y-95794725D01*
X115135823Y-95816899D01*
X115135813Y-95816902D01*
X115008428Y-95869666D01*
X115008427Y-95869667D01*
X115004880Y-95872036D01*
X115004880Y-95872037D01*
X115339998Y-96207157D01*
X115339999Y-96207157D01*
X115600883Y-95946274D01*
X115785476Y-95761680D01*
X115785479Y-95761676D01*
X115810901Y-95736256D01*
X115849635Y-95715108D01*
X115872221Y-95702775D01*
X115872223Y-95702775D01*
X115872226Y-95702774D01*
X115903028Y-95704978D01*
X115941913Y-95707759D01*
X115941916Y-95707760D01*
X115941917Y-95707761D01*
X115941922Y-95707765D01*
X115965597Y-95722981D01*
X115955224Y-95733355D01*
X115940000Y-95770109D01*
X115940000Y-95809891D01*
X115955224Y-95846645D01*
X115983355Y-95874776D01*
X116020109Y-95890000D01*
X116059891Y-95890000D01*
X116096645Y-95874776D01*
X116124776Y-95846645D01*
X116140000Y-95809891D01*
X116140000Y-95770109D01*
X116124776Y-95733355D01*
X116113654Y-95722233D01*
X116131871Y-95715438D01*
X116155063Y-95702775D01*
X116164091Y-95703420D01*
X116172573Y-95700257D01*
X116198395Y-95705873D01*
X116224755Y-95707759D01*
X116233807Y-95713576D01*
X116240847Y-95715108D01*
X116269098Y-95736257D01*
X116269101Y-95736259D01*
X116311963Y-95779120D01*
X116740000Y-96207157D01*
X117000883Y-95946274D01*
X117185476Y-95761680D01*
X117185479Y-95761676D01*
X117210901Y-95736256D01*
X117249635Y-95715108D01*
X117272221Y-95702775D01*
X117272223Y-95702775D01*
X117272226Y-95702774D01*
X117303028Y-95704978D01*
X117341913Y-95707759D01*
X117341916Y-95707760D01*
X117341917Y-95707761D01*
X117341922Y-95707765D01*
X117365597Y-95722981D01*
X117355224Y-95733355D01*
X117340000Y-95770109D01*
X117340000Y-95809891D01*
X117355224Y-95846645D01*
X117383355Y-95874776D01*
X117420109Y-95890000D01*
X117459891Y-95890000D01*
X117496645Y-95874776D01*
X117524776Y-95846645D01*
X117540000Y-95809891D01*
X117540000Y-95770109D01*
X117524776Y-95733355D01*
X117513654Y-95722233D01*
X117531871Y-95715438D01*
X117555063Y-95702775D01*
X117564091Y-95703420D01*
X117572573Y-95700257D01*
X117598395Y-95705873D01*
X117624755Y-95707759D01*
X117633807Y-95713576D01*
X117640847Y-95715108D01*
X117669098Y-95736257D01*
X117669101Y-95736259D01*
X117711963Y-95779120D01*
X118140000Y-96207157D01*
X118140001Y-96207157D01*
X118475119Y-95872037D01*
X118471574Y-95869668D01*
X118344182Y-95816901D01*
X118344176Y-95816899D01*
X118232699Y-95794725D01*
X118214984Y-95785458D01*
X118195529Y-95780861D01*
X118184659Y-95769596D01*
X118170788Y-95762340D01*
X118160895Y-95744967D01*
X118147014Y-95730581D01*
X118137752Y-95704325D01*
X118136214Y-95701624D01*
X118135273Y-95697297D01*
X118129583Y-95668689D01*
X118135812Y-95599098D01*
X118178676Y-95543921D01*
X118244566Y-95520678D01*
X118251201Y-95520500D01*
X121772243Y-95520500D01*
X121839282Y-95540185D01*
X121885037Y-95592989D01*
X121894981Y-95662147D01*
X121893860Y-95668692D01*
X121869500Y-95791155D01*
X121869500Y-95948846D01*
X121900261Y-96103489D01*
X121900264Y-96103501D01*
X121960602Y-96249172D01*
X121960609Y-96249185D01*
X122048210Y-96380288D01*
X122048213Y-96380292D01*
X122159707Y-96491786D01*
X122159711Y-96491789D01*
X122290814Y-96579390D01*
X122290827Y-96579397D01*
X122404541Y-96626498D01*
X122436503Y-96639737D01*
X122519693Y-96656284D01*
X122581602Y-96688668D01*
X122616176Y-96749384D01*
X122619500Y-96777901D01*
X122619500Y-101537059D01*
X122599815Y-101604098D01*
X122547011Y-101649853D01*
X122495500Y-101661059D01*
X122449763Y-101661059D01*
X122295118Y-101691820D01*
X122295106Y-101691823D01*
X122149435Y-101752161D01*
X122149422Y-101752168D01*
X122017733Y-101840161D01*
X121951055Y-101861039D01*
X121948842Y-101861059D01*
X113445111Y-101861059D01*
X113445095Y-101861058D01*
X113437499Y-101861058D01*
X113279384Y-101861058D01*
X113126656Y-101901982D01*
X113126655Y-101901982D01*
X113078862Y-101929576D01*
X113078861Y-101929576D01*
X112989731Y-101981034D01*
X112989723Y-101981040D01*
X111165339Y-103805425D01*
X111104016Y-103838910D01*
X111101850Y-103839361D01*
X110946508Y-103870261D01*
X110946498Y-103870264D01*
X110800827Y-103930602D01*
X110800814Y-103930609D01*
X110669711Y-104018210D01*
X110669707Y-104018213D01*
X110558213Y-104129707D01*
X110558210Y-104129711D01*
X110470609Y-104260814D01*
X110470602Y-104260827D01*
X110410264Y-104406498D01*
X110410261Y-104406510D01*
X110379500Y-104561153D01*
X110379500Y-104718846D01*
X110410261Y-104873489D01*
X110410264Y-104873501D01*
X110470602Y-105019172D01*
X110470609Y-105019185D01*
X110530923Y-105109451D01*
X110551801Y-105176129D01*
X110533316Y-105243509D01*
X110485505Y-105286454D01*
X110486191Y-105287736D01*
X110480814Y-105290609D01*
X110349711Y-105378210D01*
X110349707Y-105378213D01*
X110238213Y-105489707D01*
X110238210Y-105489711D01*
X110150609Y-105620814D01*
X110150602Y-105620827D01*
X110090264Y-105766498D01*
X110090261Y-105766510D01*
X110059500Y-105921153D01*
X105790500Y-105921153D01*
X105790500Y-99841153D01*
X106879500Y-99841153D01*
X106879500Y-99998846D01*
X106910261Y-100153489D01*
X106910264Y-100153501D01*
X106970602Y-100299172D01*
X106970609Y-100299185D01*
X107058210Y-100430288D01*
X107058213Y-100430292D01*
X107104180Y-100476258D01*
X107137666Y-100537581D01*
X107140500Y-100563940D01*
X107140500Y-102250234D01*
X107120815Y-102317273D01*
X107119602Y-102319125D01*
X107031609Y-102450814D01*
X107031602Y-102450827D01*
X106971264Y-102596498D01*
X106971261Y-102596510D01*
X106940500Y-102751153D01*
X106940500Y-102908846D01*
X106971261Y-103063489D01*
X106971264Y-103063501D01*
X107031602Y-103209172D01*
X107031609Y-103209185D01*
X107119210Y-103340288D01*
X107119213Y-103340292D01*
X107230707Y-103451786D01*
X107230711Y-103451789D01*
X107361814Y-103539390D01*
X107361827Y-103539397D01*
X107507498Y-103599735D01*
X107507503Y-103599737D01*
X107662153Y-103630499D01*
X107662156Y-103630500D01*
X107662158Y-103630500D01*
X107819844Y-103630500D01*
X107819845Y-103630499D01*
X107974497Y-103599737D01*
X108120179Y-103539394D01*
X108251289Y-103451789D01*
X108362789Y-103340289D01*
X108450394Y-103209179D01*
X108510737Y-103063497D01*
X108541500Y-102908842D01*
X108541500Y-102751158D01*
X108541500Y-102751155D01*
X108541499Y-102751153D01*
X108535402Y-102720500D01*
X108510737Y-102596503D01*
X108505756Y-102584477D01*
X108450397Y-102450827D01*
X108450390Y-102450814D01*
X108362398Y-102319125D01*
X108341520Y-102252447D01*
X108341500Y-102250234D01*
X108341500Y-100408472D01*
X108361185Y-100341433D01*
X108362399Y-100339580D01*
X108389389Y-100299186D01*
X108389390Y-100299185D01*
X108389394Y-100299179D01*
X108449737Y-100153497D01*
X108480500Y-99998842D01*
X108480500Y-99841158D01*
X108480500Y-99841155D01*
X108480499Y-99841153D01*
X108477054Y-99823835D01*
X108449737Y-99686503D01*
X108449735Y-99686498D01*
X108389397Y-99540827D01*
X108389390Y-99540814D01*
X108301789Y-99409711D01*
X108301786Y-99409707D01*
X108190289Y-99298210D01*
X108140361Y-99264850D01*
X108059185Y-99210609D01*
X108059172Y-99210602D01*
X108052796Y-99207961D01*
X115704880Y-99207961D01*
X115704880Y-99207962D01*
X115708429Y-99210334D01*
X115835813Y-99263097D01*
X115835823Y-99263100D01*
X115971053Y-99290000D01*
X116108946Y-99290000D01*
X116244176Y-99263100D01*
X116244186Y-99263097D01*
X116371570Y-99210334D01*
X116371572Y-99210332D01*
X116375119Y-99207961D01*
X117104880Y-99207961D01*
X117104880Y-99207962D01*
X117108429Y-99210334D01*
X117235813Y-99263097D01*
X117235823Y-99263100D01*
X117371053Y-99290000D01*
X117508946Y-99290000D01*
X117644176Y-99263100D01*
X117644186Y-99263097D01*
X117771570Y-99210334D01*
X117771572Y-99210332D01*
X117775119Y-99207961D01*
X117440001Y-98872842D01*
X117440000Y-98872842D01*
X117104880Y-99207961D01*
X116375119Y-99207961D01*
X116040001Y-98872842D01*
X116040000Y-98872842D01*
X115704880Y-99207961D01*
X108052796Y-99207961D01*
X107913501Y-99150264D01*
X107913489Y-99150261D01*
X107758845Y-99119500D01*
X107758842Y-99119500D01*
X107601158Y-99119500D01*
X107601155Y-99119500D01*
X107446510Y-99150261D01*
X107446498Y-99150264D01*
X107300827Y-99210602D01*
X107300814Y-99210609D01*
X107169711Y-99298210D01*
X107169707Y-99298213D01*
X107058213Y-99409707D01*
X107058210Y-99409711D01*
X106970609Y-99540814D01*
X106970602Y-99540827D01*
X106910264Y-99686498D01*
X106910261Y-99686510D01*
X106879500Y-99841153D01*
X105790500Y-99841153D01*
X105790500Y-98507961D01*
X115004880Y-98507961D01*
X115004880Y-98507962D01*
X115008429Y-98510334D01*
X115135813Y-98563097D01*
X115135825Y-98563100D01*
X115247299Y-98585274D01*
X115309210Y-98617658D01*
X115343784Y-98678374D01*
X115344725Y-98682699D01*
X115366899Y-98794176D01*
X115366901Y-98794182D01*
X115419668Y-98921573D01*
X115419668Y-98921574D01*
X115422037Y-98925119D01*
X115757157Y-98590000D01*
X115737266Y-98570109D01*
X115940000Y-98570109D01*
X115940000Y-98609891D01*
X115955224Y-98646645D01*
X115983355Y-98674776D01*
X116020109Y-98690000D01*
X116059891Y-98690000D01*
X116096645Y-98674776D01*
X116124776Y-98646645D01*
X116140000Y-98609891D01*
X116140000Y-98589999D01*
X116322842Y-98589999D01*
X116322842Y-98590000D01*
X116657961Y-98925119D01*
X116676824Y-98923263D01*
X116690526Y-98911818D01*
X116759853Y-98903125D01*
X116801597Y-98923107D01*
X116822037Y-98925119D01*
X117157157Y-98590000D01*
X117137266Y-98570109D01*
X117340000Y-98570109D01*
X117340000Y-98609891D01*
X117355224Y-98646645D01*
X117383355Y-98674776D01*
X117420109Y-98690000D01*
X117459891Y-98690000D01*
X117496645Y-98674776D01*
X117524776Y-98646645D01*
X117540000Y-98609891D01*
X117540000Y-98589999D01*
X117722842Y-98589999D01*
X117722842Y-98590000D01*
X118057961Y-98925119D01*
X118060332Y-98921572D01*
X118060334Y-98921570D01*
X118113097Y-98794186D01*
X118113097Y-98794184D01*
X118135273Y-98682700D01*
X118167658Y-98620789D01*
X118228374Y-98586215D01*
X118232700Y-98585273D01*
X118344184Y-98563097D01*
X118344186Y-98563097D01*
X118471570Y-98510334D01*
X118471572Y-98510332D01*
X118475119Y-98507961D01*
X118140001Y-98172842D01*
X118139999Y-98172842D01*
X117977365Y-98335477D01*
X117722842Y-98589999D01*
X117540000Y-98589999D01*
X117540000Y-98570109D01*
X117524776Y-98533355D01*
X117496645Y-98505224D01*
X117459891Y-98490000D01*
X117420109Y-98490000D01*
X117383355Y-98505224D01*
X117355224Y-98533355D01*
X117340000Y-98570109D01*
X117137266Y-98570109D01*
X116902634Y-98335477D01*
X116902632Y-98335474D01*
X116740001Y-98172842D01*
X116739999Y-98172842D01*
X116577365Y-98335477D01*
X116322842Y-98589999D01*
X116140000Y-98589999D01*
X116140000Y-98570109D01*
X116124776Y-98533355D01*
X116096645Y-98505224D01*
X116059891Y-98490000D01*
X116020109Y-98490000D01*
X115983355Y-98505224D01*
X115955224Y-98533355D01*
X115940000Y-98570109D01*
X115737266Y-98570109D01*
X115339999Y-98172842D01*
X115339998Y-98172842D01*
X115004880Y-98507961D01*
X105790500Y-98507961D01*
X105790500Y-97958946D01*
X114639999Y-97958946D01*
X114666899Y-98094176D01*
X114666901Y-98094181D01*
X114719668Y-98221573D01*
X114719668Y-98221574D01*
X114722037Y-98225119D01*
X115057157Y-97890000D01*
X115037266Y-97870109D01*
X115240000Y-97870109D01*
X115240000Y-97909891D01*
X115255224Y-97946645D01*
X115283355Y-97974776D01*
X115320109Y-97990000D01*
X115359891Y-97990000D01*
X115396645Y-97974776D01*
X115424776Y-97946645D01*
X115440000Y-97909891D01*
X115440000Y-97889999D01*
X115622841Y-97889999D01*
X115827025Y-98094181D01*
X115827025Y-98094182D01*
X116040000Y-98307157D01*
X116457157Y-97890000D01*
X116437266Y-97870109D01*
X116640000Y-97870109D01*
X116640000Y-97909891D01*
X116655224Y-97946645D01*
X116683355Y-97974776D01*
X116720109Y-97990000D01*
X116759891Y-97990000D01*
X116796645Y-97974776D01*
X116824776Y-97946645D01*
X116840000Y-97909891D01*
X116840000Y-97889999D01*
X117022841Y-97889999D01*
X117227025Y-98094181D01*
X117227025Y-98094182D01*
X117440000Y-98307157D01*
X117857157Y-97890000D01*
X117837266Y-97870109D01*
X118040000Y-97870109D01*
X118040000Y-97909891D01*
X118055224Y-97946645D01*
X118083355Y-97974776D01*
X118120109Y-97990000D01*
X118159891Y-97990000D01*
X118196645Y-97974776D01*
X118224776Y-97946645D01*
X118240000Y-97909891D01*
X118240000Y-97890000D01*
X118422842Y-97890000D01*
X118757961Y-98225119D01*
X118760332Y-98221572D01*
X118760334Y-98221570D01*
X118813099Y-98094182D01*
X118813100Y-98094176D01*
X118840000Y-97958946D01*
X118840000Y-97821053D01*
X118813100Y-97685823D01*
X118813097Y-97685813D01*
X118760334Y-97558429D01*
X118757961Y-97554880D01*
X118422842Y-97890000D01*
X118240000Y-97890000D01*
X118240000Y-97870109D01*
X118224776Y-97833355D01*
X118196645Y-97805224D01*
X118159891Y-97790000D01*
X118120109Y-97790000D01*
X118083355Y-97805224D01*
X118055224Y-97833355D01*
X118040000Y-97870109D01*
X117837266Y-97870109D01*
X117597763Y-97630606D01*
X117597761Y-97630603D01*
X117440001Y-97472842D01*
X117439999Y-97472842D01*
X117282236Y-97630606D01*
X117022841Y-97889999D01*
X116840000Y-97889999D01*
X116840000Y-97870109D01*
X116824776Y-97833355D01*
X116796645Y-97805224D01*
X116759891Y-97790000D01*
X116720109Y-97790000D01*
X116683355Y-97805224D01*
X116655224Y-97833355D01*
X116640000Y-97870109D01*
X116437266Y-97870109D01*
X116197763Y-97630606D01*
X116197761Y-97630603D01*
X116040001Y-97472842D01*
X116039999Y-97472842D01*
X115882236Y-97630606D01*
X115622841Y-97889999D01*
X115440000Y-97889999D01*
X115440000Y-97870109D01*
X115424776Y-97833355D01*
X115396645Y-97805224D01*
X115359891Y-97790000D01*
X115320109Y-97790000D01*
X115283355Y-97805224D01*
X115255224Y-97833355D01*
X115240000Y-97870109D01*
X115037266Y-97870109D01*
X114722037Y-97554880D01*
X114722036Y-97554880D01*
X114719667Y-97558427D01*
X114719666Y-97558428D01*
X114666902Y-97685813D01*
X114666899Y-97685823D01*
X114640000Y-97821053D01*
X114640000Y-97958946D01*
X114639999Y-97958946D01*
X105790500Y-97958946D01*
X105790500Y-97011153D01*
X106249500Y-97011153D01*
X106249500Y-97168846D01*
X106280261Y-97323489D01*
X106280264Y-97323501D01*
X106340602Y-97469172D01*
X106340609Y-97469185D01*
X106428210Y-97600288D01*
X106428213Y-97600292D01*
X106539707Y-97711786D01*
X106539711Y-97711789D01*
X106670814Y-97799390D01*
X106670827Y-97799397D01*
X106816498Y-97859735D01*
X106816503Y-97859737D01*
X106968639Y-97889999D01*
X106971153Y-97890499D01*
X106971156Y-97890500D01*
X106971158Y-97890500D01*
X107128844Y-97890500D01*
X107128845Y-97890499D01*
X107283497Y-97859737D01*
X107429179Y-97799394D01*
X107550678Y-97718211D01*
X107560180Y-97711862D01*
X107560180Y-97711861D01*
X107560289Y-97711789D01*
X107671789Y-97600289D01*
X107759394Y-97469179D01*
X107819737Y-97323497D01*
X107850500Y-97168842D01*
X107850500Y-97107961D01*
X115004880Y-97107961D01*
X115006738Y-97126839D01*
X115018167Y-97140517D01*
X115026866Y-97209843D01*
X115025465Y-97217107D01*
X115011641Y-97278798D01*
X115339998Y-97607157D01*
X115339999Y-97607157D01*
X115600883Y-97346274D01*
X115757157Y-97190000D01*
X115737266Y-97170109D01*
X115940000Y-97170109D01*
X115940000Y-97209891D01*
X115955224Y-97246645D01*
X115983355Y-97274776D01*
X116020109Y-97290000D01*
X116059891Y-97290000D01*
X116096645Y-97274776D01*
X116124776Y-97246645D01*
X116140000Y-97209891D01*
X116140000Y-97189999D01*
X116322842Y-97189999D01*
X116322842Y-97190000D01*
X116479102Y-97346260D01*
X116479117Y-97346274D01*
X116740000Y-97607157D01*
X117157157Y-97190000D01*
X117137266Y-97170109D01*
X117340000Y-97170109D01*
X117340000Y-97209891D01*
X117355224Y-97246645D01*
X117383355Y-97274776D01*
X117420109Y-97290000D01*
X117459891Y-97290000D01*
X117496645Y-97274776D01*
X117524776Y-97246645D01*
X117540000Y-97209891D01*
X117540000Y-97189999D01*
X117722842Y-97189999D01*
X117722842Y-97190000D01*
X117879102Y-97346260D01*
X117879117Y-97346274D01*
X118140000Y-97607157D01*
X118140001Y-97607157D01*
X118475119Y-97272037D01*
X118473261Y-97253162D01*
X118461825Y-97239477D01*
X118453122Y-97170151D01*
X118473111Y-97128378D01*
X118475119Y-97107961D01*
X118140001Y-96772842D01*
X118139999Y-96772842D01*
X117977365Y-96935477D01*
X117722842Y-97189999D01*
X117540000Y-97189999D01*
X117540000Y-97170109D01*
X117524776Y-97133355D01*
X117496645Y-97105224D01*
X117459891Y-97090000D01*
X117420109Y-97090000D01*
X117383355Y-97105224D01*
X117355224Y-97133355D01*
X117340000Y-97170109D01*
X117137266Y-97170109D01*
X116902634Y-96935477D01*
X116902632Y-96935474D01*
X116740001Y-96772842D01*
X116739999Y-96772842D01*
X116577365Y-96935477D01*
X116322842Y-97189999D01*
X116140000Y-97189999D01*
X116140000Y-97170109D01*
X116124776Y-97133355D01*
X116096645Y-97105224D01*
X116059891Y-97090000D01*
X116020109Y-97090000D01*
X115983355Y-97105224D01*
X115955224Y-97133355D01*
X115940000Y-97170109D01*
X115737266Y-97170109D01*
X115339999Y-96772842D01*
X115339998Y-96772842D01*
X115004880Y-97107961D01*
X107850500Y-97107961D01*
X107850500Y-97011158D01*
X107850500Y-97011155D01*
X107850499Y-97011153D01*
X107844402Y-96980500D01*
X107819737Y-96856503D01*
X107819029Y-96854794D01*
X107759397Y-96710827D01*
X107759390Y-96710814D01*
X107671789Y-96579711D01*
X107671786Y-96579707D01*
X107651025Y-96558946D01*
X114639999Y-96558946D01*
X114666899Y-96694176D01*
X114666901Y-96694182D01*
X114719668Y-96821573D01*
X114719668Y-96821574D01*
X114722037Y-96825119D01*
X115057157Y-96490000D01*
X115037266Y-96470109D01*
X115240000Y-96470109D01*
X115240000Y-96509891D01*
X115255224Y-96546645D01*
X115283355Y-96574776D01*
X115320109Y-96590000D01*
X115359891Y-96590000D01*
X115396645Y-96574776D01*
X115424776Y-96546645D01*
X115440000Y-96509891D01*
X115440000Y-96489999D01*
X115622841Y-96489999D01*
X115803343Y-96670499D01*
X115803343Y-96670500D01*
X116040000Y-96907157D01*
X116457157Y-96490000D01*
X116437266Y-96470109D01*
X116640000Y-96470109D01*
X116640000Y-96509891D01*
X116655224Y-96546645D01*
X116683355Y-96574776D01*
X116720109Y-96590000D01*
X116759891Y-96590000D01*
X116796645Y-96574776D01*
X116824776Y-96546645D01*
X116840000Y-96509891D01*
X116840000Y-96489999D01*
X117022842Y-96489999D01*
X117203343Y-96670499D01*
X117203343Y-96670500D01*
X117440000Y-96907157D01*
X117857157Y-96490000D01*
X117837266Y-96470109D01*
X118040000Y-96470109D01*
X118040000Y-96509891D01*
X118055224Y-96546645D01*
X118083355Y-96574776D01*
X118120109Y-96590000D01*
X118159891Y-96590000D01*
X118196645Y-96574776D01*
X118224776Y-96546645D01*
X118240000Y-96509891D01*
X118240000Y-96490000D01*
X118422842Y-96490000D01*
X118757961Y-96825119D01*
X118760332Y-96821572D01*
X118760334Y-96821570D01*
X118813097Y-96694186D01*
X118813100Y-96694176D01*
X118840000Y-96558946D01*
X118840000Y-96421053D01*
X118813100Y-96285823D01*
X118813097Y-96285813D01*
X118760334Y-96158429D01*
X118757961Y-96154880D01*
X118422842Y-96490000D01*
X118240000Y-96490000D01*
X118240000Y-96470109D01*
X118224776Y-96433355D01*
X118196645Y-96405224D01*
X118159891Y-96390000D01*
X118120109Y-96390000D01*
X118083355Y-96405224D01*
X118055224Y-96433355D01*
X118040000Y-96470109D01*
X117837266Y-96470109D01*
X117602634Y-96235477D01*
X117602632Y-96235474D01*
X117440001Y-96072842D01*
X117439999Y-96072842D01*
X117277365Y-96235477D01*
X117022842Y-96489999D01*
X116840000Y-96489999D01*
X116840000Y-96470109D01*
X116824776Y-96433355D01*
X116796645Y-96405224D01*
X116759891Y-96390000D01*
X116720109Y-96390000D01*
X116683355Y-96405224D01*
X116655224Y-96433355D01*
X116640000Y-96470109D01*
X116437266Y-96470109D01*
X116202634Y-96235477D01*
X116202632Y-96235474D01*
X116040001Y-96072842D01*
X116039999Y-96072842D01*
X115877365Y-96235477D01*
X115622841Y-96489999D01*
X115440000Y-96489999D01*
X115440000Y-96470109D01*
X115424776Y-96433355D01*
X115396645Y-96405224D01*
X115359891Y-96390000D01*
X115320109Y-96390000D01*
X115283355Y-96405224D01*
X115255224Y-96433355D01*
X115240000Y-96470109D01*
X115037266Y-96470109D01*
X114722037Y-96154880D01*
X114722036Y-96154880D01*
X114719667Y-96158427D01*
X114719666Y-96158428D01*
X114666902Y-96285813D01*
X114666899Y-96285823D01*
X114640000Y-96421053D01*
X114640000Y-96558946D01*
X114639999Y-96558946D01*
X107651025Y-96558946D01*
X107560292Y-96468213D01*
X107560288Y-96468210D01*
X107429185Y-96380609D01*
X107429172Y-96380602D01*
X107283501Y-96320264D01*
X107283489Y-96320261D01*
X107128845Y-96289500D01*
X107128842Y-96289500D01*
X106971158Y-96289500D01*
X106971155Y-96289500D01*
X106816510Y-96320261D01*
X106816498Y-96320264D01*
X106670827Y-96380602D01*
X106670814Y-96380609D01*
X106539711Y-96468210D01*
X106539707Y-96468213D01*
X106428213Y-96579707D01*
X106428210Y-96579711D01*
X106340609Y-96710814D01*
X106340602Y-96710827D01*
X106280264Y-96856498D01*
X106280261Y-96856510D01*
X106249500Y-97011153D01*
X105790500Y-97011153D01*
X105790500Y-88269066D01*
X105790765Y-88260956D01*
X105794819Y-88199108D01*
X105807075Y-88012100D01*
X105809189Y-87996052D01*
X105828784Y-87897540D01*
X105861169Y-87835630D01*
X105921885Y-87801056D01*
X105950401Y-87797733D01*
X106124584Y-87797733D01*
X106124585Y-87797733D01*
X106326767Y-87765710D01*
X106521452Y-87702453D01*
X106703843Y-87609520D01*
X106796823Y-87541965D01*
X106869446Y-87489204D01*
X106869448Y-87489201D01*
X106869452Y-87489199D01*
X107014199Y-87344452D01*
X107014201Y-87344448D01*
X107014204Y-87344446D01*
X107080586Y-87253077D01*
X107134520Y-87178843D01*
X107227453Y-86996452D01*
X107290710Y-86801767D01*
X107322733Y-86599585D01*
X107322733Y-86425401D01*
X107331675Y-86394945D01*
X107338978Y-86364042D01*
X107341450Y-86361655D01*
X107342418Y-86358362D01*
X107366400Y-86337580D01*
X107389257Y-86315526D01*
X107393636Y-86313981D01*
X107395222Y-86312607D01*
X107422539Y-86303784D01*
X107521052Y-86284189D01*
X107537100Y-86282075D01*
X107785957Y-86265765D01*
X107794067Y-86265500D01*
X107855892Y-86265500D01*
X180984108Y-86265500D01*
X181045933Y-86265500D01*
X181054043Y-86265765D01*
G37*
%TD.AperFunction*%
%TD*%
M02*
