M48
; DRILL file {KiCad 9.0.8} date 2026-03-25T12:43:09+0200
; FORMAT={-:-/ absolute / metric / decimal}
; #@! TF.CreationDate,2026-03-25T12:43:09+02:00
; #@! TF.GenerationSoftware,Kicad,Pcbnew,9.0.8
; #@! TF.FileFunction,Plated,1,4,PTH
FMAT,2
METRIC
; #@! TA.AperFunction,Plated,PTH,ComponentDrill
T1C0.200
; #@! TA.AperFunction,Plated,PTH,ViaDrill
T2C0.300
; #@! TA.AperFunction,Plated,PTH,ComponentDrill
T3C0.600
; #@! TA.AperFunction,Plated,PTH,ComponentDrill
T4C1.300
%
G90
G05
T1
X115.34Y-96.49
X115.34Y-97.89
X116.04Y-95.79
X116.04Y-97.19
X116.04Y-98.59
X116.74Y-96.49
X116.74Y-97.89
X117.44Y-95.79
X117.44Y-97.19
X117.44Y-98.59
X118.14Y-96.49
X118.14Y-97.89
T2
X107.05Y-97.09
X107.421Y-93.1
X107.68Y-99.92
X107.741Y-102.83
X108.22Y-88.81
X109.43Y-117.3
X110.66Y-117.33
X110.86Y-106.0
X111.02Y-91.71
X111.18Y-104.64
X111.2Y-90.66
X111.22Y-94.61
X111.32Y-95.47
X111.35Y-93.26
X112.98Y-111.32
X114.15Y-117.47
X115.52Y-114.26
X118.54Y-117.51
X121.85Y-111.2
X122.32Y-103.26
X122.41Y-94.33
X122.529Y-102.462
X122.67Y-95.87
X123.77Y-102.24
X123.77Y-103.01
X124.23Y-94.38
X124.4Y-96.17
X124.84Y-115.54
X125.49Y-90.68
X126.94Y-107.45
X128.4Y-120.09
X128.541Y-98.34
X128.57Y-92.96
X129.41Y-113.76
X129.99Y-102.76
X131.611Y-99.051
X132.29Y-99.94
X132.55Y-96.86
X132.55Y-98.11
X135.99Y-98.91
X136.38Y-121.33
X136.52Y-100.13
X137.67Y-121.27
X138.66Y-119.99
X138.79Y-122.18
X138.8Y-96.18
X140.36Y-120.0
X140.52Y-100.469
X142.85Y-101.92
X143.62Y-96.17
X146.09Y-107.76
X146.12Y-105.59
X147.58Y-119.4
X149.35Y-98.97
X151.17Y-94.96
X156.1Y-122.67
X158.66Y-102.93
X165.92Y-111.9
X166.63Y-118.12
X167.32Y-122.41
X169.72Y-114.92
X170.44Y-110.87
X170.74Y-103.19
X172.7Y-106.35
T4
X111.95Y-124.675
X116.95Y-124.675
X123.45Y-124.667
X128.45Y-124.667
X149.87Y-92.28
X154.87Y-92.28
X161.12Y-92.34
X166.12Y-92.34
X171.12Y-92.34
X174.54Y-121.705
X174.54Y-126.705
X174.57Y-100.355
X174.57Y-105.355
X174.57Y-110.355
X174.57Y-115.355
X176.12Y-92.34
T3
G00X136.81Y-90.15
M15
G01X136.81Y-89.55
M16
G05
G00X136.81Y-94.58
M15
G01X136.81Y-93.48
M16
G05
G00X145.45Y-90.15
M15
G01X145.45Y-89.55
M16
G05
G00X145.45Y-94.58
M15
G01X145.45Y-93.48
M16
G05
M30
