%TF.GenerationSoftware,KiCad,Pcbnew,9.0.8*%
%TF.CreationDate,2026-03-26T19:45:36+02:00*%
%TF.ProjectId,ONA,4f4e412e-6b69-4636-9164-5f7063625858,rev?*%
%TF.SameCoordinates,Original*%
%TF.FileFunction,Soldermask,Top*%
%TF.FilePolarity,Negative*%
%FSLAX46Y46*%
G04 Gerber Fmt 4.6, Leading zero omitted, Abs format (unit mm)*
G04 Created by KiCad (PCBNEW 9.0.8) date 2026-03-26 19:45:36*
%MOMM*%
%LPD*%
G01*
G04 APERTURE LIST*
G04 Aperture macros list*
%AMRoundRect*
0 Rectangle with rounded corners*
0 $1 Rounding radius*
0 $2 $3 $4 $5 $6 $7 $8 $9 X,Y pos of 4 corners*
0 Add a 4 corners polygon primitive as box body*
4,1,4,$2,$3,$4,$5,$6,$7,$8,$9,$2,$3,0*
0 Add four circle primitives for the rounded corners*
1,1,$1+$1,$2,$3*
1,1,$1+$1,$4,$5*
1,1,$1+$1,$6,$7*
1,1,$1+$1,$8,$9*
0 Add four rect primitives between the rounded corners*
20,1,$1+$1,$2,$3,$4,$5,0*
20,1,$1+$1,$4,$5,$6,$7,0*
20,1,$1+$1,$6,$7,$8,$9,0*
20,1,$1+$1,$8,$9,$2,$3,0*%
G04 Aperture macros list end*
%ADD10RoundRect,0.250000X1.050000X1.050000X-1.050000X1.050000X-1.050000X-1.050000X1.050000X-1.050000X0*%
%ADD11C,2.600000*%
%ADD12RoundRect,0.250000X-0.262500X-0.450000X0.262500X-0.450000X0.262500X0.450000X-0.262500X0.450000X0*%
%ADD13RoundRect,0.250000X0.450000X-0.262500X0.450000X0.262500X-0.450000X0.262500X-0.450000X-0.262500X0*%
%ADD14RoundRect,0.250000X-0.550000X1.500000X-0.550000X-1.500000X0.550000X-1.500000X0.550000X1.500000X0*%
%ADD15RoundRect,0.250000X-0.900000X1.000000X-0.900000X-1.000000X0.900000X-1.000000X0.900000X1.000000X0*%
%ADD16RoundRect,0.250000X-1.000000X1.950000X-1.000000X-1.950000X1.000000X-1.950000X1.000000X1.950000X0*%
%ADD17RoundRect,0.250000X0.262500X0.450000X-0.262500X0.450000X-0.262500X-0.450000X0.262500X-0.450000X0*%
%ADD18RoundRect,0.150000X-0.825000X-0.150000X0.825000X-0.150000X0.825000X0.150000X-0.825000X0.150000X0*%
%ADD19C,2.100000*%
%ADD20RoundRect,0.250000X0.475000X-0.250000X0.475000X0.250000X-0.475000X0.250000X-0.475000X-0.250000X0*%
%ADD21RoundRect,0.150000X-0.150000X0.825000X-0.150000X-0.825000X0.150000X-0.825000X0.150000X0.825000X0*%
%ADD22RoundRect,0.250000X1.050000X-1.050000X1.050000X1.050000X-1.050000X1.050000X-1.050000X-1.050000X0*%
%ADD23RoundRect,0.375000X0.375000X-0.625000X0.375000X0.625000X-0.375000X0.625000X-0.375000X-0.625000X0*%
%ADD24RoundRect,0.500000X1.400000X-0.500000X1.400000X0.500000X-1.400000X0.500000X-1.400000X-0.500000X0*%
%ADD25RoundRect,0.250000X-0.475000X0.250000X-0.475000X-0.250000X0.475000X-0.250000X0.475000X0.250000X0*%
%ADD26RoundRect,0.250000X-0.450000X0.262500X-0.450000X-0.262500X0.450000X-0.262500X0.450000X0.262500X0*%
%ADD27RoundRect,0.250000X-0.250000X-0.475000X0.250000X-0.475000X0.250000X0.475000X-0.250000X0.475000X0*%
%ADD28R,2.900000X5.400000*%
%ADD29RoundRect,0.250000X1.000000X-1.400000X1.000000X1.400000X-1.000000X1.400000X-1.000000X-1.400000X0*%
%ADD30RoundRect,0.102000X-0.750000X-0.450000X0.750000X-0.450000X0.750000X0.450000X-0.750000X0.450000X0*%
%ADD31RoundRect,0.102000X-0.450000X-0.750000X0.450000X-0.750000X0.450000X0.750000X-0.450000X0.750000X0*%
%ADD32RoundRect,0.102000X-0.450000X-0.450000X0.450000X-0.450000X0.450000X0.450000X-0.450000X0.450000X0*%
%ADD33RoundRect,0.250000X-1.050000X-1.050000X1.050000X-1.050000X1.050000X1.050000X-1.050000X1.050000X0*%
%ADD34RoundRect,0.250000X0.250000X0.475000X-0.250000X0.475000X-0.250000X-0.475000X0.250000X-0.475000X0*%
%ADD35RoundRect,0.250000X0.400000X0.600000X-0.400000X0.600000X-0.400000X-0.600000X0.400000X-0.600000X0*%
%ADD36RoundRect,0.243750X0.243750X0.456250X-0.243750X0.456250X-0.243750X-0.456250X0.243750X-0.456250X0*%
%ADD37RoundRect,0.250000X-1.000000X-0.650000X1.000000X-0.650000X1.000000X0.650000X-1.000000X0.650000X0*%
%ADD38RoundRect,0.249999X0.640001X-0.750001X0.640001X0.750001X-0.640001X0.750001X-0.640001X-0.750001X0*%
%ADD39RoundRect,0.250000X0.300000X-2.050000X0.300000X2.050000X-0.300000X2.050000X-0.300000X-2.050000X0*%
%ADD40RoundRect,0.250002X5.149998X-4.449998X5.149998X4.449998X-5.149998X4.449998X-5.149998X-4.449998X0*%
%ADD41C,0.650000*%
%ADD42R,0.600000X1.450000*%
%ADD43R,0.300000X1.450000*%
%ADD44O,1.000000X2.100000*%
%ADD45O,1.000000X1.600000*%
G04 APERTURE END LIST*
D10*
%TO.C,TDS Sensor*%
X176120000Y-92340000D03*
D11*
X171120000Y-92340000D03*
X166120000Y-92340000D03*
X161120000Y-92340000D03*
%TD*%
D12*
%TO.C,120\u03A9*%
X133005000Y-95265000D03*
X134830000Y-95265000D03*
%TD*%
D13*
%TO.C,150\u03A9*%
X160782500Y-102405000D03*
X160782500Y-100580000D03*
%TD*%
D14*
%TO.C,220uF*%
X164870000Y-121955000D03*
X164870000Y-127355000D03*
%TD*%
D15*
%TO.C,SMBJ28A*%
X159020000Y-109830000D03*
X159020000Y-114130000D03*
%TD*%
D16*
%TO.C,470\u00B5F/50V*%
X150195000Y-104580000D03*
X150195000Y-112980000D03*
%TD*%
D17*
%TO.C,1\u03A9*%
X159457500Y-104630000D03*
X157632500Y-104630000D03*
%TD*%
D18*
%TO.C,MAX3485*%
X129730000Y-97480000D03*
X129730000Y-98750000D03*
X129730000Y-100020000D03*
X129730000Y-101290000D03*
X134680000Y-101290000D03*
X134680000Y-100020000D03*
X134680000Y-98750000D03*
X134680000Y-97480000D03*
%TD*%
D19*
%TO.C, *%
X182817767Y-86497233D03*
%TD*%
D13*
%TO.C,10k*%
X131755000Y-91412500D03*
X131755000Y-89587500D03*
%TD*%
D20*
%TO.C,100nF*%
X114085000Y-112225000D03*
X114085000Y-110325000D03*
%TD*%
D10*
%TO.C,Pressure Sensor*%
X154870000Y-92280000D03*
D11*
X149870000Y-92280000D03*
%TD*%
D13*
%TO.C,120\u03A9*%
X114060000Y-115850000D03*
X114060000Y-114025000D03*
%TD*%
D21*
%TO.C,MAX3485*%
X120750000Y-110590000D03*
X119480000Y-110590000D03*
X118210000Y-110590000D03*
X116940000Y-110590000D03*
X116940000Y-115540000D03*
X118210000Y-115540000D03*
X119480000Y-115540000D03*
X120750000Y-115540000D03*
%TD*%
D22*
%TO.C,Differential pressure transmitter*%
X174570000Y-115355000D03*
D11*
X174570000Y-110355000D03*
X174570000Y-105355000D03*
X174570000Y-100355000D03*
%TD*%
D21*
%TO.C,MAX3485*%
X111870000Y-110525000D03*
X110600000Y-110525000D03*
X109330000Y-110525000D03*
X108060000Y-110525000D03*
X108060000Y-115475000D03*
X109330000Y-115475000D03*
X110600000Y-115475000D03*
X111870000Y-115475000D03*
%TD*%
D23*
%TO.C,AMS1117-3.3*%
X163295000Y-110080000D03*
X165595000Y-110080000D03*
D24*
X165595000Y-103780000D03*
D23*
X167895000Y-110080000D03*
%TD*%
D17*
%TO.C,10k*%
X131407500Y-104230000D03*
X129582500Y-104230000D03*
%TD*%
D25*
%TO.C,10\u03BCF*%
X129405000Y-89720000D03*
X129405000Y-91620000D03*
%TD*%
D26*
%TO.C,22\u03A9*%
X142780000Y-97857500D03*
X142780000Y-99682500D03*
%TD*%
D27*
%TO.C,0.1\u00B5F*%
X129570000Y-106705000D03*
X131470000Y-106705000D03*
%TD*%
D26*
%TO.C,120\u03A9*%
X122840000Y-113827500D03*
X122840000Y-115652500D03*
%TD*%
D20*
%TO.C,1\u03BCF*%
X106995000Y-95790000D03*
X106995000Y-93890000D03*
%TD*%
D28*
%TO.C,33\u00B5H*%
X148800000Y-123195000D03*
X158500000Y-123195000D03*
%TD*%
D13*
%TO.C,22\u03A9*%
X140705000Y-99682500D03*
X140705000Y-97857500D03*
%TD*%
%TO.C,2.2k*%
X145700000Y-121025000D03*
X145700000Y-119200000D03*
%TD*%
D19*
%TO.C, *%
X106022233Y-86497233D03*
%TD*%
D29*
%TO.C,SS36*%
X135622500Y-125305000D03*
X142422500Y-125305000D03*
%TD*%
D17*
%TO.C,1k*%
X160595000Y-98492500D03*
X158770000Y-98492500D03*
%TD*%
D20*
%TO.C,100nF*%
X106920000Y-92015000D03*
X106920000Y-90115000D03*
%TD*%
D27*
%TO.C,100nF*%
X157595000Y-106855000D03*
X159495000Y-106855000D03*
%TD*%
D13*
%TO.C,5.1k\u03A9*%
X138630000Y-99670000D03*
X138630000Y-97845000D03*
%TD*%
%TO.C,10k*%
X131230000Y-114540000D03*
X131230000Y-112715000D03*
%TD*%
D20*
%TO.C,100nF*%
X122890000Y-112115000D03*
X122890000Y-110215000D03*
%TD*%
D30*
%TO.C,ESP32-S3-WROOM-U1*%
X109490000Y-89470000D03*
X109490000Y-90740000D03*
X109490000Y-92010000D03*
X109490000Y-93280000D03*
X109490000Y-94550000D03*
X109490000Y-95820000D03*
X109490000Y-97090000D03*
X109490000Y-98360000D03*
X109490000Y-99630000D03*
X109490000Y-100900000D03*
X109490000Y-102170000D03*
X109490000Y-103440000D03*
X109490000Y-104710000D03*
X109490000Y-105980000D03*
D31*
X111255000Y-107230000D03*
X112525000Y-107230000D03*
X113795000Y-107230000D03*
X115065000Y-107230000D03*
X116335000Y-107230000D03*
X117605000Y-107230000D03*
X118875000Y-107230000D03*
X120145000Y-107230000D03*
X121415000Y-107230000D03*
X122685000Y-107230000D03*
X123955000Y-107230000D03*
X125225000Y-107230000D03*
D30*
X126990000Y-105980000D03*
X126990000Y-104710000D03*
X126990000Y-103440000D03*
X126990000Y-102170000D03*
X126990000Y-100900000D03*
X126990000Y-99630000D03*
X126990000Y-98360000D03*
X126990000Y-97090000D03*
X126990000Y-95820000D03*
X126990000Y-94550000D03*
X126990000Y-93280000D03*
X126990000Y-92010000D03*
X126990000Y-90740000D03*
X126990000Y-89470000D03*
D32*
X115340000Y-95790000D03*
X116740000Y-95790000D03*
X118140000Y-95790000D03*
X115340000Y-97190000D03*
X116740000Y-97190000D03*
X118140000Y-97190000D03*
X115340000Y-98590000D03*
X116740000Y-98590000D03*
X118140000Y-98590000D03*
%TD*%
D33*
%TO.C,VFD*%
X111950000Y-124675000D03*
D11*
X116950000Y-124675000D03*
%TD*%
D34*
%TO.C,100nF*%
X131130000Y-95265000D03*
X129230000Y-95265000D03*
%TD*%
D35*
%TO.C,BZV55B3V3*%
X158732500Y-100967500D03*
X155232500Y-100967500D03*
%TD*%
D25*
%TO.C,22uF*%
X168140000Y-117875000D03*
X168140000Y-119775000D03*
%TD*%
D36*
%TO.C,Fuse*%
X164670000Y-117655000D03*
X162795000Y-117655000D03*
%TD*%
D19*
%TO.C, *%
X182817767Y-130302767D03*
%TD*%
D33*
%TO.C,Flow Sensor*%
X123450000Y-124667500D03*
D11*
X128450000Y-124667500D03*
%TD*%
D19*
%TO.C, *%
X106022233Y-130302767D03*
%TD*%
D27*
%TO.C,100nF*%
X155107500Y-98492500D03*
X157007500Y-98492500D03*
%TD*%
D37*
%TO.C,SS1*%
X163582500Y-114655000D03*
X167582500Y-114655000D03*
%TD*%
D25*
%TO.C,100nF*%
X131255000Y-116390000D03*
X131255000Y-118290000D03*
%TD*%
D38*
%TO.C,PC817*%
X126045000Y-117730000D03*
X128585000Y-117730000D03*
X128585000Y-110110000D03*
X126045000Y-110110000D03*
%TD*%
D22*
%TO.C,power 24v*%
X174540000Y-126705000D03*
D11*
X174540000Y-121705000D03*
%TD*%
D39*
%TO.C,LM2596S-5*%
X135230000Y-116315000D03*
X136930000Y-116315000D03*
X138630000Y-116315000D03*
D40*
X138630000Y-107165000D03*
D39*
X140330000Y-116315000D03*
X142030000Y-116315000D03*
%TD*%
D26*
%TO.C,5.1k\u03A9*%
X144855000Y-97870000D03*
X144855000Y-99695000D03*
%TD*%
%TO.C,1K*%
X153145000Y-99430000D03*
X153145000Y-101255000D03*
%TD*%
D41*
%TO.C,PROGRAMMING*%
X144020000Y-93500000D03*
X138240000Y-93500000D03*
D42*
X144380000Y-94945000D03*
X143580000Y-94945000D03*
D43*
X142380000Y-94945000D03*
X141380000Y-94945000D03*
X140880000Y-94945000D03*
X139880000Y-94945000D03*
D42*
X138680000Y-94945000D03*
X137880000Y-94945000D03*
X137880000Y-94945000D03*
X138680000Y-94945000D03*
D43*
X139380000Y-94945000D03*
X140380000Y-94945000D03*
X141880000Y-94945000D03*
X142880000Y-94945000D03*
D42*
X143580000Y-94945000D03*
X144380000Y-94945000D03*
D44*
X145450000Y-94030000D03*
D45*
X145450000Y-89850000D03*
D44*
X136810000Y-94030000D03*
D45*
X136810000Y-89850000D03*
%TD*%
M02*
