%TF.GenerationSoftware,KiCad,Pcbnew,9.0.8*%
%TF.CreationDate,2026-03-26T19:45:34+02:00*%
%TF.ProjectId,ONA,4f4e412e-6b69-4636-9164-5f7063625858,rev?*%
%TF.SameCoordinates,Original*%
%TF.FileFunction,Copper,L3,Inr*%
%TF.FilePolarity,Positive*%
%FSLAX46Y46*%
G04 Gerber Fmt 4.6, Leading zero omitted, Abs format (unit mm)*
G04 Created by KiCad (PCBNEW 9.0.8) date 2026-03-26 19:45:34*
%MOMM*%
%LPD*%
G01*
G04 APERTURE LIST*
G04 Aperture macros list*
%AMRoundRect*
0 Rectangle with rounded corners*
0 $1 Rounding radius*
0 $2 $3 $4 $5 $6 $7 $8 $9 X,Y pos of 4 corners*
0 Add a 4 corners polygon primitive as box body*
4,1,4,$2,$3,$4,$5,$6,$7,$8,$9,$2,$3,0*
0 Add four circle primitives for the rounded corners*
1,1,$1+$1,$2,$3*
1,1,$1+$1,$4,$5*
1,1,$1+$1,$6,$7*
1,1,$1+$1,$8,$9*
0 Add four rect primitives between the rounded corners*
20,1,$1+$1,$2,$3,$4,$5,0*
20,1,$1+$1,$4,$5,$6,$7,0*
20,1,$1+$1,$6,$7,$8,$9,0*
20,1,$1+$1,$8,$9,$2,$3,0*%
G04 Aperture macros list end*
%TA.AperFunction,ComponentPad*%
%ADD10RoundRect,0.250000X1.050000X1.050000X-1.050000X1.050000X-1.050000X-1.050000X1.050000X-1.050000X0*%
%TD*%
%TA.AperFunction,ComponentPad*%
%ADD11C,2.600000*%
%TD*%
%TA.AperFunction,ComponentPad*%
%ADD12RoundRect,0.250000X1.050000X-1.050000X1.050000X1.050000X-1.050000X1.050000X-1.050000X-1.050000X0*%
%TD*%
%TA.AperFunction,ComponentPad*%
%ADD13C,0.400000*%
%TD*%
%TA.AperFunction,ComponentPad*%
%ADD14RoundRect,0.250000X-1.050000X-1.050000X1.050000X-1.050000X1.050000X1.050000X-1.050000X1.050000X0*%
%TD*%
%TA.AperFunction,HeatsinkPad*%
%ADD15O,1.000000X2.100000*%
%TD*%
%TA.AperFunction,HeatsinkPad*%
%ADD16O,1.000000X1.600000*%
%TD*%
%TA.AperFunction,ViaPad*%
%ADD17C,0.600000*%
%TD*%
%TA.AperFunction,Conductor*%
%ADD18C,0.200000*%
%TD*%
%TA.AperFunction,Conductor*%
%ADD19C,0.500000*%
%TD*%
G04 APERTURE END LIST*
D10*
%TO.N,/+24v*%
%TO.C,TDS Sensor*%
X176120000Y-92340000D03*
D11*
%TO.N,GND*%
X171120000Y-92340000D03*
%TO.N,Net-(TDS1-Pin_3)*%
X166120000Y-92340000D03*
%TO.N,Net-(TDS1-Pin_4)*%
X161120000Y-92340000D03*
%TD*%
D10*
%TO.N,/+24v*%
%TO.C,Pressure Sensor*%
X154870000Y-92280000D03*
D11*
%TO.N,Net-(I.L.T1-Pin_2)*%
X149870000Y-92280000D03*
%TD*%
D12*
%TO.N,/+24v*%
%TO.C,Differential pressure transmitter*%
X174570000Y-115355000D03*
D11*
%TO.N,GND*%
X174570000Y-110355000D03*
%TO.N,Net-(DiffrPressureTransmitter1-Pin_3)*%
X174570000Y-105355000D03*
%TO.N,Net-(DiffrPressureTransmitter1-Pin_4)*%
X174570000Y-100355000D03*
%TD*%
D13*
%TO.N,GND*%
%TO.C,ESP32-S3-WROOM-U1*%
X116040000Y-95790000D03*
X117440000Y-95790000D03*
X115340000Y-96490000D03*
X116740000Y-96490000D03*
X118140000Y-96490000D03*
X116040000Y-97190000D03*
X117440000Y-97190000D03*
X115340000Y-97890000D03*
X116740000Y-97890000D03*
X118140000Y-97890000D03*
X116040000Y-98590000D03*
X117440000Y-98590000D03*
%TD*%
D14*
%TO.N,Net-(U8-A)*%
%TO.C,VFD*%
X111950000Y-124675000D03*
D11*
%TO.N,Net-(U8-B)*%
X116950000Y-124675000D03*
%TD*%
D14*
%TO.N,Net-(I.L.T2-Pin_1)*%
%TO.C,Flow Sensor*%
X123450000Y-124667500D03*
D11*
%TO.N,GND*%
X128450000Y-124667500D03*
%TD*%
D12*
%TO.N,GND*%
%TO.C,power 24v*%
X174540000Y-126705000D03*
D11*
%TO.N,/+24v*%
X174540000Y-121705000D03*
%TD*%
D15*
%TO.N,unconnected-(J1-SHIELD-PadS1)_1*%
%TO.C,PROGRAMMING*%
X145450000Y-94030000D03*
D16*
%TO.N,unconnected-(J1-SHIELD-PadS1)*%
X145450000Y-89850000D03*
D15*
%TO.N,unconnected-(J1-SHIELD-PadS1)_3*%
X136810000Y-94030000D03*
D16*
%TO.N,unconnected-(J1-SHIELD-PadS1)_2*%
X136810000Y-89850000D03*
%TD*%
D17*
%TO.N,Net-(I.L.T1-Pin_2)*%
X151170000Y-94960000D03*
%TO.N,/I.L.T_pin*%
X149350000Y-98970000D03*
X111220000Y-94610000D03*
X122410000Y-94330000D03*
X124230000Y-94380000D03*
%TO.N,/3.3v*%
X111020000Y-91710000D03*
X158660000Y-102930000D03*
X126940000Y-107450000D03*
X165920000Y-111900000D03*
X112980000Y-111320000D03*
X107050000Y-97090000D03*
X166630000Y-118120000D03*
X128570000Y-92960000D03*
X121850000Y-111200000D03*
X129990000Y-102760000D03*
%TO.N,GND*%
X138660000Y-119990000D03*
X108220000Y-88810000D03*
X107421000Y-93100000D03*
X138790000Y-122180000D03*
%TO.N,/+24v*%
X147580000Y-119400000D03*
X169720000Y-114920000D03*
%TO.N,/Flow Sensor Pin*%
X111350000Y-93260000D03*
X129410000Y-113760000D03*
%TO.N,/+5v*%
X146120000Y-105590000D03*
X140360000Y-120000000D03*
X170440000Y-110870000D03*
X167320000Y-122410000D03*
X138800000Y-96180000D03*
X146090000Y-107760000D03*
X156100000Y-122670000D03*
X143620000Y-96170000D03*
%TO.N,Net-(U1-3V3)*%
X111200000Y-90660000D03*
X125490000Y-90680000D03*
%TO.N,Net-(I.L.T2-Pin_1)*%
X128400000Y-120090000D03*
%TO.N,Net-(DiffrPressureTransmitter1-Pin_4)*%
X135990000Y-98910000D03*
%TO.N,Net-(DiffrPressureTransmitter1-Pin_3)*%
X136520000Y-100130000D03*
X132550000Y-98110000D03*
X132550000Y-96860000D03*
%TO.N,Net-(TDS1-Pin_3)*%
X170740000Y-103190000D03*
X118540000Y-117510000D03*
X172700000Y-106350000D03*
%TO.N,Net-(TDS1-Pin_4)*%
X124840000Y-115540000D03*
%TO.N,Net-(R10-Pad2)*%
X136380000Y-121330000D03*
X137670000Y-121270000D03*
%TO.N,Net-(U8-B)*%
X115520000Y-114260000D03*
X110660000Y-117330000D03*
%TO.N,Net-(U8-A)*%
X109430000Y-117300000D03*
X114150000Y-117470000D03*
%TO.N,/Diff Pressure Transmitter*%
X124400000Y-96170000D03*
X122670000Y-95870000D03*
X111320000Y-95470000D03*
X128541000Y-98340000D03*
%TO.N,/Rx2*%
X107741000Y-102830000D03*
X107680000Y-99920000D03*
%TO.N,/USB D+*%
X140520000Y-100469000D03*
X122320000Y-103260000D03*
X110860000Y-106000000D03*
X123770000Y-103010000D03*
%TO.N,/USB D-*%
X111180000Y-104640000D03*
X122528608Y-102461559D03*
X131610707Y-99050707D03*
X123770000Y-102240000D03*
X132290000Y-99940000D03*
X142850000Y-101920000D03*
%TD*%
D18*
%TO.N,/3.3v*%
X156140000Y-103140000D02*
X156350000Y-102930000D01*
X115940000Y-112130000D02*
X115970000Y-112100000D01*
X136730000Y-101950000D02*
X141600000Y-101950000D01*
X112980000Y-111320000D02*
X115130000Y-111320000D01*
X165990000Y-119340000D02*
X165990000Y-118760000D01*
X128570000Y-92960000D02*
X128570000Y-94380000D01*
X165990000Y-118760000D02*
X166630000Y-118120000D01*
X112460000Y-112610000D02*
X112460000Y-111840000D01*
X132870000Y-101950000D02*
X136730000Y-101950000D01*
X115130000Y-111320000D02*
X115940000Y-112130000D01*
X121850000Y-111200000D02*
X124460000Y-108590000D01*
X148470000Y-108820000D02*
X152300000Y-108820000D01*
X141600000Y-101950000D02*
X146590000Y-106940000D01*
X152300000Y-106980000D02*
X156140000Y-103140000D01*
X115970000Y-112100000D02*
X121120000Y-112100000D01*
X111020000Y-91710000D02*
X127320000Y-91710000D01*
X126860000Y-108590000D02*
X126860000Y-107530000D01*
X112460000Y-111840000D02*
X112980000Y-111320000D01*
X128570000Y-94380000D02*
X131890000Y-97700000D01*
X121120000Y-112100000D02*
X121850000Y-111370000D01*
X132060000Y-102760000D02*
X132730000Y-102090000D01*
X107050000Y-97090000D02*
X107050000Y-112310000D01*
X132730000Y-102090000D02*
X132870000Y-101950000D01*
X127320000Y-91710000D02*
X128570000Y-92960000D01*
X107050000Y-112310000D02*
X106920000Y-112440000D01*
X146590000Y-106940000D02*
X148470000Y-108820000D01*
X129990000Y-102760000D02*
X132060000Y-102760000D01*
X161380000Y-119630000D02*
X161310000Y-119700000D01*
X126860000Y-107530000D02*
X126940000Y-107450000D01*
X165920000Y-111900000D02*
X165210000Y-112610000D01*
X106920000Y-112440000D02*
X107090000Y-112610000D01*
X107090000Y-112610000D02*
X112460000Y-112610000D01*
X156350000Y-102930000D02*
X158660000Y-102930000D01*
X152300000Y-108820000D02*
X152300000Y-106980000D01*
X161310000Y-119700000D02*
X161670000Y-119340000D01*
X161670000Y-119340000D02*
X165990000Y-119340000D01*
X121850000Y-111370000D02*
X121850000Y-111200000D01*
X124460000Y-108590000D02*
X126860000Y-108590000D01*
X165210000Y-112610000D02*
X161380000Y-112610000D01*
X161380000Y-112610000D02*
X161380000Y-119630000D01*
D19*
%TO.N,/+5v*%
X170440000Y-120860000D02*
X170440000Y-110870000D01*
X143560000Y-116760000D02*
X143560000Y-119660000D01*
X146120000Y-105590000D02*
X146120000Y-102220000D01*
X147310000Y-96180000D02*
X147300000Y-96170000D01*
X143560000Y-119660000D02*
X142670000Y-120550000D01*
X142120000Y-120000000D02*
X140360000Y-120000000D01*
X146120000Y-102220000D02*
X147310000Y-101030000D01*
X146460000Y-111760000D02*
X146090000Y-111390000D01*
X143560000Y-114660000D02*
X146460000Y-111760000D01*
X167320000Y-122410000D02*
X169110000Y-122410000D01*
X147310000Y-101030000D02*
X147310000Y-96180000D01*
X169110000Y-122410000D02*
X170550000Y-120970000D01*
X153880000Y-116760000D02*
X143560000Y-116760000D01*
X146090000Y-111390000D02*
X146090000Y-107760000D01*
X156100000Y-118980000D02*
X154090000Y-116970000D01*
X142670000Y-120550000D02*
X142120000Y-120000000D01*
X147300000Y-96170000D02*
X143620000Y-96170000D01*
X156100000Y-122670000D02*
X156100000Y-118980000D01*
X143560000Y-116760000D02*
X143560000Y-114660000D01*
X170550000Y-120970000D02*
X170440000Y-120860000D01*
X143620000Y-96170000D02*
X138810000Y-96170000D01*
X138810000Y-96170000D02*
X138800000Y-96180000D01*
X154090000Y-116970000D02*
X153880000Y-116760000D01*
%TD*%
%TA.AperFunction,Conductor*%
%TO.N,/3.3v*%
G36*
X135454092Y-88890025D02*
G01*
X135500237Y-88942488D01*
X135511216Y-88982535D01*
X135911323Y-92996724D01*
X135902496Y-93056474D01*
X135865151Y-93146635D01*
X135850852Y-93181158D01*
X135847948Y-93188168D01*
X135847947Y-93188171D01*
X135809500Y-93381456D01*
X135809500Y-93381459D01*
X135809500Y-94678541D01*
X135809500Y-94678543D01*
X135809499Y-94678543D01*
X135847947Y-94871829D01*
X135847950Y-94871839D01*
X135923364Y-95053907D01*
X135923371Y-95053920D01*
X136032859Y-95217780D01*
X136032860Y-95217781D01*
X136032861Y-95217782D01*
X136112442Y-95297363D01*
X136145926Y-95358684D01*
X136148149Y-95372744D01*
X136412084Y-98020753D01*
X136399145Y-98089415D01*
X136351140Y-98140181D01*
X136283308Y-98156935D01*
X136241244Y-98147614D01*
X136223497Y-98140263D01*
X136223493Y-98140262D01*
X136223489Y-98140261D01*
X136068845Y-98109500D01*
X136068842Y-98109500D01*
X135911158Y-98109500D01*
X135911155Y-98109500D01*
X135756510Y-98140261D01*
X135756498Y-98140264D01*
X135610827Y-98200602D01*
X135610814Y-98200609D01*
X135479711Y-98288210D01*
X135479707Y-98288213D01*
X135368213Y-98399707D01*
X135368210Y-98399711D01*
X135280609Y-98530814D01*
X135280602Y-98530827D01*
X135220264Y-98676498D01*
X135220261Y-98676510D01*
X135189500Y-98831153D01*
X135189500Y-98988846D01*
X135220261Y-99143489D01*
X135220264Y-99143501D01*
X135280602Y-99289172D01*
X135280609Y-99289185D01*
X135368210Y-99420288D01*
X135368213Y-99420292D01*
X135479707Y-99531786D01*
X135479711Y-99531789D01*
X135610814Y-99619390D01*
X135610818Y-99619392D01*
X135610821Y-99619394D01*
X135713256Y-99661823D01*
X135767656Y-99705662D01*
X135789722Y-99771956D01*
X135780363Y-99823834D01*
X135772226Y-99843479D01*
X135750261Y-99896507D01*
X135750261Y-99896510D01*
X135719500Y-100051153D01*
X135719500Y-100208846D01*
X135750261Y-100363489D01*
X135750264Y-100363501D01*
X135810602Y-100509172D01*
X135810609Y-100509185D01*
X135898210Y-100640288D01*
X135898213Y-100640292D01*
X136009707Y-100751786D01*
X136009711Y-100751789D01*
X136140814Y-100839390D01*
X136140827Y-100839397D01*
X136286498Y-100899735D01*
X136286503Y-100899737D01*
X136441153Y-100930499D01*
X136441156Y-100930500D01*
X136589854Y-100930500D01*
X136656893Y-100950185D01*
X136702648Y-101002989D01*
X136713241Y-101042196D01*
X136720000Y-101110000D01*
X141972240Y-101523936D01*
X142037526Y-101548827D01*
X142078991Y-101605063D01*
X142083470Y-101674789D01*
X142081161Y-101683541D01*
X142080262Y-101686504D01*
X142049500Y-101841153D01*
X142049500Y-101998846D01*
X142080261Y-102153489D01*
X142080264Y-102153501D01*
X142140602Y-102299172D01*
X142140609Y-102299185D01*
X142228210Y-102430288D01*
X142228213Y-102430292D01*
X142339707Y-102541786D01*
X142339711Y-102541789D01*
X142470814Y-102629390D01*
X142470827Y-102629397D01*
X142574775Y-102672453D01*
X142616503Y-102689737D01*
X142771153Y-102720499D01*
X142771156Y-102720500D01*
X142771158Y-102720500D01*
X142928844Y-102720500D01*
X142928845Y-102720499D01*
X143083497Y-102689737D01*
X143229179Y-102629394D01*
X143360289Y-102541789D01*
X143471789Y-102430289D01*
X143559394Y-102299179D01*
X143619737Y-102153497D01*
X143650500Y-101998842D01*
X143650500Y-101841158D01*
X143645085Y-101813936D01*
X143651311Y-101744346D01*
X143694173Y-101689168D01*
X143760062Y-101665922D01*
X143776428Y-101666126D01*
X144344317Y-101710882D01*
X144409601Y-101735773D01*
X144451066Y-101792009D01*
X144458564Y-101836033D01*
X144323138Y-112785656D01*
X144302625Y-112852446D01*
X144286828Y-112871803D01*
X142977050Y-114181580D01*
X142977044Y-114181588D01*
X142927812Y-114255268D01*
X142927813Y-114255269D01*
X142894921Y-114304496D01*
X142894914Y-114304508D01*
X142838342Y-114441086D01*
X142838340Y-114441092D01*
X142809500Y-114586079D01*
X142809500Y-119297768D01*
X142800855Y-119327208D01*
X142794332Y-119357195D01*
X142790577Y-119362210D01*
X142789815Y-119364807D01*
X142773181Y-119385449D01*
X142756196Y-119402434D01*
X142694873Y-119435919D01*
X142625181Y-119430935D01*
X142599625Y-119417856D01*
X142519769Y-119364499D01*
X142519768Y-119364498D01*
X142475500Y-119334919D01*
X142475488Y-119334912D01*
X142338917Y-119278343D01*
X142338907Y-119278340D01*
X142193920Y-119249500D01*
X142193918Y-119249500D01*
X140664604Y-119249500D01*
X140617155Y-119240062D01*
X140593497Y-119230263D01*
X140593493Y-119230262D01*
X140593488Y-119230260D01*
X140438845Y-119199500D01*
X140438842Y-119199500D01*
X140281158Y-119199500D01*
X140281155Y-119199500D01*
X140126510Y-119230261D01*
X140126498Y-119230264D01*
X139980827Y-119290602D01*
X139980814Y-119290609D01*
X139849711Y-119378210D01*
X139849707Y-119378213D01*
X139738213Y-119489707D01*
X139738210Y-119489711D01*
X139650609Y-119620814D01*
X139650604Y-119620823D01*
X139626632Y-119678699D01*
X139582791Y-119733102D01*
X139516497Y-119755167D01*
X139448798Y-119737888D01*
X139401187Y-119686751D01*
X139397510Y-119678699D01*
X139369395Y-119610823D01*
X139369390Y-119610814D01*
X139281789Y-119479711D01*
X139281786Y-119479707D01*
X139170292Y-119368213D01*
X139170288Y-119368210D01*
X139039185Y-119280609D01*
X139039172Y-119280602D01*
X138893501Y-119220264D01*
X138893489Y-119220261D01*
X138738845Y-119189500D01*
X138738842Y-119189500D01*
X138581158Y-119189500D01*
X138581155Y-119189500D01*
X138426510Y-119220261D01*
X138426498Y-119220264D01*
X138280827Y-119280602D01*
X138280814Y-119280609D01*
X138149711Y-119368210D01*
X138149707Y-119368213D01*
X138038213Y-119479707D01*
X138038210Y-119479711D01*
X137950609Y-119610814D01*
X137950602Y-119610827D01*
X137890264Y-119756498D01*
X137890261Y-119756510D01*
X137859500Y-119911153D01*
X137859500Y-120068846D01*
X137890261Y-120223489D01*
X137890264Y-120223501D01*
X137925230Y-120307916D01*
X137932699Y-120377385D01*
X137901424Y-120439864D01*
X137841335Y-120475516D01*
X137786479Y-120476986D01*
X137748842Y-120469500D01*
X137591158Y-120469500D01*
X137591155Y-120469500D01*
X137436510Y-120500261D01*
X137436498Y-120500264D01*
X137290827Y-120560602D01*
X137290814Y-120560609D01*
X137159711Y-120648210D01*
X137159707Y-120648213D01*
X137082681Y-120725240D01*
X137021358Y-120758725D01*
X136951666Y-120753741D01*
X136907319Y-120725240D01*
X136890292Y-120708213D01*
X136890288Y-120708210D01*
X136759185Y-120620609D01*
X136759172Y-120620602D01*
X136613501Y-120560264D01*
X136613489Y-120560261D01*
X136458845Y-120529500D01*
X136458842Y-120529500D01*
X136301158Y-120529500D01*
X136301155Y-120529500D01*
X136146510Y-120560261D01*
X136146498Y-120560264D01*
X136000827Y-120620602D01*
X136000814Y-120620609D01*
X135869711Y-120708210D01*
X135869707Y-120708213D01*
X135758213Y-120819707D01*
X135758210Y-120819711D01*
X135670609Y-120950814D01*
X135670602Y-120950827D01*
X135610264Y-121096498D01*
X135610261Y-121096510D01*
X135579500Y-121251153D01*
X135579500Y-121408846D01*
X135610261Y-121563489D01*
X135610264Y-121563501D01*
X135670602Y-121709172D01*
X135670609Y-121709185D01*
X135758210Y-121840288D01*
X135758213Y-121840292D01*
X135869707Y-121951786D01*
X135869711Y-121951789D01*
X136000814Y-122039390D01*
X136000827Y-122039397D01*
X136146498Y-122099735D01*
X136146503Y-122099737D01*
X136301153Y-122130499D01*
X136301156Y-122130500D01*
X136301158Y-122130500D01*
X136458844Y-122130500D01*
X136458845Y-122130499D01*
X136613497Y-122099737D01*
X136759179Y-122039394D01*
X136890289Y-121951789D01*
X136967320Y-121874757D01*
X137028641Y-121841274D01*
X137098333Y-121846258D01*
X137142683Y-121874761D01*
X137159708Y-121891787D01*
X137159711Y-121891789D01*
X137290814Y-121979390D01*
X137290827Y-121979397D01*
X137435665Y-122039390D01*
X137436503Y-122039737D01*
X137591153Y-122070499D01*
X137591156Y-122070500D01*
X137591158Y-122070500D01*
X137748843Y-122070500D01*
X137810004Y-122058334D01*
X137841308Y-122052107D01*
X137910899Y-122058334D01*
X137966077Y-122101196D01*
X137989322Y-122167086D01*
X137989500Y-122173724D01*
X137989500Y-122258846D01*
X138020261Y-122413489D01*
X138020264Y-122413501D01*
X138080602Y-122559172D01*
X138080609Y-122559185D01*
X138168210Y-122690288D01*
X138168213Y-122690292D01*
X138279707Y-122801786D01*
X138279711Y-122801789D01*
X138410814Y-122889390D01*
X138410827Y-122889397D01*
X138533447Y-122940187D01*
X138556503Y-122949737D01*
X138711153Y-122980499D01*
X138711156Y-122980500D01*
X138711158Y-122980500D01*
X138868844Y-122980500D01*
X138868845Y-122980499D01*
X139023497Y-122949737D01*
X139148868Y-122897807D01*
X139169172Y-122889397D01*
X139169172Y-122889396D01*
X139169179Y-122889394D01*
X139300289Y-122801789D01*
X139411789Y-122690289D01*
X139499394Y-122559179D01*
X139559737Y-122413497D01*
X139590500Y-122258842D01*
X139590500Y-122101158D01*
X139590500Y-122101155D01*
X139590499Y-122101153D01*
X139584402Y-122070500D01*
X139559737Y-121946503D01*
X139530020Y-121874759D01*
X139499397Y-121800827D01*
X139499390Y-121800814D01*
X139411789Y-121669711D01*
X139411786Y-121669707D01*
X139300292Y-121558213D01*
X139300288Y-121558210D01*
X139169185Y-121470609D01*
X139169172Y-121470602D01*
X139023501Y-121410264D01*
X139023489Y-121410261D01*
X138868845Y-121379500D01*
X138868842Y-121379500D01*
X138711158Y-121379500D01*
X138711153Y-121379500D01*
X138618691Y-121397892D01*
X138549099Y-121391665D01*
X138493922Y-121348802D01*
X138470678Y-121282912D01*
X138470500Y-121276275D01*
X138470500Y-121191155D01*
X138470499Y-121191153D01*
X138468715Y-121182183D01*
X138439737Y-121036503D01*
X138404768Y-120952081D01*
X138397300Y-120882615D01*
X138428575Y-120820135D01*
X138488664Y-120784483D01*
X138543522Y-120783014D01*
X138581155Y-120790500D01*
X138581158Y-120790500D01*
X138738844Y-120790500D01*
X138738845Y-120790499D01*
X138893497Y-120759737D01*
X139009262Y-120711786D01*
X139039172Y-120699397D01*
X139039172Y-120699396D01*
X139039179Y-120699394D01*
X139170289Y-120611789D01*
X139281789Y-120500289D01*
X139369394Y-120369179D01*
X139393367Y-120311300D01*
X139437206Y-120256898D01*
X139503500Y-120234832D01*
X139571199Y-120252110D01*
X139618811Y-120303246D01*
X139622489Y-120311300D01*
X139650604Y-120379175D01*
X139650609Y-120379185D01*
X139738210Y-120510288D01*
X139738213Y-120510292D01*
X139849707Y-120621786D01*
X139849711Y-120621789D01*
X139980814Y-120709390D01*
X139980827Y-120709397D01*
X140102363Y-120759738D01*
X140126503Y-120769737D01*
X140275578Y-120799390D01*
X140281153Y-120800499D01*
X140281156Y-120800500D01*
X140281158Y-120800500D01*
X140438844Y-120800500D01*
X140438845Y-120800499D01*
X140519364Y-120784483D01*
X140593488Y-120769739D01*
X140593489Y-120769738D01*
X140593497Y-120769737D01*
X140617155Y-120759937D01*
X140664604Y-120750500D01*
X141757770Y-120750500D01*
X141824809Y-120770185D01*
X141845451Y-120786819D01*
X142082707Y-121024074D01*
X142082717Y-121024085D01*
X142087047Y-121028415D01*
X142087048Y-121028416D01*
X142191584Y-121132952D01*
X142265270Y-121182186D01*
X142314505Y-121215084D01*
X142451087Y-121271658D01*
X142479921Y-121277392D01*
X142479928Y-121277396D01*
X142479929Y-121277394D01*
X142596081Y-121300500D01*
X142596083Y-121300500D01*
X142743919Y-121300500D01*
X142841461Y-121281096D01*
X142888912Y-121271658D01*
X143025494Y-121215084D01*
X143148416Y-121132952D01*
X144017875Y-120263493D01*
X144079198Y-120230008D01*
X144148889Y-120234992D01*
X144204823Y-120276864D01*
X144229240Y-120342328D01*
X144229547Y-120352708D01*
X144121540Y-129085455D01*
X144101027Y-129152245D01*
X144047662Y-129197344D01*
X143995462Y-129207903D01*
X109156945Y-128621463D01*
X109090246Y-128600653D01*
X109045387Y-128547087D01*
X109041755Y-128537758D01*
X108330928Y-126467998D01*
X107337367Y-123574983D01*
X110149500Y-123574983D01*
X110149500Y-125775001D01*
X110149501Y-125775018D01*
X110160000Y-125877796D01*
X110160001Y-125877799D01*
X110208477Y-126024087D01*
X110215186Y-126044334D01*
X110307288Y-126193656D01*
X110431344Y-126317712D01*
X110580666Y-126409814D01*
X110747203Y-126464999D01*
X110849991Y-126475500D01*
X113050008Y-126475499D01*
X113152797Y-126464999D01*
X113319334Y-126409814D01*
X113468656Y-126317712D01*
X113592712Y-126193656D01*
X113684814Y-126044334D01*
X113739999Y-125877797D01*
X113750500Y-125775009D01*
X113750499Y-124556995D01*
X115149500Y-124556995D01*
X115149500Y-124793004D01*
X115149501Y-124793020D01*
X115180306Y-125027010D01*
X115241394Y-125254993D01*
X115331714Y-125473045D01*
X115331719Y-125473056D01*
X115402677Y-125595957D01*
X115449727Y-125677450D01*
X115449729Y-125677453D01*
X115449730Y-125677454D01*
X115593406Y-125864697D01*
X115593412Y-125864704D01*
X115760295Y-126031587D01*
X115760302Y-126031593D01*
X115776909Y-126044336D01*
X115947550Y-126175273D01*
X116078918Y-126251118D01*
X116151943Y-126293280D01*
X116151948Y-126293282D01*
X116151951Y-126293284D01*
X116370007Y-126383606D01*
X116597986Y-126444693D01*
X116831989Y-126475500D01*
X116831996Y-126475500D01*
X117068004Y-126475500D01*
X117068011Y-126475500D01*
X117302014Y-126444693D01*
X117529993Y-126383606D01*
X117748049Y-126293284D01*
X117952450Y-126175273D01*
X118139699Y-126031592D01*
X118306592Y-125864699D01*
X118450273Y-125677450D01*
X118568284Y-125473049D01*
X118658606Y-125254993D01*
X118719693Y-125027014D01*
X118750500Y-124793011D01*
X118750500Y-124556989D01*
X118719693Y-124322986D01*
X118658606Y-124095007D01*
X118568284Y-123876951D01*
X118568282Y-123876948D01*
X118568280Y-123876943D01*
X118526118Y-123803918D01*
X118450273Y-123672550D01*
X118444514Y-123665045D01*
X118425159Y-123639820D01*
X118369653Y-123567483D01*
X121649500Y-123567483D01*
X121649500Y-125767501D01*
X121649501Y-125767518D01*
X121660000Y-125870296D01*
X121660001Y-125870299D01*
X121710962Y-126024087D01*
X121715186Y-126036834D01*
X121807288Y-126186156D01*
X121931344Y-126310212D01*
X122080666Y-126402314D01*
X122247203Y-126457499D01*
X122349991Y-126468000D01*
X124550008Y-126467999D01*
X124652797Y-126457499D01*
X124819334Y-126402314D01*
X124968656Y-126310212D01*
X125092712Y-126186156D01*
X125184814Y-126036834D01*
X125239999Y-125870297D01*
X125250500Y-125767509D01*
X125250499Y-124549495D01*
X126649500Y-124549495D01*
X126649500Y-124785504D01*
X126649501Y-124785520D01*
X126680306Y-125019510D01*
X126741394Y-125247493D01*
X126831714Y-125465545D01*
X126831719Y-125465556D01*
X126902677Y-125588457D01*
X126949727Y-125669950D01*
X126949729Y-125669953D01*
X126949730Y-125669954D01*
X127093406Y-125857197D01*
X127093412Y-125857204D01*
X127260295Y-126024087D01*
X127260302Y-126024093D01*
X127370306Y-126108501D01*
X127447550Y-126167773D01*
X127578918Y-126243618D01*
X127651943Y-126285780D01*
X127651948Y-126285782D01*
X127651951Y-126285784D01*
X127870007Y-126376106D01*
X128097986Y-126437193D01*
X128331989Y-126468000D01*
X128331996Y-126468000D01*
X128568004Y-126468000D01*
X128568011Y-126468000D01*
X128802014Y-126437193D01*
X129029993Y-126376106D01*
X129248049Y-126285784D01*
X129452450Y-126167773D01*
X129639699Y-126024092D01*
X129806592Y-125857199D01*
X129950273Y-125669950D01*
X130068284Y-125465549D01*
X130158606Y-125247493D01*
X130219693Y-125019514D01*
X130250500Y-124785511D01*
X130250500Y-124549489D01*
X130219693Y-124315486D01*
X130158606Y-124087507D01*
X130068284Y-123869451D01*
X130068282Y-123869448D01*
X130068280Y-123869443D01*
X130026118Y-123796418D01*
X129950273Y-123665050D01*
X129812347Y-123485301D01*
X129806593Y-123477802D01*
X129806587Y-123477795D01*
X129639704Y-123310912D01*
X129639697Y-123310906D01*
X129452454Y-123167230D01*
X129452453Y-123167229D01*
X129452450Y-123167227D01*
X129370957Y-123120177D01*
X129248056Y-123049219D01*
X129248045Y-123049214D01*
X129029993Y-122958894D01*
X128830004Y-122905307D01*
X128802014Y-122897807D01*
X128802013Y-122897806D01*
X128802010Y-122897806D01*
X128568020Y-122867001D01*
X128568017Y-122867000D01*
X128568011Y-122867000D01*
X128331989Y-122867000D01*
X128331983Y-122867000D01*
X128331979Y-122867001D01*
X128097989Y-122897806D01*
X127870006Y-122958894D01*
X127651954Y-123049214D01*
X127651943Y-123049219D01*
X127447545Y-123167230D01*
X127260302Y-123310906D01*
X127260295Y-123310912D01*
X127093412Y-123477795D01*
X127093406Y-123477802D01*
X126949730Y-123665045D01*
X126831719Y-123869443D01*
X126831714Y-123869454D01*
X126741394Y-124087506D01*
X126680306Y-124315489D01*
X126649501Y-124549479D01*
X126649500Y-124549495D01*
X125250499Y-124549495D01*
X125250499Y-123567492D01*
X125242102Y-123485295D01*
X125239999Y-123464703D01*
X125239998Y-123464700D01*
X125184814Y-123298166D01*
X125092712Y-123148844D01*
X124968656Y-123024788D01*
X124819334Y-122932686D01*
X124652797Y-122877501D01*
X124652795Y-122877500D01*
X124550010Y-122867000D01*
X122349998Y-122867000D01*
X122349981Y-122867001D01*
X122247203Y-122877500D01*
X122247200Y-122877501D01*
X122080668Y-122932685D01*
X122080663Y-122932687D01*
X121931342Y-123024789D01*
X121807289Y-123148842D01*
X121715187Y-123298163D01*
X121715185Y-123298168D01*
X121710962Y-123310912D01*
X121660001Y-123464703D01*
X121660001Y-123464704D01*
X121660000Y-123464704D01*
X121649500Y-123567483D01*
X118369653Y-123567483D01*
X118306593Y-123485302D01*
X118306587Y-123485295D01*
X118139704Y-123318412D01*
X118139697Y-123318406D01*
X117952454Y-123174730D01*
X117952453Y-123174729D01*
X117952450Y-123174727D01*
X117870957Y-123127677D01*
X117748056Y-123056719D01*
X117748045Y-123056714D01*
X117529993Y-122966394D01*
X117302010Y-122905306D01*
X117068020Y-122874501D01*
X117068017Y-122874500D01*
X117068011Y-122874500D01*
X116831989Y-122874500D01*
X116831983Y-122874500D01*
X116831979Y-122874501D01*
X116597989Y-122905306D01*
X116370006Y-122966394D01*
X116151954Y-123056714D01*
X116151943Y-123056719D01*
X115947545Y-123174730D01*
X115760302Y-123318406D01*
X115760295Y-123318412D01*
X115593412Y-123485295D01*
X115593406Y-123485302D01*
X115449730Y-123672545D01*
X115331719Y-123876943D01*
X115331714Y-123876954D01*
X115241394Y-124095006D01*
X115180306Y-124322989D01*
X115149501Y-124556979D01*
X115149500Y-124556995D01*
X113750499Y-124556995D01*
X113750499Y-123574992D01*
X113749733Y-123567498D01*
X113739999Y-123472203D01*
X113739998Y-123472200D01*
X113737513Y-123464700D01*
X113684814Y-123305666D01*
X113592712Y-123156344D01*
X113468656Y-123032288D01*
X113349665Y-122958894D01*
X113319336Y-122940187D01*
X113319331Y-122940185D01*
X113317862Y-122939698D01*
X113152797Y-122885001D01*
X113152795Y-122885000D01*
X113050010Y-122874500D01*
X110849998Y-122874500D01*
X110849981Y-122874501D01*
X110747203Y-122885000D01*
X110747200Y-122885001D01*
X110580668Y-122940185D01*
X110580663Y-122940187D01*
X110431342Y-123032289D01*
X110307289Y-123156342D01*
X110215187Y-123305663D01*
X110215185Y-123305668D01*
X110210962Y-123318412D01*
X110160001Y-123472203D01*
X110160001Y-123472204D01*
X110160000Y-123472204D01*
X110149500Y-123574983D01*
X107337367Y-123574983D01*
X107334791Y-123567481D01*
X106988508Y-122559185D01*
X106113426Y-120011153D01*
X127599500Y-120011153D01*
X127599500Y-120168846D01*
X127630261Y-120323489D01*
X127630264Y-120323501D01*
X127690602Y-120469172D01*
X127690609Y-120469185D01*
X127778210Y-120600288D01*
X127778213Y-120600292D01*
X127889707Y-120711786D01*
X127889711Y-120711789D01*
X128020814Y-120799390D01*
X128020827Y-120799397D01*
X128166498Y-120859735D01*
X128166503Y-120859737D01*
X128281518Y-120882615D01*
X128321153Y-120890499D01*
X128321156Y-120890500D01*
X128321158Y-120890500D01*
X128478844Y-120890500D01*
X128478845Y-120890499D01*
X128633497Y-120859737D01*
X128779179Y-120799394D01*
X128910289Y-120711789D01*
X129021789Y-120600289D01*
X129109394Y-120469179D01*
X129169737Y-120323497D01*
X129200500Y-120168842D01*
X129200500Y-120011158D01*
X129200500Y-120011155D01*
X129200499Y-120011153D01*
X129182598Y-119921158D01*
X129169737Y-119856503D01*
X129127763Y-119755167D01*
X129109397Y-119710827D01*
X129109390Y-119710814D01*
X129021789Y-119579711D01*
X129021786Y-119579707D01*
X128910292Y-119468213D01*
X128910288Y-119468210D01*
X128779185Y-119380609D01*
X128779172Y-119380602D01*
X128633501Y-119320264D01*
X128633489Y-119320261D01*
X128478845Y-119289500D01*
X128478842Y-119289500D01*
X128321158Y-119289500D01*
X128321155Y-119289500D01*
X128166510Y-119320261D01*
X128166498Y-119320264D01*
X128020827Y-119380602D01*
X128020814Y-119380609D01*
X127889711Y-119468210D01*
X127889707Y-119468213D01*
X127778213Y-119579707D01*
X127778210Y-119579711D01*
X127690609Y-119710814D01*
X127690602Y-119710827D01*
X127630264Y-119856498D01*
X127630261Y-119856510D01*
X127599500Y-120011153D01*
X106113426Y-120011153D01*
X106016510Y-119728955D01*
X106009794Y-119689952D01*
X106007133Y-119430935D01*
X105984430Y-117221153D01*
X108629500Y-117221153D01*
X108629500Y-117378846D01*
X108660261Y-117533489D01*
X108660264Y-117533501D01*
X108720602Y-117679172D01*
X108720609Y-117679185D01*
X108808210Y-117810288D01*
X108808213Y-117810292D01*
X108919707Y-117921786D01*
X108919711Y-117921789D01*
X109050814Y-118009390D01*
X109050827Y-118009397D01*
X109196498Y-118069735D01*
X109196503Y-118069737D01*
X109347312Y-118099735D01*
X109351153Y-118100499D01*
X109351156Y-118100500D01*
X109351158Y-118100500D01*
X109508844Y-118100500D01*
X109508845Y-118100499D01*
X109663497Y-118069737D01*
X109809179Y-118009394D01*
X109940289Y-117921789D01*
X109942313Y-117919764D01*
X109943633Y-117919043D01*
X109944993Y-117917928D01*
X109945204Y-117918185D01*
X110003631Y-117886276D01*
X110073323Y-117891255D01*
X110117680Y-117919759D01*
X110149707Y-117951786D01*
X110149711Y-117951789D01*
X110280814Y-118039390D01*
X110280827Y-118039397D01*
X110426498Y-118099735D01*
X110426503Y-118099737D01*
X110581153Y-118130499D01*
X110581156Y-118130500D01*
X110581158Y-118130500D01*
X110738844Y-118130500D01*
X110738845Y-118130499D01*
X110893497Y-118099737D01*
X111039179Y-118039394D01*
X111170289Y-117951789D01*
X111281789Y-117840289D01*
X111369394Y-117709179D01*
X111429737Y-117563497D01*
X111460500Y-117408842D01*
X111460500Y-117391153D01*
X113349500Y-117391153D01*
X113349500Y-117548846D01*
X113380261Y-117703489D01*
X113380264Y-117703501D01*
X113440602Y-117849172D01*
X113440609Y-117849185D01*
X113528210Y-117980288D01*
X113528213Y-117980292D01*
X113639707Y-118091786D01*
X113639711Y-118091789D01*
X113770814Y-118179390D01*
X113770827Y-118179397D01*
X113916498Y-118239735D01*
X113916503Y-118239737D01*
X114071153Y-118270499D01*
X114071156Y-118270500D01*
X114071158Y-118270500D01*
X114228844Y-118270500D01*
X114228845Y-118270499D01*
X114383497Y-118239737D01*
X114529179Y-118179394D01*
X114660289Y-118091789D01*
X114771789Y-117980289D01*
X114859394Y-117849179D01*
X114919737Y-117703497D01*
X114950500Y-117548842D01*
X114950500Y-117431153D01*
X117739500Y-117431153D01*
X117739500Y-117588846D01*
X117770261Y-117743489D01*
X117770264Y-117743501D01*
X117830602Y-117889172D01*
X117830609Y-117889185D01*
X117918210Y-118020288D01*
X117918213Y-118020292D01*
X118029707Y-118131786D01*
X118029711Y-118131789D01*
X118160814Y-118219390D01*
X118160827Y-118219397D01*
X118306498Y-118279735D01*
X118306503Y-118279737D01*
X118461153Y-118310499D01*
X118461156Y-118310500D01*
X118461158Y-118310500D01*
X118618844Y-118310500D01*
X118618845Y-118310499D01*
X118773497Y-118279737D01*
X118919179Y-118219394D01*
X119050289Y-118131789D01*
X119161789Y-118020289D01*
X119249394Y-117889179D01*
X119250597Y-117886276D01*
X119265965Y-117849172D01*
X119309737Y-117743497D01*
X119340500Y-117588842D01*
X119340500Y-117431158D01*
X119340500Y-117431155D01*
X119340499Y-117431153D01*
X119330094Y-117378846D01*
X119309737Y-117276503D01*
X119293961Y-117238416D01*
X119249397Y-117130827D01*
X119249390Y-117130814D01*
X119161789Y-116999711D01*
X119161786Y-116999707D01*
X119050292Y-116888213D01*
X119050288Y-116888210D01*
X118919185Y-116800609D01*
X118919172Y-116800602D01*
X118773501Y-116740264D01*
X118773489Y-116740261D01*
X118618845Y-116709500D01*
X118618842Y-116709500D01*
X118461158Y-116709500D01*
X118461155Y-116709500D01*
X118306510Y-116740261D01*
X118306498Y-116740264D01*
X118160827Y-116800602D01*
X118160814Y-116800609D01*
X118029711Y-116888210D01*
X118029707Y-116888213D01*
X117918213Y-116999707D01*
X117918210Y-116999711D01*
X117830609Y-117130814D01*
X117830602Y-117130827D01*
X117770264Y-117276498D01*
X117770261Y-117276510D01*
X117739500Y-117431153D01*
X114950500Y-117431153D01*
X114950500Y-117391158D01*
X114950500Y-117391155D01*
X114950499Y-117391153D01*
X114927695Y-117276510D01*
X114919737Y-117236503D01*
X114875965Y-117130827D01*
X114859397Y-117090827D01*
X114859390Y-117090814D01*
X114771789Y-116959711D01*
X114771786Y-116959707D01*
X114660292Y-116848213D01*
X114660288Y-116848210D01*
X114529185Y-116760609D01*
X114529172Y-116760602D01*
X114383501Y-116700264D01*
X114383489Y-116700261D01*
X114228845Y-116669500D01*
X114228842Y-116669500D01*
X114071158Y-116669500D01*
X114071155Y-116669500D01*
X113916510Y-116700261D01*
X113916498Y-116700264D01*
X113770827Y-116760602D01*
X113770814Y-116760609D01*
X113639711Y-116848210D01*
X113639707Y-116848213D01*
X113528213Y-116959707D01*
X113528210Y-116959711D01*
X113440609Y-117090814D01*
X113440602Y-117090827D01*
X113380264Y-117236498D01*
X113380261Y-117236510D01*
X113349500Y-117391153D01*
X111460500Y-117391153D01*
X111460500Y-117251158D01*
X111460500Y-117251155D01*
X111460499Y-117251153D01*
X111454532Y-117221153D01*
X111429737Y-117096503D01*
X111427386Y-117090827D01*
X111369397Y-116950827D01*
X111369390Y-116950814D01*
X111281789Y-116819711D01*
X111281786Y-116819707D01*
X111170292Y-116708213D01*
X111170288Y-116708210D01*
X111039185Y-116620609D01*
X111039172Y-116620602D01*
X110893501Y-116560264D01*
X110893489Y-116560261D01*
X110738845Y-116529500D01*
X110738842Y-116529500D01*
X110581158Y-116529500D01*
X110581155Y-116529500D01*
X110426510Y-116560261D01*
X110426498Y-116560264D01*
X110280827Y-116620602D01*
X110280814Y-116620609D01*
X110149714Y-116708208D01*
X110149706Y-116708215D01*
X110147674Y-116710247D01*
X110146349Y-116710970D01*
X110145007Y-116712072D01*
X110144797Y-116711817D01*
X110086349Y-116743727D01*
X110016657Y-116738737D01*
X109972319Y-116710240D01*
X109940292Y-116678213D01*
X109940288Y-116678210D01*
X109809185Y-116590609D01*
X109809172Y-116590602D01*
X109663501Y-116530264D01*
X109663489Y-116530261D01*
X109508845Y-116499500D01*
X109508842Y-116499500D01*
X109351158Y-116499500D01*
X109351155Y-116499500D01*
X109196510Y-116530261D01*
X109196498Y-116530264D01*
X109050827Y-116590602D01*
X109050814Y-116590609D01*
X108919711Y-116678210D01*
X108919707Y-116678213D01*
X108808213Y-116789707D01*
X108808210Y-116789711D01*
X108720609Y-116920814D01*
X108720602Y-116920827D01*
X108660264Y-117066498D01*
X108660261Y-117066510D01*
X108629500Y-117221153D01*
X105984430Y-117221153D01*
X105966348Y-115461153D01*
X124039500Y-115461153D01*
X124039500Y-115618846D01*
X124070261Y-115773489D01*
X124070264Y-115773501D01*
X124130602Y-115919172D01*
X124130609Y-115919185D01*
X124218210Y-116050288D01*
X124218213Y-116050292D01*
X124329707Y-116161786D01*
X124329711Y-116161789D01*
X124460814Y-116249390D01*
X124460827Y-116249397D01*
X124606498Y-116309735D01*
X124606503Y-116309737D01*
X124761153Y-116340499D01*
X124761156Y-116340500D01*
X124761158Y-116340500D01*
X124918844Y-116340500D01*
X124918845Y-116340499D01*
X125073497Y-116309737D01*
X125219179Y-116249394D01*
X125350289Y-116161789D01*
X125461789Y-116050289D01*
X125549394Y-115919179D01*
X125609737Y-115773497D01*
X125640500Y-115618842D01*
X125640500Y-115461158D01*
X125640500Y-115461155D01*
X125640499Y-115461153D01*
X125609738Y-115306510D01*
X125609737Y-115306503D01*
X125609735Y-115306498D01*
X125549397Y-115160827D01*
X125549390Y-115160814D01*
X125461789Y-115029711D01*
X125461786Y-115029707D01*
X125350292Y-114918213D01*
X125350288Y-114918210D01*
X125219185Y-114830609D01*
X125219172Y-114830602D01*
X125073501Y-114770264D01*
X125073489Y-114770261D01*
X124918845Y-114739500D01*
X124918842Y-114739500D01*
X124761158Y-114739500D01*
X124761155Y-114739500D01*
X124606510Y-114770261D01*
X124606498Y-114770264D01*
X124460827Y-114830602D01*
X124460814Y-114830609D01*
X124329711Y-114918210D01*
X124329707Y-114918213D01*
X124218213Y-115029707D01*
X124218210Y-115029711D01*
X124130609Y-115160814D01*
X124130602Y-115160827D01*
X124070264Y-115306498D01*
X124070261Y-115306510D01*
X124039500Y-115461153D01*
X105966348Y-115461153D01*
X105953197Y-114181153D01*
X114719500Y-114181153D01*
X114719500Y-114338846D01*
X114750261Y-114493489D01*
X114750264Y-114493501D01*
X114810602Y-114639172D01*
X114810609Y-114639185D01*
X114898210Y-114770288D01*
X114898213Y-114770292D01*
X115009707Y-114881786D01*
X115009711Y-114881789D01*
X115140814Y-114969390D01*
X115140827Y-114969397D01*
X115286440Y-115029711D01*
X115286503Y-115029737D01*
X115441153Y-115060499D01*
X115441156Y-115060500D01*
X115441158Y-115060500D01*
X115598844Y-115060500D01*
X115598845Y-115060499D01*
X115753497Y-115029737D01*
X115899179Y-114969394D01*
X116030289Y-114881789D01*
X116141789Y-114770289D01*
X116229394Y-114639179D01*
X116289737Y-114493497D01*
X116320500Y-114338842D01*
X116320500Y-114181158D01*
X116320500Y-114181155D01*
X116320499Y-114181153D01*
X116289738Y-114026510D01*
X116289737Y-114026503D01*
X116276062Y-113993489D01*
X116229397Y-113880827D01*
X116229390Y-113880814D01*
X116141790Y-113749712D01*
X116141784Y-113749705D01*
X116073232Y-113681153D01*
X128609500Y-113681153D01*
X128609500Y-113838846D01*
X128640261Y-113993489D01*
X128640264Y-113993501D01*
X128700602Y-114139172D01*
X128700609Y-114139185D01*
X128788210Y-114270288D01*
X128788213Y-114270292D01*
X128899707Y-114381786D01*
X128899711Y-114381789D01*
X129030814Y-114469390D01*
X129030827Y-114469397D01*
X129176498Y-114529735D01*
X129176503Y-114529737D01*
X129331153Y-114560499D01*
X129331156Y-114560500D01*
X129331158Y-114560500D01*
X129488844Y-114560500D01*
X129488845Y-114560499D01*
X129643497Y-114529737D01*
X129789179Y-114469394D01*
X129920289Y-114381789D01*
X130031789Y-114270289D01*
X130119394Y-114139179D01*
X130179737Y-113993497D01*
X130210500Y-113838842D01*
X130210500Y-113681158D01*
X130210500Y-113681155D01*
X130210499Y-113681153D01*
X130184531Y-113550606D01*
X130179737Y-113526503D01*
X130179735Y-113526498D01*
X130119397Y-113380827D01*
X130119390Y-113380814D01*
X130031789Y-113249711D01*
X130031786Y-113249707D01*
X129920292Y-113138213D01*
X129920288Y-113138210D01*
X129789185Y-113050609D01*
X129789172Y-113050602D01*
X129643501Y-112990264D01*
X129643489Y-112990261D01*
X129488845Y-112959500D01*
X129488842Y-112959500D01*
X129331158Y-112959500D01*
X129331155Y-112959500D01*
X129176510Y-112990261D01*
X129176498Y-112990264D01*
X129030827Y-113050602D01*
X129030814Y-113050609D01*
X128899711Y-113138210D01*
X128899707Y-113138213D01*
X128788213Y-113249707D01*
X128788210Y-113249711D01*
X128700609Y-113380814D01*
X128700602Y-113380827D01*
X128640264Y-113526498D01*
X128640261Y-113526510D01*
X128609500Y-113681153D01*
X116073232Y-113681153D01*
X116030292Y-113638213D01*
X116030288Y-113638210D01*
X115899185Y-113550609D01*
X115899172Y-113550602D01*
X115753501Y-113490264D01*
X115753489Y-113490261D01*
X115598845Y-113459500D01*
X115598842Y-113459500D01*
X115441158Y-113459500D01*
X115441155Y-113459500D01*
X115286510Y-113490261D01*
X115286498Y-113490264D01*
X115140827Y-113550602D01*
X115140814Y-113550609D01*
X115009711Y-113638210D01*
X115009707Y-113638213D01*
X114898213Y-113749707D01*
X114898210Y-113749711D01*
X114810609Y-113880814D01*
X114810602Y-113880827D01*
X114750264Y-114026498D01*
X114750261Y-114026510D01*
X114719500Y-114181153D01*
X105953197Y-114181153D01*
X105868334Y-105921153D01*
X110059500Y-105921153D01*
X110059500Y-106078846D01*
X110090261Y-106233489D01*
X110090264Y-106233501D01*
X110150602Y-106379172D01*
X110150609Y-106379185D01*
X110238210Y-106510288D01*
X110238213Y-106510292D01*
X110349707Y-106621786D01*
X110349711Y-106621789D01*
X110480814Y-106709390D01*
X110480827Y-106709397D01*
X110626498Y-106769735D01*
X110626503Y-106769737D01*
X110781153Y-106800499D01*
X110781156Y-106800500D01*
X110781158Y-106800500D01*
X110938844Y-106800500D01*
X110938845Y-106800499D01*
X111093497Y-106769737D01*
X111239179Y-106709394D01*
X111370289Y-106621789D01*
X111481789Y-106510289D01*
X111569394Y-106379179D01*
X111629737Y-106233497D01*
X111660500Y-106078842D01*
X111660500Y-105921158D01*
X111660500Y-105921155D01*
X111660499Y-105921153D01*
X111629738Y-105766510D01*
X111629737Y-105766503D01*
X111629735Y-105766498D01*
X111569397Y-105620827D01*
X111569390Y-105620814D01*
X111509076Y-105530548D01*
X111488198Y-105463870D01*
X111506683Y-105396490D01*
X111554493Y-105353543D01*
X111553809Y-105352264D01*
X111559172Y-105349396D01*
X111559179Y-105349394D01*
X111690289Y-105261789D01*
X111801789Y-105150289D01*
X111889394Y-105019179D01*
X111949737Y-104873497D01*
X111980500Y-104718842D01*
X111980500Y-104561158D01*
X111980500Y-104561155D01*
X111980499Y-104561153D01*
X111949738Y-104406510D01*
X111949737Y-104406503D01*
X111949735Y-104406498D01*
X111889397Y-104260827D01*
X111889390Y-104260814D01*
X111801789Y-104129711D01*
X111801786Y-104129707D01*
X111690292Y-104018213D01*
X111690288Y-104018210D01*
X111559185Y-103930609D01*
X111559172Y-103930602D01*
X111413501Y-103870264D01*
X111413489Y-103870261D01*
X111258845Y-103839500D01*
X111258842Y-103839500D01*
X111101158Y-103839500D01*
X111101155Y-103839500D01*
X110946510Y-103870261D01*
X110946498Y-103870264D01*
X110800827Y-103930602D01*
X110800814Y-103930609D01*
X110669711Y-104018210D01*
X110669707Y-104018213D01*
X110558213Y-104129707D01*
X110558210Y-104129711D01*
X110470609Y-104260814D01*
X110470602Y-104260827D01*
X110410264Y-104406498D01*
X110410261Y-104406510D01*
X110379500Y-104561153D01*
X110379500Y-104718846D01*
X110410261Y-104873489D01*
X110410264Y-104873501D01*
X110470602Y-105019172D01*
X110470609Y-105019185D01*
X110530923Y-105109451D01*
X110551801Y-105176129D01*
X110533316Y-105243509D01*
X110485505Y-105286454D01*
X110486191Y-105287736D01*
X110480814Y-105290609D01*
X110349711Y-105378210D01*
X110349707Y-105378213D01*
X110238213Y-105489707D01*
X110238210Y-105489711D01*
X110150609Y-105620814D01*
X110150602Y-105620827D01*
X110090264Y-105766498D01*
X110090261Y-105766510D01*
X110059500Y-105921153D01*
X105868334Y-105921153D01*
X105837615Y-102931153D01*
X105835765Y-102751153D01*
X106940500Y-102751153D01*
X106940500Y-102908846D01*
X106971261Y-103063489D01*
X106971264Y-103063501D01*
X107031602Y-103209172D01*
X107031609Y-103209185D01*
X107119210Y-103340288D01*
X107119213Y-103340292D01*
X107230707Y-103451786D01*
X107230711Y-103451789D01*
X107361814Y-103539390D01*
X107361827Y-103539397D01*
X107467895Y-103583331D01*
X107507503Y-103599737D01*
X107662153Y-103630499D01*
X107662156Y-103630500D01*
X107662158Y-103630500D01*
X107819844Y-103630500D01*
X107819845Y-103630499D01*
X107974497Y-103599737D01*
X108120179Y-103539394D01*
X108251289Y-103451789D01*
X108362789Y-103340289D01*
X108450394Y-103209179D01*
X108462003Y-103181153D01*
X121519500Y-103181153D01*
X121519500Y-103338846D01*
X121550261Y-103493489D01*
X121550264Y-103493501D01*
X121610602Y-103639172D01*
X121610609Y-103639185D01*
X121698210Y-103770288D01*
X121698213Y-103770292D01*
X121809707Y-103881786D01*
X121809711Y-103881789D01*
X121940814Y-103969390D01*
X121940827Y-103969397D01*
X122058681Y-104018213D01*
X122086503Y-104029737D01*
X122241153Y-104060499D01*
X122241156Y-104060500D01*
X122241158Y-104060500D01*
X122398844Y-104060500D01*
X122398845Y-104060499D01*
X122553497Y-104029737D01*
X122699179Y-103969394D01*
X122830289Y-103881789D01*
X122941789Y-103770289D01*
X123029394Y-103639179D01*
X123029396Y-103639172D01*
X123032264Y-103633809D01*
X123034213Y-103634851D01*
X123071796Y-103588174D01*
X123138081Y-103566081D01*
X123205787Y-103583331D01*
X123230240Y-103602319D01*
X123259707Y-103631786D01*
X123259711Y-103631789D01*
X123390814Y-103719390D01*
X123390827Y-103719397D01*
X123536498Y-103779735D01*
X123536503Y-103779737D01*
X123691153Y-103810499D01*
X123691156Y-103810500D01*
X123691158Y-103810500D01*
X123848844Y-103810500D01*
X123848845Y-103810499D01*
X124003497Y-103779737D01*
X124149179Y-103719394D01*
X124280289Y-103631789D01*
X124391789Y-103520289D01*
X124479394Y-103389179D01*
X124539737Y-103243497D01*
X124570500Y-103088842D01*
X124570500Y-102931158D01*
X124570500Y-102931155D01*
X124570499Y-102931153D01*
X124539738Y-102776510D01*
X124539737Y-102776503D01*
X124496637Y-102672451D01*
X124489169Y-102602983D01*
X124496638Y-102577547D01*
X124539737Y-102473497D01*
X124570500Y-102318842D01*
X124570500Y-102161158D01*
X124570500Y-102161155D01*
X124570499Y-102161153D01*
X124554830Y-102082380D01*
X124539737Y-102006503D01*
X124479587Y-101861286D01*
X124479397Y-101860827D01*
X124479390Y-101860814D01*
X124391789Y-101729711D01*
X124391786Y-101729707D01*
X124280292Y-101618213D01*
X124280288Y-101618210D01*
X124149185Y-101530609D01*
X124149172Y-101530602D01*
X124003501Y-101470264D01*
X124003489Y-101470261D01*
X123848845Y-101439500D01*
X123848842Y-101439500D01*
X123691158Y-101439500D01*
X123691155Y-101439500D01*
X123536510Y-101470261D01*
X123536498Y-101470264D01*
X123390827Y-101530602D01*
X123390814Y-101530609D01*
X123259711Y-101618210D01*
X123259707Y-101618213D01*
X123148213Y-101729707D01*
X123148208Y-101729713D01*
X123132519Y-101753194D01*
X123078907Y-101797998D01*
X123009582Y-101806705D01*
X122960527Y-101787404D01*
X122907793Y-101752168D01*
X122907780Y-101752161D01*
X122762109Y-101691823D01*
X122762097Y-101691820D01*
X122607453Y-101661059D01*
X122607450Y-101661059D01*
X122449766Y-101661059D01*
X122449763Y-101661059D01*
X122295118Y-101691820D01*
X122295106Y-101691823D01*
X122149435Y-101752161D01*
X122149422Y-101752168D01*
X122018319Y-101839769D01*
X122018315Y-101839772D01*
X121906821Y-101951266D01*
X121906818Y-101951270D01*
X121819217Y-102082373D01*
X121819210Y-102082386D01*
X121758872Y-102228057D01*
X121758869Y-102228069D01*
X121728108Y-102382712D01*
X121728108Y-102540405D01*
X121744943Y-102625041D01*
X121738716Y-102694633D01*
X121711012Y-102736908D01*
X121698214Y-102749707D01*
X121698208Y-102749714D01*
X121610609Y-102880814D01*
X121610602Y-102880827D01*
X121550264Y-103026498D01*
X121550261Y-103026510D01*
X121519500Y-103181153D01*
X108462003Y-103181153D01*
X108510737Y-103063497D01*
X108541500Y-102908842D01*
X108541500Y-102751158D01*
X108541500Y-102751155D01*
X108541499Y-102751153D01*
X108535402Y-102720500D01*
X108510737Y-102596503D01*
X108459787Y-102473497D01*
X108450397Y-102450827D01*
X108450390Y-102450814D01*
X108362789Y-102319711D01*
X108362786Y-102319707D01*
X108251292Y-102208213D01*
X108251288Y-102208210D01*
X108120185Y-102120609D01*
X108120172Y-102120602D01*
X107974501Y-102060264D01*
X107974489Y-102060261D01*
X107819845Y-102029500D01*
X107819842Y-102029500D01*
X107662158Y-102029500D01*
X107662155Y-102029500D01*
X107507510Y-102060261D01*
X107507498Y-102060264D01*
X107361827Y-102120602D01*
X107361814Y-102120609D01*
X107230711Y-102208210D01*
X107230707Y-102208213D01*
X107119213Y-102319707D01*
X107119210Y-102319711D01*
X107031609Y-102450814D01*
X107031602Y-102450827D01*
X106971264Y-102596498D01*
X106971261Y-102596510D01*
X106940500Y-102751153D01*
X105835765Y-102751153D01*
X105835716Y-102746340D01*
X105805868Y-99841153D01*
X106879500Y-99841153D01*
X106879500Y-99998846D01*
X106910261Y-100153489D01*
X106910264Y-100153501D01*
X106970602Y-100299172D01*
X106970609Y-100299185D01*
X107058210Y-100430288D01*
X107058213Y-100430292D01*
X107169707Y-100541786D01*
X107169711Y-100541789D01*
X107300814Y-100629390D01*
X107300827Y-100629397D01*
X107446498Y-100689735D01*
X107446503Y-100689737D01*
X107601153Y-100720499D01*
X107601156Y-100720500D01*
X107601158Y-100720500D01*
X107758844Y-100720500D01*
X107758845Y-100720499D01*
X107913497Y-100689737D01*
X108059179Y-100629394D01*
X108190289Y-100541789D01*
X108301789Y-100430289D01*
X108389394Y-100299179D01*
X108449737Y-100153497D01*
X108480500Y-99998842D01*
X108480500Y-99841158D01*
X108480500Y-99841155D01*
X108480499Y-99841153D01*
X108476380Y-99820444D01*
X108449737Y-99686503D01*
X108449735Y-99686498D01*
X108389397Y-99540827D01*
X108389390Y-99540814D01*
X108301789Y-99409711D01*
X108301786Y-99409707D01*
X108190292Y-99298213D01*
X108190288Y-99298210D01*
X108059185Y-99210609D01*
X108059172Y-99210602D01*
X107913501Y-99150264D01*
X107913489Y-99150261D01*
X107758845Y-99119500D01*
X107758842Y-99119500D01*
X107601158Y-99119500D01*
X107601155Y-99119500D01*
X107446510Y-99150261D01*
X107446498Y-99150264D01*
X107300827Y-99210602D01*
X107300814Y-99210609D01*
X107169711Y-99298210D01*
X107169707Y-99298213D01*
X107058213Y-99409707D01*
X107058210Y-99409711D01*
X106970609Y-99540814D01*
X106970602Y-99540827D01*
X106910264Y-99686498D01*
X106910261Y-99686510D01*
X106879500Y-99841153D01*
X105805868Y-99841153D01*
X105805819Y-99836340D01*
X105800007Y-99270681D01*
X105800000Y-99269407D01*
X105800000Y-96558995D01*
X114639499Y-96558995D01*
X114666418Y-96694322D01*
X114666421Y-96694332D01*
X114719221Y-96821804D01*
X114719228Y-96821817D01*
X114795885Y-96936541D01*
X114795888Y-96936545D01*
X114893454Y-97034111D01*
X114893458Y-97034114D01*
X114972453Y-97086898D01*
X115017258Y-97140511D01*
X115025965Y-97209836D01*
X114995810Y-97272863D01*
X114972453Y-97293102D01*
X114893458Y-97345885D01*
X114893454Y-97345888D01*
X114795888Y-97443454D01*
X114795885Y-97443458D01*
X114719228Y-97558182D01*
X114719221Y-97558195D01*
X114666421Y-97685667D01*
X114666418Y-97685677D01*
X114639500Y-97821004D01*
X114639500Y-97821007D01*
X114639500Y-97958993D01*
X114639500Y-97958995D01*
X114639499Y-97958995D01*
X114666418Y-98094322D01*
X114666421Y-98094332D01*
X114719221Y-98221804D01*
X114719228Y-98221817D01*
X114795885Y-98336541D01*
X114795888Y-98336545D01*
X114893454Y-98434111D01*
X114893458Y-98434114D01*
X115008182Y-98510771D01*
X115008195Y-98510778D01*
X115135667Y-98563578D01*
X115135672Y-98563580D01*
X115180283Y-98572453D01*
X115246873Y-98585700D01*
X115308784Y-98618085D01*
X115343359Y-98678801D01*
X115344299Y-98683125D01*
X115366418Y-98794322D01*
X115366421Y-98794332D01*
X115419221Y-98921804D01*
X115419228Y-98921817D01*
X115495885Y-99036541D01*
X115495888Y-99036545D01*
X115593454Y-99134111D01*
X115593458Y-99134114D01*
X115708182Y-99210771D01*
X115708195Y-99210778D01*
X115835667Y-99263578D01*
X115835672Y-99263580D01*
X115835676Y-99263580D01*
X115835677Y-99263581D01*
X115971004Y-99290500D01*
X115971007Y-99290500D01*
X116108995Y-99290500D01*
X116215034Y-99269407D01*
X116244328Y-99263580D01*
X116371811Y-99210775D01*
X116486542Y-99134114D01*
X116584114Y-99036542D01*
X116630273Y-98967461D01*
X116636898Y-98957546D01*
X116690510Y-98912741D01*
X116759835Y-98904034D01*
X116822863Y-98934189D01*
X116843102Y-98957546D01*
X116895885Y-99036541D01*
X116895888Y-99036545D01*
X116993454Y-99134111D01*
X116993458Y-99134114D01*
X117108182Y-99210771D01*
X117108195Y-99210778D01*
X117235667Y-99263578D01*
X117235672Y-99263580D01*
X117235676Y-99263580D01*
X117235677Y-99263581D01*
X117371004Y-99290500D01*
X117371007Y-99290500D01*
X117508995Y-99290500D01*
X117615034Y-99269407D01*
X117644328Y-99263580D01*
X117771811Y-99210775D01*
X117886542Y-99134114D01*
X117984114Y-99036542D01*
X118060775Y-98921811D01*
X118060819Y-98921706D01*
X118090401Y-98850288D01*
X118113580Y-98794328D01*
X118135700Y-98683126D01*
X118168085Y-98621215D01*
X118228800Y-98586641D01*
X118233126Y-98585700D01*
X118277104Y-98576951D01*
X118344328Y-98563580D01*
X118471811Y-98510775D01*
X118586542Y-98434114D01*
X118684114Y-98336542D01*
X118734487Y-98261153D01*
X127740500Y-98261153D01*
X127740500Y-98418846D01*
X127771261Y-98573489D01*
X127771264Y-98573501D01*
X127831602Y-98719172D01*
X127831609Y-98719185D01*
X127919210Y-98850288D01*
X127919213Y-98850292D01*
X128030707Y-98961786D01*
X128030711Y-98961789D01*
X128161814Y-99049390D01*
X128161827Y-99049397D01*
X128307498Y-99109735D01*
X128307503Y-99109737D01*
X128444472Y-99136982D01*
X128462153Y-99140499D01*
X128462156Y-99140500D01*
X128462158Y-99140500D01*
X128619844Y-99140500D01*
X128619845Y-99140499D01*
X128774497Y-99109737D01*
X128920179Y-99049394D01*
X129036217Y-98971860D01*
X130810207Y-98971860D01*
X130810207Y-99129553D01*
X130840968Y-99284196D01*
X130840971Y-99284208D01*
X130901309Y-99429879D01*
X130901316Y-99429892D01*
X130988917Y-99560995D01*
X130988920Y-99560999D01*
X131100414Y-99672493D01*
X131100418Y-99672496D01*
X131231521Y-99760097D01*
X131231534Y-99760104D01*
X131299668Y-99788325D01*
X131377210Y-99820444D01*
X131389691Y-99822926D01*
X131451602Y-99855311D01*
X131486176Y-99916027D01*
X131489500Y-99944544D01*
X131489500Y-100018846D01*
X131520261Y-100173489D01*
X131520264Y-100173501D01*
X131580602Y-100319172D01*
X131580609Y-100319185D01*
X131668210Y-100450288D01*
X131668213Y-100450292D01*
X131779707Y-100561786D01*
X131779711Y-100561789D01*
X131910814Y-100649390D01*
X131910827Y-100649397D01*
X132039024Y-100702497D01*
X132056503Y-100709737D01*
X132211153Y-100740499D01*
X132211156Y-100740500D01*
X132211158Y-100740500D01*
X132368844Y-100740500D01*
X132368845Y-100740499D01*
X132523497Y-100709737D01*
X132669179Y-100649394D01*
X132800289Y-100561789D01*
X132911789Y-100450289D01*
X132999394Y-100319179D01*
X133059737Y-100173497D01*
X133090500Y-100018842D01*
X133090500Y-99861158D01*
X133090500Y-99861155D01*
X133090499Y-99861153D01*
X133070398Y-99760101D01*
X133059737Y-99706503D01*
X132999468Y-99560999D01*
X132999397Y-99560827D01*
X132999390Y-99560814D01*
X132911789Y-99429711D01*
X132911786Y-99429707D01*
X132800292Y-99318213D01*
X132800288Y-99318210D01*
X132669185Y-99230609D01*
X132669172Y-99230602D01*
X132523501Y-99170264D01*
X132523488Y-99170260D01*
X132511010Y-99167778D01*
X132482888Y-99153065D01*
X132454004Y-99139875D01*
X132452145Y-99136982D01*
X132449101Y-99135390D01*
X132433395Y-99107807D01*
X132416230Y-99081097D01*
X132415568Y-99076499D01*
X132414529Y-99074673D01*
X132411207Y-99046162D01*
X132411207Y-99034500D01*
X132430892Y-98967461D01*
X132483696Y-98921706D01*
X132535207Y-98910500D01*
X132628844Y-98910500D01*
X132628845Y-98910499D01*
X132783497Y-98879737D01*
X132929179Y-98819394D01*
X133060289Y-98731789D01*
X133171789Y-98620289D01*
X133259394Y-98489179D01*
X133319737Y-98343497D01*
X133350500Y-98188842D01*
X133350500Y-98031158D01*
X133350500Y-98031155D01*
X133350499Y-98031153D01*
X133336509Y-97960821D01*
X133319737Y-97876503D01*
X133296749Y-97821004D01*
X133259397Y-97730827D01*
X133259390Y-97730814D01*
X133171789Y-97599711D01*
X133171786Y-97599707D01*
X133144760Y-97572681D01*
X133111275Y-97511358D01*
X133116259Y-97441666D01*
X133144760Y-97397319D01*
X133171786Y-97370292D01*
X133171789Y-97370289D01*
X133259394Y-97239179D01*
X133319737Y-97093497D01*
X133350500Y-96938842D01*
X133350500Y-96781158D01*
X133350500Y-96781155D01*
X133350499Y-96781153D01*
X133330436Y-96680289D01*
X133319737Y-96626503D01*
X133300224Y-96579394D01*
X133259397Y-96480827D01*
X133259390Y-96480814D01*
X133171789Y-96349711D01*
X133171786Y-96349707D01*
X133060292Y-96238213D01*
X133060288Y-96238210D01*
X132929185Y-96150609D01*
X132929172Y-96150602D01*
X132783501Y-96090264D01*
X132783489Y-96090261D01*
X132628845Y-96059500D01*
X132628842Y-96059500D01*
X132471158Y-96059500D01*
X132471155Y-96059500D01*
X132316510Y-96090261D01*
X132316498Y-96090264D01*
X132170827Y-96150602D01*
X132170814Y-96150609D01*
X132039711Y-96238210D01*
X132039707Y-96238213D01*
X131928213Y-96349707D01*
X131928210Y-96349711D01*
X131840609Y-96480814D01*
X131840602Y-96480827D01*
X131780264Y-96626498D01*
X131780261Y-96626510D01*
X131749500Y-96781153D01*
X131749500Y-96938846D01*
X131780261Y-97093489D01*
X131780264Y-97093501D01*
X131840602Y-97239172D01*
X131840609Y-97239185D01*
X131928210Y-97370288D01*
X131928213Y-97370292D01*
X131955240Y-97397319D01*
X131988725Y-97458642D01*
X131983741Y-97528334D01*
X131955240Y-97572681D01*
X131928213Y-97599707D01*
X131928210Y-97599711D01*
X131840609Y-97730814D01*
X131840602Y-97730827D01*
X131780264Y-97876498D01*
X131780261Y-97876510D01*
X131749500Y-98031153D01*
X131749500Y-98126207D01*
X131729815Y-98193246D01*
X131677011Y-98239001D01*
X131625500Y-98250207D01*
X131531862Y-98250207D01*
X131377217Y-98280968D01*
X131377205Y-98280971D01*
X131231534Y-98341309D01*
X131231521Y-98341316D01*
X131100418Y-98428917D01*
X131100414Y-98428920D01*
X130988920Y-98540414D01*
X130988917Y-98540418D01*
X130901316Y-98671521D01*
X130901309Y-98671534D01*
X130840971Y-98817205D01*
X130840968Y-98817217D01*
X130810207Y-98971860D01*
X129036217Y-98971860D01*
X129051289Y-98961789D01*
X129091372Y-98921706D01*
X129134987Y-98878092D01*
X129162786Y-98850292D01*
X129162789Y-98850289D01*
X129250394Y-98719179D01*
X129310737Y-98573497D01*
X129341500Y-98418842D01*
X129341500Y-98261158D01*
X129341500Y-98261155D01*
X129341499Y-98261153D01*
X129337093Y-98239001D01*
X129310737Y-98106503D01*
X129303659Y-98089415D01*
X129250397Y-97960827D01*
X129250390Y-97960814D01*
X129162789Y-97829711D01*
X129162786Y-97829707D01*
X129051292Y-97718213D01*
X129051288Y-97718210D01*
X128920185Y-97630609D01*
X128920172Y-97630602D01*
X128774501Y-97570264D01*
X128774489Y-97570261D01*
X128619845Y-97539500D01*
X128619842Y-97539500D01*
X128462158Y-97539500D01*
X128462155Y-97539500D01*
X128307510Y-97570261D01*
X128307498Y-97570264D01*
X128161827Y-97630602D01*
X128161814Y-97630609D01*
X128030711Y-97718210D01*
X128030707Y-97718213D01*
X127919213Y-97829707D01*
X127919210Y-97829711D01*
X127831609Y-97960814D01*
X127831602Y-97960827D01*
X127771264Y-98106498D01*
X127771261Y-98106510D01*
X127740500Y-98261153D01*
X118734487Y-98261153D01*
X118760775Y-98221811D01*
X118760776Y-98221808D01*
X118760778Y-98221805D01*
X118766656Y-98207614D01*
X118800375Y-98126207D01*
X118813580Y-98094328D01*
X118828215Y-98020753D01*
X118840500Y-97958995D01*
X118840500Y-97821004D01*
X118813581Y-97685677D01*
X118813580Y-97685676D01*
X118813580Y-97685672D01*
X118813578Y-97685667D01*
X118760778Y-97558195D01*
X118760771Y-97558182D01*
X118684114Y-97443458D01*
X118684111Y-97443454D01*
X118586545Y-97345888D01*
X118586541Y-97345885D01*
X118507546Y-97293102D01*
X118462741Y-97239490D01*
X118454034Y-97170165D01*
X118484189Y-97107137D01*
X118507546Y-97086898D01*
X118538252Y-97066380D01*
X118586542Y-97034114D01*
X118684114Y-96936542D01*
X118760775Y-96821811D01*
X118813580Y-96694328D01*
X118827072Y-96626498D01*
X118840500Y-96558995D01*
X118840500Y-96421004D01*
X118813581Y-96285677D01*
X118813580Y-96285676D01*
X118813580Y-96285672D01*
X118798326Y-96248846D01*
X118760778Y-96158195D01*
X118760771Y-96158182D01*
X118684114Y-96043458D01*
X118684111Y-96043454D01*
X118586545Y-95945888D01*
X118586541Y-95945885D01*
X118471817Y-95869228D01*
X118471804Y-95869221D01*
X118344332Y-95816421D01*
X118344322Y-95816418D01*
X118233125Y-95794299D01*
X118171214Y-95761914D01*
X118136640Y-95701198D01*
X118135700Y-95696873D01*
X118113581Y-95585679D01*
X118113581Y-95585677D01*
X118113580Y-95585672D01*
X118098326Y-95548846D01*
X118060778Y-95458195D01*
X118060771Y-95458182D01*
X117984114Y-95343458D01*
X117984111Y-95343454D01*
X117886545Y-95245888D01*
X117886541Y-95245885D01*
X117771817Y-95169228D01*
X117771804Y-95169221D01*
X117644332Y-95116421D01*
X117644322Y-95116418D01*
X117508995Y-95089500D01*
X117508993Y-95089500D01*
X117371007Y-95089500D01*
X117371005Y-95089500D01*
X117235677Y-95116418D01*
X117235667Y-95116421D01*
X117108195Y-95169221D01*
X117108182Y-95169228D01*
X116993458Y-95245885D01*
X116993454Y-95245888D01*
X116895888Y-95343454D01*
X116895885Y-95343458D01*
X116843102Y-95422453D01*
X116789489Y-95467258D01*
X116720164Y-95475965D01*
X116657137Y-95445810D01*
X116636898Y-95422453D01*
X116584114Y-95343458D01*
X116584111Y-95343454D01*
X116486545Y-95245888D01*
X116486541Y-95245885D01*
X116371817Y-95169228D01*
X116371804Y-95169221D01*
X116244332Y-95116421D01*
X116244322Y-95116418D01*
X116108995Y-95089500D01*
X116108993Y-95089500D01*
X115971007Y-95089500D01*
X115971005Y-95089500D01*
X115835677Y-95116418D01*
X115835667Y-95116421D01*
X115708195Y-95169221D01*
X115708182Y-95169228D01*
X115593458Y-95245885D01*
X115593454Y-95245888D01*
X115495888Y-95343454D01*
X115495885Y-95343458D01*
X115419228Y-95458182D01*
X115419221Y-95458195D01*
X115366421Y-95585667D01*
X115366418Y-95585677D01*
X115344299Y-95696874D01*
X115311913Y-95758785D01*
X115251197Y-95793359D01*
X115246874Y-95794299D01*
X115135677Y-95816418D01*
X115135667Y-95816421D01*
X115008195Y-95869221D01*
X115008182Y-95869228D01*
X114893458Y-95945885D01*
X114893454Y-95945888D01*
X114795888Y-96043454D01*
X114795885Y-96043458D01*
X114719228Y-96158182D01*
X114719221Y-96158195D01*
X114666421Y-96285667D01*
X114666418Y-96285677D01*
X114639500Y-96421004D01*
X114639500Y-96421007D01*
X114639500Y-96558993D01*
X114639500Y-96558995D01*
X114639499Y-96558995D01*
X105800000Y-96558995D01*
X105800000Y-94531153D01*
X110419500Y-94531153D01*
X110419500Y-94688846D01*
X110450261Y-94843489D01*
X110450264Y-94843501D01*
X110510602Y-94989172D01*
X110510609Y-94989185D01*
X110561503Y-95065353D01*
X110582381Y-95132031D01*
X110572963Y-95181694D01*
X110550264Y-95236497D01*
X110550261Y-95236505D01*
X110519500Y-95391153D01*
X110519500Y-95548846D01*
X110550261Y-95703489D01*
X110550264Y-95703501D01*
X110610602Y-95849172D01*
X110610609Y-95849185D01*
X110698210Y-95980288D01*
X110698213Y-95980292D01*
X110809707Y-96091786D01*
X110809711Y-96091789D01*
X110940814Y-96179390D01*
X110940827Y-96179397D01*
X111082816Y-96238210D01*
X111086503Y-96239737D01*
X111182550Y-96258842D01*
X111241153Y-96270499D01*
X111241156Y-96270500D01*
X111241158Y-96270500D01*
X111398844Y-96270500D01*
X111398845Y-96270499D01*
X111553497Y-96239737D01*
X111699179Y-96179394D01*
X111830289Y-96091789D01*
X111941789Y-95980289D01*
X112029394Y-95849179D01*
X112089737Y-95703497D01*
X112120500Y-95548842D01*
X112120500Y-95391158D01*
X112120500Y-95391155D01*
X112120499Y-95391153D01*
X112101842Y-95297361D01*
X112089737Y-95236503D01*
X112046464Y-95132031D01*
X112029397Y-95090827D01*
X112029390Y-95090814D01*
X111978495Y-95014645D01*
X111957617Y-94947968D01*
X111967036Y-94898301D01*
X111989737Y-94843497D01*
X112020500Y-94688842D01*
X112020500Y-94531158D01*
X112020500Y-94531155D01*
X112020499Y-94531153D01*
X111996170Y-94408846D01*
X111989737Y-94376503D01*
X111989735Y-94376498D01*
X111954950Y-94292518D01*
X111937816Y-94251153D01*
X121609500Y-94251153D01*
X121609500Y-94408846D01*
X121640261Y-94563489D01*
X121640264Y-94563501D01*
X121700602Y-94709172D01*
X121700609Y-94709185D01*
X121788210Y-94840288D01*
X121788213Y-94840292D01*
X121899707Y-94951786D01*
X121899711Y-94951789D01*
X122030814Y-95039390D01*
X122030821Y-95039394D01*
X122098163Y-95067287D01*
X122152565Y-95111127D01*
X122174631Y-95177420D01*
X122157353Y-95245120D01*
X122138392Y-95269529D01*
X122048210Y-95359711D01*
X121960609Y-95490814D01*
X121960602Y-95490827D01*
X121900264Y-95636498D01*
X121900261Y-95636510D01*
X121869500Y-95791153D01*
X121869500Y-95948846D01*
X121900261Y-96103489D01*
X121900264Y-96103501D01*
X121960602Y-96249172D01*
X121960609Y-96249185D01*
X122048210Y-96380288D01*
X122048213Y-96380292D01*
X122159707Y-96491786D01*
X122159711Y-96491789D01*
X122290814Y-96579390D01*
X122290827Y-96579397D01*
X122404541Y-96626498D01*
X122436503Y-96639737D01*
X122591153Y-96670499D01*
X122591156Y-96670500D01*
X122591158Y-96670500D01*
X122748844Y-96670500D01*
X122748845Y-96670499D01*
X122903497Y-96639737D01*
X123049179Y-96579394D01*
X123180289Y-96491789D01*
X123291789Y-96380289D01*
X123355010Y-96285672D01*
X123382742Y-96244169D01*
X123436354Y-96199363D01*
X123505679Y-96190656D01*
X123568706Y-96220810D01*
X123605426Y-96280253D01*
X123607461Y-96288867D01*
X123630261Y-96403491D01*
X123630264Y-96403501D01*
X123690602Y-96549172D01*
X123690609Y-96549185D01*
X123778210Y-96680288D01*
X123778213Y-96680292D01*
X123889707Y-96791786D01*
X123889711Y-96791789D01*
X124020814Y-96879390D01*
X124020827Y-96879397D01*
X124158797Y-96936545D01*
X124166503Y-96939737D01*
X124321153Y-96970499D01*
X124321156Y-96970500D01*
X124321158Y-96970500D01*
X124478844Y-96970500D01*
X124478845Y-96970499D01*
X124633497Y-96939737D01*
X124779179Y-96879394D01*
X124910289Y-96791789D01*
X125021789Y-96680289D01*
X125109394Y-96549179D01*
X125169737Y-96403497D01*
X125200500Y-96248842D01*
X125200500Y-96091158D01*
X125200500Y-96091155D01*
X125200499Y-96091153D01*
X125178447Y-95980292D01*
X125169737Y-95936503D01*
X125141868Y-95869221D01*
X125109397Y-95790827D01*
X125109390Y-95790814D01*
X125021789Y-95659711D01*
X125021786Y-95659707D01*
X124910292Y-95548213D01*
X124910288Y-95548210D01*
X124779185Y-95460609D01*
X124779172Y-95460602D01*
X124633501Y-95400264D01*
X124633491Y-95400261D01*
X124510963Y-95375888D01*
X124449052Y-95343503D01*
X124414478Y-95282787D01*
X124418219Y-95213017D01*
X124459085Y-95156345D01*
X124487693Y-95139714D01*
X124609179Y-95089394D01*
X124740289Y-95001789D01*
X124851789Y-94890289D01*
X124939394Y-94759179D01*
X124999737Y-94613497D01*
X125030500Y-94458842D01*
X125030500Y-94301158D01*
X125030500Y-94301155D01*
X125030499Y-94301153D01*
X125016509Y-94230821D01*
X124999737Y-94146503D01*
X124980354Y-94099707D01*
X124939397Y-94000827D01*
X124939390Y-94000814D01*
X124851789Y-93869711D01*
X124851786Y-93869707D01*
X124740292Y-93758213D01*
X124740288Y-93758210D01*
X124609185Y-93670609D01*
X124609172Y-93670602D01*
X124463501Y-93610264D01*
X124463489Y-93610261D01*
X124308845Y-93579500D01*
X124308842Y-93579500D01*
X124151158Y-93579500D01*
X124151155Y-93579500D01*
X123996510Y-93610261D01*
X123996498Y-93610264D01*
X123850827Y-93670602D01*
X123850814Y-93670609D01*
X123719711Y-93758210D01*
X123719707Y-93758213D01*
X123608213Y-93869707D01*
X123608210Y-93869711D01*
X123520609Y-94000814D01*
X123520602Y-94000827D01*
X123460264Y-94146498D01*
X123460261Y-94146507D01*
X123446589Y-94215241D01*
X123414203Y-94277151D01*
X123353487Y-94311725D01*
X123283717Y-94307984D01*
X123227046Y-94267117D01*
X123203355Y-94215239D01*
X123189683Y-94146507D01*
X123179737Y-94096503D01*
X123171037Y-94075500D01*
X123119397Y-93950827D01*
X123119390Y-93950814D01*
X123031789Y-93819711D01*
X123031786Y-93819707D01*
X122920292Y-93708213D01*
X122920288Y-93708210D01*
X122789185Y-93620609D01*
X122789172Y-93620602D01*
X122643501Y-93560264D01*
X122643489Y-93560261D01*
X122488845Y-93529500D01*
X122488842Y-93529500D01*
X122331158Y-93529500D01*
X122331155Y-93529500D01*
X122176510Y-93560261D01*
X122176498Y-93560264D01*
X122030827Y-93620602D01*
X122030814Y-93620609D01*
X121899711Y-93708210D01*
X121899707Y-93708213D01*
X121788213Y-93819707D01*
X121788210Y-93819711D01*
X121700609Y-93950814D01*
X121700602Y-93950827D01*
X121640264Y-94096498D01*
X121640261Y-94096510D01*
X121609500Y-94251153D01*
X111937816Y-94251153D01*
X111929397Y-94230827D01*
X111929390Y-94230814D01*
X111841789Y-94099711D01*
X111841786Y-94099707D01*
X111825404Y-94083325D01*
X111791919Y-94022002D01*
X111796903Y-93952310D01*
X111838775Y-93896377D01*
X111844166Y-93892561D01*
X111860289Y-93881789D01*
X111971789Y-93770289D01*
X112059394Y-93639179D01*
X112119737Y-93493497D01*
X112150500Y-93338842D01*
X112150500Y-93181158D01*
X112150500Y-93181155D01*
X112150499Y-93181153D01*
X112143633Y-93146635D01*
X112119737Y-93026503D01*
X112093731Y-92963719D01*
X112059397Y-92880827D01*
X112059390Y-92880814D01*
X111971789Y-92749711D01*
X111971786Y-92749707D01*
X111860292Y-92638213D01*
X111860288Y-92638210D01*
X111729185Y-92550609D01*
X111729172Y-92550602D01*
X111583501Y-92490264D01*
X111583489Y-92490261D01*
X111428845Y-92459500D01*
X111428842Y-92459500D01*
X111271158Y-92459500D01*
X111271155Y-92459500D01*
X111116510Y-92490261D01*
X111116498Y-92490264D01*
X110970827Y-92550602D01*
X110970814Y-92550609D01*
X110839711Y-92638210D01*
X110839707Y-92638213D01*
X110728213Y-92749707D01*
X110728210Y-92749711D01*
X110640609Y-92880814D01*
X110640602Y-92880827D01*
X110580264Y-93026498D01*
X110580261Y-93026510D01*
X110549500Y-93181153D01*
X110549500Y-93338846D01*
X110580261Y-93493489D01*
X110580264Y-93493501D01*
X110640602Y-93639172D01*
X110640609Y-93639185D01*
X110728210Y-93770288D01*
X110728212Y-93770291D01*
X110744593Y-93786671D01*
X110778080Y-93847993D01*
X110773097Y-93917685D01*
X110731227Y-93973619D01*
X110725808Y-93977454D01*
X110709712Y-93988209D01*
X110709707Y-93988213D01*
X110598213Y-94099707D01*
X110598210Y-94099711D01*
X110510609Y-94230814D01*
X110510602Y-94230827D01*
X110450264Y-94376498D01*
X110450261Y-94376510D01*
X110419500Y-94531153D01*
X105800000Y-94531153D01*
X105800000Y-93021153D01*
X106620500Y-93021153D01*
X106620500Y-93178846D01*
X106651261Y-93333489D01*
X106651264Y-93333501D01*
X106711602Y-93479172D01*
X106711609Y-93479185D01*
X106799210Y-93610288D01*
X106799213Y-93610292D01*
X106910707Y-93721786D01*
X106910711Y-93721789D01*
X107041814Y-93809390D01*
X107041827Y-93809397D01*
X107187440Y-93869711D01*
X107187503Y-93869737D01*
X107342153Y-93900499D01*
X107342156Y-93900500D01*
X107342158Y-93900500D01*
X107499844Y-93900500D01*
X107499845Y-93900499D01*
X107654497Y-93869737D01*
X107800179Y-93809394D01*
X107931289Y-93721789D01*
X108042789Y-93610289D01*
X108130394Y-93479179D01*
X108190737Y-93333497D01*
X108221500Y-93178842D01*
X108221500Y-93021158D01*
X108221500Y-93021155D01*
X108221499Y-93021153D01*
X108216640Y-92996724D01*
X108190737Y-92866503D01*
X108142359Y-92749707D01*
X108130397Y-92720827D01*
X108130390Y-92720814D01*
X108042789Y-92589711D01*
X108042786Y-92589707D01*
X107931292Y-92478213D01*
X107931288Y-92478210D01*
X107800185Y-92390609D01*
X107800172Y-92390602D01*
X107654501Y-92330264D01*
X107654489Y-92330261D01*
X107499845Y-92299500D01*
X107499842Y-92299500D01*
X107342158Y-92299500D01*
X107342155Y-92299500D01*
X107187510Y-92330261D01*
X107187498Y-92330264D01*
X107041827Y-92390602D01*
X107041814Y-92390609D01*
X106910711Y-92478210D01*
X106910707Y-92478213D01*
X106799213Y-92589707D01*
X106799210Y-92589711D01*
X106711609Y-92720814D01*
X106711602Y-92720827D01*
X106651264Y-92866498D01*
X106651261Y-92866510D01*
X106620500Y-93021153D01*
X105800000Y-93021153D01*
X105800000Y-90581153D01*
X110399500Y-90581153D01*
X110399500Y-90738846D01*
X110430261Y-90893489D01*
X110430264Y-90893501D01*
X110490602Y-91039172D01*
X110490609Y-91039185D01*
X110578210Y-91170288D01*
X110578213Y-91170292D01*
X110689707Y-91281786D01*
X110689711Y-91281789D01*
X110820814Y-91369390D01*
X110820827Y-91369397D01*
X110966498Y-91429735D01*
X110966503Y-91429737D01*
X111121153Y-91460499D01*
X111121156Y-91460500D01*
X111121158Y-91460500D01*
X111278844Y-91460500D01*
X111278845Y-91460499D01*
X111433497Y-91429737D01*
X111579179Y-91369394D01*
X111710289Y-91281789D01*
X111821789Y-91170289D01*
X111909394Y-91039179D01*
X111969737Y-90893497D01*
X112000500Y-90738842D01*
X112000500Y-90601153D01*
X124689500Y-90601153D01*
X124689500Y-90758846D01*
X124720261Y-90913489D01*
X124720264Y-90913501D01*
X124780602Y-91059172D01*
X124780609Y-91059185D01*
X124868210Y-91190288D01*
X124868213Y-91190292D01*
X124979707Y-91301786D01*
X124979711Y-91301789D01*
X125110814Y-91389390D01*
X125110827Y-91389397D01*
X125256498Y-91449735D01*
X125256503Y-91449737D01*
X125411153Y-91480499D01*
X125411156Y-91480500D01*
X125411158Y-91480500D01*
X125568844Y-91480500D01*
X125568845Y-91480499D01*
X125723497Y-91449737D01*
X125869179Y-91389394D01*
X126000289Y-91301789D01*
X126111789Y-91190289D01*
X126199394Y-91059179D01*
X126259737Y-90913497D01*
X126290500Y-90758842D01*
X126290500Y-90601158D01*
X126290500Y-90601155D01*
X126290499Y-90601153D01*
X126259738Y-90446510D01*
X126259737Y-90446503D01*
X126259735Y-90446498D01*
X126199397Y-90300827D01*
X126199390Y-90300814D01*
X126111789Y-90169711D01*
X126111786Y-90169707D01*
X126000292Y-90058213D01*
X126000288Y-90058210D01*
X125869185Y-89970609D01*
X125869172Y-89970602D01*
X125723501Y-89910264D01*
X125723489Y-89910261D01*
X125568845Y-89879500D01*
X125568842Y-89879500D01*
X125411158Y-89879500D01*
X125411155Y-89879500D01*
X125256510Y-89910261D01*
X125256498Y-89910264D01*
X125110827Y-89970602D01*
X125110814Y-89970609D01*
X124979711Y-90058210D01*
X124979707Y-90058213D01*
X124868213Y-90169707D01*
X124868210Y-90169711D01*
X124780609Y-90300814D01*
X124780602Y-90300827D01*
X124720264Y-90446498D01*
X124720261Y-90446510D01*
X124689500Y-90601153D01*
X112000500Y-90601153D01*
X112000500Y-90581158D01*
X112000500Y-90581155D01*
X112000499Y-90581153D01*
X111969737Y-90426503D01*
X111917681Y-90300827D01*
X111909397Y-90280827D01*
X111909390Y-90280814D01*
X111821789Y-90149711D01*
X111821786Y-90149707D01*
X111710292Y-90038213D01*
X111710288Y-90038210D01*
X111579185Y-89950609D01*
X111579172Y-89950602D01*
X111433501Y-89890264D01*
X111433489Y-89890261D01*
X111278845Y-89859500D01*
X111278842Y-89859500D01*
X111121158Y-89859500D01*
X111121155Y-89859500D01*
X110966510Y-89890261D01*
X110966498Y-89890264D01*
X110820827Y-89950602D01*
X110820814Y-89950609D01*
X110689711Y-90038210D01*
X110689707Y-90038213D01*
X110578213Y-90149707D01*
X110578210Y-90149711D01*
X110490609Y-90280814D01*
X110490602Y-90280827D01*
X110430264Y-90426498D01*
X110430261Y-90426510D01*
X110399500Y-90581153D01*
X105800000Y-90581153D01*
X105800000Y-89213085D01*
X105819685Y-89146046D01*
X105872489Y-89100291D01*
X105923079Y-89089088D01*
X107380904Y-89078289D01*
X107448083Y-89097476D01*
X107494228Y-89149939D01*
X107496379Y-89154832D01*
X107510607Y-89189182D01*
X107598210Y-89320288D01*
X107598213Y-89320292D01*
X107709707Y-89431786D01*
X107709711Y-89431789D01*
X107840814Y-89519390D01*
X107840827Y-89519397D01*
X107986498Y-89579735D01*
X107986503Y-89579737D01*
X108141153Y-89610499D01*
X108141156Y-89610500D01*
X108141158Y-89610500D01*
X108298844Y-89610500D01*
X108298845Y-89610499D01*
X108453497Y-89579737D01*
X108599179Y-89519394D01*
X108730289Y-89431789D01*
X108841789Y-89320289D01*
X108929394Y-89189179D01*
X108948780Y-89142376D01*
X108992619Y-89087975D01*
X109058913Y-89065909D01*
X109062358Y-89065834D01*
X135386911Y-88870837D01*
X135454092Y-88890025D01*
G37*
%TD.AperFunction*%
%TD*%
M02*
