solid OpenSCAD_Model
  facet normal 1 -0 0
    outer loop
      vertex 42 0 12
      vertex 42 14 0
      vertex 42 14 12
    endloop
  endfacet
  facet normal 1 0 0
    outer loop
      vertex 42 14 0
      vertex 42 0 12
      vertex 42 0 0
    endloop
  endfacet
  facet normal -0 0 1
    outer loop
      vertex 10 14 12
      vertex 42 0 12
      vertex 42 14 12
    endloop
  endfacet
  facet normal 0 0 1
    outer loop
      vertex 42 0 12
      vertex 10 14 12
      vertex 10 0 12
    endloop
  endfacet
  facet normal 0 0 -1
    outer loop
      vertex 10 0 0
      vertex 42 14 0
      vertex 42 0 0
    endloop
  endfacet
  facet normal -0 0 -1
    outer loop
      vertex 42 14 0
      vertex 10 0 0
      vertex 10 14 0
    endloop
  endfacet
  facet normal -1 0 0
    outer loop
      vertex 10 0 0
      vertex 10 14 12
      vertex 10 14 0
    endloop
  endfacet
  facet normal -1 -0 0
    outer loop
      vertex 10 14 12
      vertex 10 0 0
      vertex 10 0 12
    endloop
  endfacet
  facet normal 0 1 -0
    outer loop
      vertex 42 14 0
      vertex 10 14 12
      vertex 42 14 12
    endloop
  endfacet
  facet normal 0 1 0
    outer loop
      vertex 10 14 12
      vertex 42 14 0
      vertex 10 14 0
    endloop
  endfacet
  facet normal 0 -1 0
    outer loop
      vertex 10 0 0
      vertex 42 0 12
      vertex 10 0 12
    endloop
  endfacet
  facet normal 0 -1 -0
    outer loop
      vertex 42 0 12
      vertex 10 0 0
      vertex 42 0 0
    endloop
  endfacet
  facet normal -0 0 1
    outer loop
      vertex 68 12 12
      vertex 84 2 12
      vertex 84 12 12
    endloop
  endfacet
  facet normal 0 0 1
    outer loop
      vertex 84 2 12
      vertex 68 12 12
      vertex 68 2 12
    endloop
  endfacet
  facet normal 0 0 1
    outer loop
      vertex 84 12 12
      vertex 148 14 12
      vertex 84 14 12
    endloop
  endfacet
  facet normal 0 0 1
    outer loop
      vertex 148 14 12
      vertex 84 12 12
      vertex 148 0 12
    endloop
  endfacet
  facet normal -0 0 1
    outer loop
      vertex 84 2 12
      vertex 148 0 12
      vertex 84 12 12
    endloop
  endfacet
  facet normal 0 0 1
    outer loop
      vertex 148 0 12
      vertex 84 2 12
      vertex 84 0 12
    endloop
  endfacet
  facet normal 0 0 -1
    outer loop
      vertex 68 2 2
      vertex 84 12 2
      vertex 84 2 2
    endloop
  endfacet
  facet normal -0 0 -1
    outer loop
      vertex 84 12 2
      vertex 68 2 2
      vertex 68 12 2
    endloop
  endfacet
  facet normal -1 0 0
    outer loop
      vertex 68 2 2
      vertex 68 12 12
      vertex 68 12 2
    endloop
  endfacet
  facet normal -1 -0 0
    outer loop
      vertex 68 12 12
      vertex 68 2 2
      vertex 68 2 12
    endloop
  endfacet
  facet normal 0 1 -0
    outer loop
      vertex 84 12 2
      vertex 68 12 12
      vertex 84 12 12
    endloop
  endfacet
  facet normal 0 1 0
    outer loop
      vertex 68 12 12
      vertex 84 12 2
      vertex 68 12 2
    endloop
  endfacet
  facet normal 0 -1 0
    outer loop
      vertex 68 2 12
      vertex 74 2 8
      vertex 84 2 12
    endloop
  endfacet
  facet normal 0 -1 0
    outer loop
      vertex 68 2 2
      vertex 74 2 8
      vertex 68 2 12
    endloop
  endfacet
  facet normal 0 -1 -0
    outer loop
      vertex 74 2 8
      vertex 68 2 2
      vertex 74 2 4
    endloop
  endfacet
  facet normal 0 -1 0
    outer loop
      vertex 84 2 2
      vertex 74 2 4
      vertex 68 2 2
    endloop
  endfacet
  facet normal 0 -1 0
    outer loop
      vertex 74 2 4
      vertex 84 2 2
      vertex 84 2 4
    endloop
  endfacet
  facet normal 0 -1 -0
    outer loop
      vertex 84 2 12
      vertex 74 2 8
      vertex 84 2 8
    endloop
  endfacet
  facet normal 1 -0 0
    outer loop
      vertex 86 -2 8
      vertex 86 0 4
      vertex 86 0 8
    endloop
  endfacet
  facet normal 1 0 0
    outer loop
      vertex 86 0 4
      vertex 86 -2 8
      vertex 86 -2 4
    endloop
  endfacet
  facet normal 0 0 1
    outer loop
      vertex 84 2 8
      vertex 74 2 8
      vertex 84 0 8
    endloop
  endfacet
  facet normal -0 0 1
    outer loop
      vertex 84 0 8
      vertex 86 -2 8
      vertex 86 0 8
    endloop
  endfacet
  facet normal 0 0 1
    outer loop
      vertex 74 -2 8
      vertex 84 0 8
      vertex 74 2 8
    endloop
  endfacet
  facet normal 0 0 1
    outer loop
      vertex 84 0 8
      vertex 74 -2 8
      vertex 86 -2 8
    endloop
  endfacet
  facet normal 0 0 -1
    outer loop
      vertex 86 -2 4
      vertex 84 0 4
      vertex 86 0 4
    endloop
  endfacet
  facet normal 0 0 -1
    outer loop
      vertex 74 -2 4
      vertex 84 0 4
      vertex 86 -2 4
    endloop
  endfacet
  facet normal 0 0 -1
    outer loop
      vertex 74 2 4
      vertex 84 0 4
      vertex 74 -2 4
    endloop
  endfacet
  facet normal 0 0 -1
    outer loop
      vertex 84 0 4
      vertex 74 2 4
      vertex 84 2 4
    endloop
  endfacet
  facet normal -1 0 0
    outer loop
      vertex 74 -2 4
      vertex 74 2 8
      vertex 74 2 4
    endloop
  endfacet
  facet normal -1 -0 0
    outer loop
      vertex 74 2 8
      vertex 74 -2 4
      vertex 74 -2 8
    endloop
  endfacet
  facet normal 0 -1 0
    outer loop
      vertex 74 -2 4
      vertex 86 -2 8
      vertex 74 -2 8
    endloop
  endfacet
  facet normal 0 -1 -0
    outer loop
      vertex 86 -2 8
      vertex 74 -2 4
      vertex 86 -2 4
    endloop
  endfacet
  facet normal 1 -0 0
    outer loop
      vertex 148 0 12
      vertex 148 14 0
      vertex 148 14 12
    endloop
  endfacet
  facet normal 1 0 0
    outer loop
      vertex 148 14 0
      vertex 148 0 12
      vertex 148 0 0
    endloop
  endfacet
  facet normal 0 0 -1
    outer loop
      vertex 84 0 0
      vertex 148 14 0
      vertex 148 0 0
    endloop
  endfacet
  facet normal -0 0 -1
    outer loop
      vertex 148 14 0
      vertex 84 0 0
      vertex 84 14 0
    endloop
  endfacet
  facet normal -1 0 0
    outer loop
      vertex 84 14 0
      vertex 84 12 2
      vertex 84 14 12
    endloop
  endfacet
  facet normal -1 0 0
    outer loop
      vertex 84 14 0
      vertex 84 2 2
      vertex 84 12 2
    endloop
  endfacet
  facet normal -1 0 0
    outer loop
      vertex 84 0 0
      vertex 84 2 2
      vertex 84 14 0
    endloop
  endfacet
  facet normal -1 0 0
    outer loop
      vertex 84 0 4
      vertex 84 2 2
      vertex 84 0 0
    endloop
  endfacet
  facet normal -1 0 0
    outer loop
      vertex 84 2 2
      vertex 84 0 4
      vertex 84 2 4
    endloop
  endfacet
  facet normal -1 -0 0
    outer loop
      vertex 84 14 12
      vertex 84 12 2
      vertex 84 12 12
    endloop
  endfacet
  facet normal -1 0 0
    outer loop
      vertex 84 0 8
      vertex 84 2 12
      vertex 84 2 8
    endloop
  endfacet
  facet normal -1 -0 0
    outer loop
      vertex 84 2 12
      vertex 84 0 8
      vertex 84 0 12
    endloop
  endfacet
  facet normal 0 1 -0
    outer loop
      vertex 148 14 0
      vertex 84 14 12
      vertex 148 14 12
    endloop
  endfacet
  facet normal 0 1 0
    outer loop
      vertex 84 14 12
      vertex 148 14 0
      vertex 84 14 0
    endloop
  endfacet
  facet normal 0 -1 0
    outer loop
      vertex 84 0 4
      vertex 84 0 0
      vertex 86 0 4
    endloop
  endfacet
  facet normal 0 -1 0
    outer loop
      vertex 86 0 8
      vertex 84 0 12
      vertex 84 0 8
    endloop
  endfacet
  facet normal 0 -1 0
    outer loop
      vertex 84 0 12
      vertex 86 0 8
      vertex 148 0 12
    endloop
  endfacet
  facet normal 0 -1 0
    outer loop
      vertex 86 0 4
      vertex 148 0 12
      vertex 86 0 8
    endloop
  endfacet
  facet normal 0 -1 0
    outer loop
      vertex 148 0 0
      vertex 86 0 4
      vertex 84 0 0
    endloop
  endfacet
  facet normal 0 -1 0
    outer loop
      vertex 86 0 4
      vertex 148 0 0
      vertex 148 0 12
    endloop
  endfacet
endsolid OpenSCAD_Model
