solid OpenSCAD_Model
  facet normal 1 -0 0
    outer loop
      vertex 18 0 1.6
      vertex 18 18 0
      vertex 18 18 1.6
    endloop
  endfacet
  facet normal 1 0 0
    outer loop
      vertex 18 18 0
      vertex 18 0 1.6
      vertex 18 0 0
    endloop
  endfacet
  facet normal 0 0 1
    outer loop
      vertex 18 18 1.6
      vertex 16 12 1.6
      vertex 18 0 1.6
    endloop
  endfacet
  facet normal 0 0 1
    outer loop
      vertex 18 18 1.6
      vertex 2 12 1.6
      vertex 16 12 1.6
    endloop
  endfacet
  facet normal 0 0 1
    outer loop
      vertex 0 0 1.6
      vertex 2 12 1.6
      vertex 0 18 1.6
    endloop
  endfacet
  facet normal -0 0 1
    outer loop
      vertex 0 18 1.6
      vertex 2 12 1.6
      vertex 18 18 1.6
    endloop
  endfacet
  facet normal -0 0 1
    outer loop
      vertex 16 2 1.6
      vertex 18 0 1.6
      vertex 16 12 1.6
    endloop
  endfacet
  facet normal -0 0 1
    outer loop
      vertex 2 2 1.6
      vertex 18 0 1.6
      vertex 16 2 1.6
    endloop
  endfacet
  facet normal 0 0 1
    outer loop
      vertex 2 2 1.6
      vertex 0 0 1.6
      vertex 18 0 1.6
    endloop
  endfacet
  facet normal 0 0 1
    outer loop
      vertex 2 12 1.6
      vertex 0 0 1.6
      vertex 2 2 1.6
    endloop
  endfacet
  facet normal 0 0 -1
    outer loop
      vertex 0 0 0
      vertex 18 18 0
      vertex 18 0 0
    endloop
  endfacet
  facet normal -0 0 -1
    outer loop
      vertex 18 18 0
      vertex 0 0 0
      vertex 0 18 0
    endloop
  endfacet
  facet normal -1 0 0
    outer loop
      vertex 0 0 0
      vertex 0 18 1.6
      vertex 0 18 0
    endloop
  endfacet
  facet normal -1 -0 0
    outer loop
      vertex 0 18 1.6
      vertex 0 0 0
      vertex 0 0 1.6
    endloop
  endfacet
  facet normal 0 1 -0
    outer loop
      vertex 18 18 0
      vertex 0 18 1.6
      vertex 18 18 1.6
    endloop
  endfacet
  facet normal 0 1 0
    outer loop
      vertex 0 18 1.6
      vertex 18 18 0
      vertex 0 18 0
    endloop
  endfacet
  facet normal 0 -1 0
    outer loop
      vertex 0 0 0
      vertex 18 0 1.6
      vertex 0 0 1.6
    endloop
  endfacet
  facet normal 0 -1 -0
    outer loop
      vertex 18 0 1.6
      vertex 0 0 0
      vertex 18 0 0
    endloop
  endfacet
  facet normal 1 -0 0
    outer loop
      vertex 16 2 2.8
      vertex 16 12 1.6
      vertex 16 12 2.8
    endloop
  endfacet
  facet normal 1 0 0
    outer loop
      vertex 16 12 1.6
      vertex 16 2 2.8
      vertex 16 2 1.6
    endloop
  endfacet
  facet normal -0 0 1
    outer loop
      vertex 2 12 2.8
      vertex 16 2 2.8
      vertex 16 12 2.8
    endloop
  endfacet
  facet normal 0 0 1
    outer loop
      vertex 16 2 2.8
      vertex 2 12 2.8
      vertex 2 2 2.8
    endloop
  endfacet
  facet normal -1 0 0
    outer loop
      vertex 2 2 1.6
      vertex 2 12 2.8
      vertex 2 12 1.6
    endloop
  endfacet
  facet normal -1 -0 0
    outer loop
      vertex 2 12 2.8
      vertex 2 2 1.6
      vertex 2 2 2.8
    endloop
  endfacet
  facet normal 0 1 -0
    outer loop
      vertex 16 12 1.6
      vertex 2 12 2.8
      vertex 16 12 2.8
    endloop
  endfacet
  facet normal 0 1 0
    outer loop
      vertex 2 12 2.8
      vertex 16 12 1.6
      vertex 2 12 1.6
    endloop
  endfacet
  facet normal 0 -1 0
    outer loop
      vertex 2 2 1.6
      vertex 16 2 2.8
      vertex 2 2 2.8
    endloop
  endfacet
  facet normal 0 -1 -0
    outer loop
      vertex 16 2 2.8
      vertex 2 2 1.6
      vertex 16 2 1.6
    endloop
  endfacet
endsolid OpenSCAD_Model
